<mxfile host="65bd71144e" pages="3">
    <diagram id="tsqXndpW6SQri_ZbQSpa" name="第4章习题2">
        <mxGraphModel dx="459" dy="584" grid="1" gridSize="10" guides="1" tooltips="1" connect="1" arrows="1" fold="1" page="1" pageScale="1" pageWidth="827" pageHeight="1169" math="0" shadow="0">
            <root>
                <mxCell id="0"/>
                <mxCell id="1" parent="0"/>
                <mxCell id="kCgAafltBW_wX_pZULMc-4" style="edgeStyle=none;html=1;entryX=1;entryY=0;entryDx=0;entryDy=0;fontFamily=Times New Roman;fontSize=36;endArrow=none;endFill=0;exitX=0;exitY=1;exitDx=0;exitDy=0;" parent="1" source="kCgAafltBW_wX_pZULMc-11" target="kCgAafltBW_wX_pZULMc-3" edge="1">
                    <mxGeometry relative="1" as="geometry">
                        <mxPoint x="470" y="106.06747152180219" as="sourcePoint"/>
                    </mxGeometry>
                </mxCell>
                <mxCell id="kCgAafltBW_wX_pZULMc-5" value="1" style="edgeLabel;html=1;align=center;verticalAlign=middle;resizable=0;points=[];fontSize=36;fontFamily=Times New Roman;" parent="kCgAafltBW_wX_pZULMc-4" vertex="1" connectable="0">
                    <mxGeometry x="0.3252" relative="1" as="geometry">
                        <mxPoint x="-10" y="-30" as="offset"/>
                    </mxGeometry>
                </mxCell>
                <mxCell id="kCgAafltBW_wX_pZULMc-7" style="html=1;entryX=0;entryY=0;entryDx=0;entryDy=0;fontFamily=Times New Roman;fontSize=36;endArrow=none;endFill=0;exitX=1;exitY=1;exitDx=0;exitDy=0;" parent="1" source="kCgAafltBW_wX_pZULMc-11" target="kCgAafltBW_wX_pZULMc-10" edge="1">
                    <mxGeometry relative="1" as="geometry">
                        <mxPoint x="510" y="110" as="sourcePoint"/>
                        <mxPoint x="637.45" y="169.82000000000005" as="targetPoint"/>
                    </mxGeometry>
                </mxCell>
                <mxCell id="kCgAafltBW_wX_pZULMc-9" value="0" style="edgeLabel;html=1;align=center;verticalAlign=middle;resizable=0;points=[];fontSize=36;fontFamily=Times New Roman;" parent="kCgAafltBW_wX_pZULMc-7" vertex="1" connectable="0">
                    <mxGeometry x="-0.4898" y="1" relative="1" as="geometry">
                        <mxPoint x="35" y="-3" as="offset"/>
                    </mxGeometry>
                </mxCell>
                <mxCell id="kCgAafltBW_wX_pZULMc-3" value="&lt;font face=&quot;Times New Roman&quot; style=&quot;font-size: 36px;&quot;&gt;b&lt;/font&gt;" style="ellipse;whiteSpace=wrap;html=1;aspect=fixed;" parent="1" vertex="1">
                    <mxGeometry x="240" y="160" width="80" height="80" as="geometry"/>
                </mxCell>
                <mxCell id="kCgAafltBW_wX_pZULMc-13" style="edgeStyle=none;html=1;exitX=0;exitY=1;exitDx=0;exitDy=0;entryX=1;entryY=0;entryDx=0;entryDy=0;fontFamily=Times New Roman;fontSize=36;endArrow=none;endFill=0;" parent="1" source="kCgAafltBW_wX_pZULMc-10" target="kCgAafltBW_wX_pZULMc-12" edge="1">
                    <mxGeometry relative="1" as="geometry"/>
                </mxCell>
                <mxCell id="kCgAafltBW_wX_pZULMc-32" value="1" style="edgeLabel;html=1;align=center;verticalAlign=middle;resizable=0;points=[];fontSize=36;fontFamily=Times New Roman;" parent="kCgAafltBW_wX_pZULMc-13" vertex="1" connectable="0">
                    <mxGeometry x="0.32" y="-3" relative="1" as="geometry">
                        <mxPoint x="-2" y="-18" as="offset"/>
                    </mxGeometry>
                </mxCell>
                <mxCell id="kCgAafltBW_wX_pZULMc-15" value="0" style="edgeStyle=none;html=1;exitX=1;exitY=1;exitDx=0;exitDy=0;entryX=0;entryY=0;entryDx=0;entryDy=0;fontFamily=Times New Roman;fontSize=36;endArrow=none;endFill=0;" parent="1" source="kCgAafltBW_wX_pZULMc-10" target="kCgAafltBW_wX_pZULMc-14" edge="1">
                    <mxGeometry x="0.1949" y="19" relative="1" as="geometry">
                        <mxPoint as="offset"/>
                    </mxGeometry>
                </mxCell>
                <mxCell id="kCgAafltBW_wX_pZULMc-10" value="&lt;font face=&quot;Times New Roman&quot; style=&quot;font-size: 36px;&quot;&gt;0.6&lt;/font&gt;" style="ellipse;whiteSpace=wrap;html=1;aspect=fixed;fillColor=none;strokeColor=none;" parent="1" vertex="1">
                    <mxGeometry x="560" y="160" width="80" height="80" as="geometry"/>
                </mxCell>
                <mxCell id="kCgAafltBW_wX_pZULMc-11" value="&lt;font face=&quot;Times New Roman&quot; style=&quot;font-size: 36px;&quot;&gt;1&lt;/font&gt;" style="ellipse;whiteSpace=wrap;html=1;aspect=fixed;fillColor=none;strokeColor=none;" parent="1" vertex="1">
                    <mxGeometry x="400" y="40" width="80" height="80" as="geometry"/>
                </mxCell>
                <mxCell id="kCgAafltBW_wX_pZULMc-21" style="edgeStyle=none;html=1;exitX=1;exitY=1;exitDx=0;exitDy=0;entryX=0;entryY=0;entryDx=0;entryDy=0;fontFamily=Times New Roman;fontSize=36;endArrow=none;endFill=0;" parent="1" source="kCgAafltBW_wX_pZULMc-12" target="kCgAafltBW_wX_pZULMc-20" edge="1">
                    <mxGeometry relative="1" as="geometry"/>
                </mxCell>
                <mxCell id="kCgAafltBW_wX_pZULMc-36" value="0" style="edgeLabel;html=1;align=center;verticalAlign=middle;resizable=0;points=[];fontSize=36;fontFamily=Times New Roman;" parent="kCgAafltBW_wX_pZULMc-21" vertex="1" connectable="0">
                    <mxGeometry x="0.4053" relative="1" as="geometry">
                        <mxPoint x="7" y="-33" as="offset"/>
                    </mxGeometry>
                </mxCell>
                <mxCell id="kCgAafltBW_wX_pZULMc-12" value="&lt;font face=&quot;Times New Roman&quot; style=&quot;font-size: 36px;&quot;&gt;0.24&lt;/font&gt;" style="ellipse;whiteSpace=wrap;html=1;aspect=fixed;fillColor=none;strokeColor=none;" parent="1" vertex="1">
                    <mxGeometry x="400" y="280" width="80" height="80" as="geometry"/>
                </mxCell>
                <mxCell id="kCgAafltBW_wX_pZULMc-17" style="edgeStyle=none;html=1;exitX=0;exitY=1;exitDx=0;exitDy=0;entryX=1;entryY=0;entryDx=0;entryDy=0;fontFamily=Times New Roman;fontSize=36;endArrow=none;endFill=0;" parent="1" source="kCgAafltBW_wX_pZULMc-14" target="kCgAafltBW_wX_pZULMc-16" edge="1">
                    <mxGeometry relative="1" as="geometry"/>
                </mxCell>
                <mxCell id="kCgAafltBW_wX_pZULMc-33" value="1" style="edgeLabel;html=1;align=center;verticalAlign=middle;resizable=0;points=[];fontSize=36;fontFamily=Times New Roman;" parent="kCgAafltBW_wX_pZULMc-17" vertex="1" connectable="0">
                    <mxGeometry x="0.5124" y="2" relative="1" as="geometry">
                        <mxPoint x="-5" y="-38" as="offset"/>
                    </mxGeometry>
                </mxCell>
                <mxCell id="kCgAafltBW_wX_pZULMc-19" style="edgeStyle=none;html=1;exitX=1;exitY=1;exitDx=0;exitDy=0;entryX=0;entryY=0;entryDx=0;entryDy=0;fontFamily=Times New Roman;fontSize=36;endArrow=none;endFill=0;" parent="1" source="kCgAafltBW_wX_pZULMc-14" target="kCgAafltBW_wX_pZULMc-18" edge="1">
                    <mxGeometry relative="1" as="geometry"/>
                </mxCell>
                <mxCell id="kCgAafltBW_wX_pZULMc-34" value="0" style="edgeLabel;html=1;align=center;verticalAlign=middle;resizable=0;points=[];fontSize=36;fontFamily=Times New Roman;" parent="kCgAafltBW_wX_pZULMc-19" vertex="1" connectable="0">
                    <mxGeometry x="0.4468" y="4" relative="1" as="geometry">
                        <mxPoint x="3" y="-31" as="offset"/>
                    </mxGeometry>
                </mxCell>
                <mxCell id="kCgAafltBW_wX_pZULMc-14" value="&lt;font face=&quot;Times New Roman&quot; style=&quot;font-size: 36px;&quot;&gt;0.36&lt;/font&gt;" style="ellipse;whiteSpace=wrap;html=1;aspect=fixed;fillColor=none;strokeColor=none;" parent="1" vertex="1">
                    <mxGeometry x="720" y="280" width="80" height="80" as="geometry"/>
                </mxCell>
                <mxCell id="kCgAafltBW_wX_pZULMc-16" value="&lt;font face=&quot;Times New Roman&quot; style=&quot;font-size: 36px;&quot;&gt;a&lt;/font&gt;" style="ellipse;whiteSpace=wrap;html=1;aspect=fixed;" parent="1" vertex="1">
                    <mxGeometry x="600" y="400" width="80" height="80" as="geometry"/>
                </mxCell>
                <mxCell id="kCgAafltBW_wX_pZULMc-18" value="&lt;font face=&quot;Times New Roman&quot; style=&quot;font-size: 36px;&quot;&gt;f&lt;/font&gt;" style="ellipse;whiteSpace=wrap;html=1;aspect=fixed;" parent="1" vertex="1">
                    <mxGeometry x="840" y="400" width="80" height="80" as="geometry"/>
                </mxCell>
                <mxCell id="kCgAafltBW_wX_pZULMc-20" value="&lt;font face=&quot;Times New Roman&quot; style=&quot;font-size: 36px;&quot;&gt;c&lt;/font&gt;" style="ellipse;whiteSpace=wrap;html=1;aspect=fixed;" parent="1" vertex="1">
                    <mxGeometry x="520" y="400" width="80" height="80" as="geometry"/>
                </mxCell>
                <mxCell id="kCgAafltBW_wX_pZULMc-23" style="edgeStyle=none;html=1;exitX=1;exitY=0;exitDx=0;exitDy=0;entryX=0;entryY=1;entryDx=0;entryDy=0;fontFamily=Times New Roman;fontSize=36;endArrow=none;endFill=0;" parent="1" source="kCgAafltBW_wX_pZULMc-22" target="kCgAafltBW_wX_pZULMc-12" edge="1">
                    <mxGeometry relative="1" as="geometry"/>
                </mxCell>
                <mxCell id="kCgAafltBW_wX_pZULMc-35" value="1" style="edgeLabel;html=1;align=center;verticalAlign=middle;resizable=0;points=[];fontSize=36;fontFamily=Times New Roman;" parent="kCgAafltBW_wX_pZULMc-23" vertex="1" connectable="0">
                    <mxGeometry x="-0.473" y="-2" relative="1" as="geometry">
                        <mxPoint x="-6" y="-36" as="offset"/>
                    </mxGeometry>
                </mxCell>
                <mxCell id="kCgAafltBW_wX_pZULMc-25" style="edgeStyle=none;html=1;exitX=1;exitY=1;exitDx=0;exitDy=0;entryX=0;entryY=0;entryDx=0;entryDy=0;fontFamily=Times New Roman;fontSize=36;endArrow=none;endFill=0;" parent="1" source="kCgAafltBW_wX_pZULMc-22" target="kCgAafltBW_wX_pZULMc-24" edge="1">
                    <mxGeometry relative="1" as="geometry"/>
                </mxCell>
                <mxCell id="kCgAafltBW_wX_pZULMc-38" value="0" style="edgeLabel;html=1;align=center;verticalAlign=middle;resizable=0;points=[];fontSize=36;fontFamily=Times New Roman;" parent="kCgAafltBW_wX_pZULMc-25" vertex="1" connectable="0">
                    <mxGeometry x="0.5506" y="-3" relative="1" as="geometry">
                        <mxPoint x="5" y="-39" as="offset"/>
                    </mxGeometry>
                </mxCell>
                <mxCell id="kCgAafltBW_wX_pZULMc-22" value="&lt;font face=&quot;Times New Roman&quot; style=&quot;font-size: 36px;&quot;&gt;0.12&lt;/font&gt;" style="ellipse;whiteSpace=wrap;html=1;aspect=fixed;fillColor=none;strokeColor=none;" parent="1" vertex="1">
                    <mxGeometry x="280" y="400" width="80" height="80" as="geometry"/>
                </mxCell>
                <mxCell id="kCgAafltBW_wX_pZULMc-24" value="&lt;font face=&quot;Times New Roman&quot; style=&quot;font-size: 36px;&quot;&gt;g&lt;/font&gt;" style="ellipse;whiteSpace=wrap;html=1;aspect=fixed;" parent="1" vertex="1">
                    <mxGeometry x="400" y="520" width="80" height="80" as="geometry"/>
                </mxCell>
                <mxCell id="kCgAafltBW_wX_pZULMc-27" style="edgeStyle=none;html=1;exitX=1;exitY=0;exitDx=0;exitDy=0;entryX=0;entryY=1;entryDx=0;entryDy=0;fontFamily=Times New Roman;fontSize=36;endArrow=none;endFill=0;" parent="1" source="kCgAafltBW_wX_pZULMc-26" target="kCgAafltBW_wX_pZULMc-22" edge="1">
                    <mxGeometry relative="1" as="geometry"/>
                </mxCell>
                <mxCell id="kCgAafltBW_wX_pZULMc-37" value="1" style="edgeLabel;html=1;align=center;verticalAlign=middle;resizable=0;points=[];fontSize=36;fontFamily=Times New Roman;" parent="kCgAafltBW_wX_pZULMc-27" vertex="1" connectable="0">
                    <mxGeometry x="-0.5666" y="3" relative="1" as="geometry">
                        <mxPoint y="-35" as="offset"/>
                    </mxGeometry>
                </mxCell>
                <mxCell id="kCgAafltBW_wX_pZULMc-30" style="edgeStyle=none;html=1;exitX=0;exitY=1;exitDx=0;exitDy=0;entryX=1;entryY=0;entryDx=0;entryDy=0;fontFamily=Times New Roman;fontSize=36;endArrow=none;endFill=0;" parent="1" source="kCgAafltBW_wX_pZULMc-26" target="kCgAafltBW_wX_pZULMc-29" edge="1">
                    <mxGeometry relative="1" as="geometry"/>
                </mxCell>
                <mxCell id="kCgAafltBW_wX_pZULMc-39" value="1" style="edgeLabel;html=1;align=center;verticalAlign=middle;resizable=0;points=[];fontSize=36;fontFamily=Times New Roman;" parent="kCgAafltBW_wX_pZULMc-30" vertex="1" connectable="0">
                    <mxGeometry x="0.5821" y="-6" relative="1" as="geometry">
                        <mxPoint x="2" y="-34" as="offset"/>
                    </mxGeometry>
                </mxCell>
                <mxCell id="kCgAafltBW_wX_pZULMc-31" style="edgeStyle=none;html=1;exitX=1;exitY=1;exitDx=0;exitDy=0;entryX=0;entryY=0;entryDx=0;entryDy=0;fontFamily=Times New Roman;fontSize=36;endArrow=none;endFill=0;" parent="1" source="kCgAafltBW_wX_pZULMc-26" target="kCgAafltBW_wX_pZULMc-28" edge="1">
                    <mxGeometry relative="1" as="geometry"/>
                </mxCell>
                <mxCell id="kCgAafltBW_wX_pZULMc-40" value="0" style="edgeLabel;html=1;align=center;verticalAlign=middle;resizable=0;points=[];fontSize=36;fontFamily=Times New Roman;" parent="kCgAafltBW_wX_pZULMc-31" vertex="1" connectable="0">
                    <mxGeometry x="0.5104" y="1" relative="1" as="geometry">
                        <mxPoint x="3" y="-36" as="offset"/>
                    </mxGeometry>
                </mxCell>
                <mxCell id="kCgAafltBW_wX_pZULMc-26" value="&lt;font face=&quot;Times New Roman&quot; style=&quot;font-size: 36px;&quot;&gt;0.06&lt;/font&gt;" style="ellipse;whiteSpace=wrap;html=1;aspect=fixed;fillColor=none;strokeColor=none;" parent="1" vertex="1">
                    <mxGeometry x="160" y="520" width="80" height="80" as="geometry"/>
                </mxCell>
                <mxCell id="kCgAafltBW_wX_pZULMc-28" value="&lt;font face=&quot;Times New Roman&quot; style=&quot;font-size: 36px;&quot;&gt;d&lt;/font&gt;" style="ellipse;whiteSpace=wrap;html=1;aspect=fixed;" parent="1" vertex="1">
                    <mxGeometry x="280" y="640" width="80" height="80" as="geometry"/>
                </mxCell>
                <mxCell id="kCgAafltBW_wX_pZULMc-29" value="&lt;font face=&quot;Times New Roman&quot; style=&quot;font-size: 36px;&quot;&gt;e&lt;/font&gt;" style="ellipse;whiteSpace=wrap;html=1;aspect=fixed;" parent="1" vertex="1">
                    <mxGeometry x="40" y="640" width="80" height="80" as="geometry"/>
                </mxCell>
            </root>
        </mxGraphModel>
    </diagram>
    <diagram id="fg9hMBUlIdNQVuD2UoXt" name="第5章习题2">
        <mxGraphModel dx="459" dy="584" grid="1" gridSize="10" guides="1" tooltips="1" connect="1" arrows="1" fold="1" page="1" pageScale="1" pageWidth="827" pageHeight="1169" math="0" shadow="0">
            <root>
                <mxCell id="0"/>
                <mxCell id="1" parent="0"/>
                <mxCell id="e1wjnoUH-8o34KMHF-Yo-105" value="" style="rounded=0;whiteSpace=wrap;html=1;fillColor=#647687;fontColor=#ffffff;strokeColor=#314354;" parent="1" vertex="1">
                    <mxGeometry x="600" y="120" width="40" height="40" as="geometry"/>
                </mxCell>
                <mxCell id="e1wjnoUH-8o34KMHF-Yo-61" value="" style="rounded=0;whiteSpace=wrap;html=1;fillColor=#647687;fontColor=#ffffff;strokeColor=#314354;" parent="1" vertex="1">
                    <mxGeometry x="240" y="440" width="40" height="40" as="geometry"/>
                </mxCell>
                <mxCell id="e1wjnoUH-8o34KMHF-Yo-57" value="" style="rounded=0;whiteSpace=wrap;html=1;fillColor=#647687;fontColor=#ffffff;strokeColor=#314354;" parent="1" vertex="1">
                    <mxGeometry x="160" y="560" width="40" height="40" as="geometry"/>
                </mxCell>
                <mxCell id="e1wjnoUH-8o34KMHF-Yo-58" value="" style="rounded=0;whiteSpace=wrap;html=1;fillColor=#647687;fontColor=#ffffff;strokeColor=#314354;" parent="1" vertex="1">
                    <mxGeometry x="160" y="560" width="40" height="40" as="geometry"/>
                </mxCell>
                <mxCell id="e1wjnoUH-8o34KMHF-Yo-59" value="" style="rounded=0;whiteSpace=wrap;html=1;fillColor=#647687;fontColor=#ffffff;strokeColor=#314354;" parent="1" vertex="1">
                    <mxGeometry x="160" y="560" width="40" height="40" as="geometry"/>
                </mxCell>
                <mxCell id="e1wjnoUH-8o34KMHF-Yo-60" value="" style="rounded=0;whiteSpace=wrap;html=1;fillColor=#647687;fontColor=#ffffff;strokeColor=#314354;" parent="1" vertex="1">
                    <mxGeometry x="160" y="520" width="40" height="40" as="geometry"/>
                </mxCell>
                <mxCell id="e1wjnoUH-8o34KMHF-Yo-56" value="" style="rounded=0;whiteSpace=wrap;html=1;fillColor=#647687;fontColor=#ffffff;strokeColor=#314354;" parent="1" vertex="1">
                    <mxGeometry x="280" y="400" width="40" height="40" as="geometry"/>
                </mxCell>
                <mxCell id="e1wjnoUH-8o34KMHF-Yo-55" value="" style="rounded=0;whiteSpace=wrap;html=1;fillColor=#647687;fontColor=#ffffff;strokeColor=#314354;" parent="1" vertex="1">
                    <mxGeometry x="240" y="480" width="40" height="40" as="geometry"/>
                </mxCell>
                <mxCell id="FrnQ98GIJdtg7QqHGKeF-18" value="" style="rounded=0;whiteSpace=wrap;html=1;fillColor=#647687;fontColor=#ffffff;strokeColor=#314354;" parent="1" vertex="1">
                    <mxGeometry x="560" y="200" width="40" height="40" as="geometry"/>
                </mxCell>
                <mxCell id="FrnQ98GIJdtg7QqHGKeF-19" value="" style="rounded=0;whiteSpace=wrap;html=1;fillColor=#647687;fontColor=#ffffff;strokeColor=#314354;" parent="1" vertex="1">
                    <mxGeometry x="600" y="160" width="40" height="40" as="geometry"/>
                </mxCell>
                <mxCell id="FrnQ98GIJdtg7QqHGKeF-31" value="" style="rounded=0;whiteSpace=wrap;html=1;fillColor=#647687;fontColor=#ffffff;strokeColor=#314354;" parent="1" vertex="1">
                    <mxGeometry x="600" y="200" width="40" height="40" as="geometry"/>
                </mxCell>
                <mxCell id="FrnQ98GIJdtg7QqHGKeF-32" value="" style="rounded=0;whiteSpace=wrap;html=1;fillColor=#647687;fontColor=#ffffff;strokeColor=#314354;" parent="1" vertex="1">
                    <mxGeometry x="640" y="160" width="40" height="40" as="geometry"/>
                </mxCell>
                <mxCell id="FrnQ98GIJdtg7QqHGKeF-33" value="" style="rounded=0;whiteSpace=wrap;html=1;fillColor=#647687;fontColor=#ffffff;strokeColor=#314354;" parent="1" vertex="1">
                    <mxGeometry x="640" y="120" width="40" height="40" as="geometry"/>
                </mxCell>
                <mxCell id="FrnQ98GIJdtg7QqHGKeF-34" value="" style="rounded=0;whiteSpace=wrap;html=1;fillColor=#647687;fontColor=#ffffff;strokeColor=#314354;" parent="1" vertex="1">
                    <mxGeometry x="640" y="80" width="40" height="40" as="geometry"/>
                </mxCell>
                <mxCell id="FrnQ98GIJdtg7QqHGKeF-56" value="" style="rounded=0;whiteSpace=wrap;html=1;fillColor=#647687;fontColor=#ffffff;strokeColor=#314354;" parent="1" vertex="1">
                    <mxGeometry x="520" y="80" width="40" height="40" as="geometry"/>
                </mxCell>
                <mxCell id="FrnQ98GIJdtg7QqHGKeF-57" value="" style="rounded=0;whiteSpace=wrap;html=1;fillColor=#647687;fontColor=#ffffff;strokeColor=#314354;" parent="1" vertex="1">
                    <mxGeometry x="560" y="80" width="40" height="40" as="geometry"/>
                </mxCell>
                <mxCell id="FrnQ98GIJdtg7QqHGKeF-58" value="" style="rounded=0;whiteSpace=wrap;html=1;fillColor=#647687;fontColor=#ffffff;strokeColor=#314354;" parent="1" vertex="1">
                    <mxGeometry x="560" y="120" width="40" height="40" as="geometry"/>
                </mxCell>
                <mxCell id="FrnQ98GIJdtg7QqHGKeF-59" value="" style="rounded=0;whiteSpace=wrap;html=1;fillColor=#647687;fontColor=#ffffff;strokeColor=#314354;" parent="1" vertex="1">
                    <mxGeometry x="560" y="160" width="40" height="40" as="geometry"/>
                </mxCell>
                <mxCell id="FrnQ98GIJdtg7QqHGKeF-1" value="" style="rounded=0;whiteSpace=wrap;html=1;" parent="1" vertex="1">
                    <mxGeometry x="120" y="200" width="40" height="40" as="geometry"/>
                </mxCell>
                <mxCell id="FrnQ98GIJdtg7QqHGKeF-2" value="" style="rounded=0;whiteSpace=wrap;html=1;fillColor=#647687;fontColor=#ffffff;strokeColor=#314354;" parent="1" vertex="1">
                    <mxGeometry x="160" y="200" width="40" height="40" as="geometry"/>
                </mxCell>
                <mxCell id="FrnQ98GIJdtg7QqHGKeF-3" value="" style="rounded=0;whiteSpace=wrap;html=1;fillColor=#647687;fontColor=#ffffff;strokeColor=#314354;" parent="1" vertex="1">
                    <mxGeometry x="120" y="240" width="40" height="40" as="geometry"/>
                </mxCell>
                <mxCell id="FrnQ98GIJdtg7QqHGKeF-4" value="&lt;font style=&quot;font-size: 30px;&quot;&gt;+&lt;/font&gt;" style="rounded=0;whiteSpace=wrap;html=1;fillColor=#647687;fontColor=#ffffff;strokeColor=#314354;" parent="1" vertex="1">
                    <mxGeometry x="160" y="240" width="40" height="40" as="geometry"/>
                </mxCell>
                <mxCell id="FrnQ98GIJdtg7QqHGKeF-5" value="结构元" style="text;html=1;align=center;verticalAlign=middle;resizable=0;points=[];autosize=1;strokeColor=none;fillColor=none;fontSize=30;" parent="1" vertex="1">
                    <mxGeometry x="100" y="295" width="110" height="50" as="geometry"/>
                </mxCell>
                <mxCell id="FrnQ98GIJdtg7QqHGKeF-12" value="" style="rounded=0;whiteSpace=wrap;html=1;fillColor=#647687;fontColor=#ffffff;strokeColor=#314354;" parent="1" vertex="1">
                    <mxGeometry x="560" y="120" width="40" height="40" as="geometry"/>
                </mxCell>
                <mxCell id="FrnQ98GIJdtg7QqHGKeF-14" value="" style="rounded=0;whiteSpace=wrap;html=1;fillColor=#647687;fontColor=#ffffff;strokeColor=#314354;" parent="1" vertex="1">
                    <mxGeometry x="560" y="160" width="40" height="40" as="geometry"/>
                </mxCell>
                <mxCell id="FrnQ98GIJdtg7QqHGKeF-15" value="" style="rounded=0;whiteSpace=wrap;html=1;" parent="1" vertex="1">
                    <mxGeometry x="520" y="200" width="40" height="40" as="geometry"/>
                </mxCell>
                <mxCell id="FrnQ98GIJdtg7QqHGKeF-20" value="图像" style="text;html=1;align=center;verticalAlign=middle;resizable=0;points=[];autosize=1;strokeColor=none;fillColor=none;fontSize=30;" parent="1" vertex="1">
                    <mxGeometry x="560" y="295" width="80" height="50" as="geometry"/>
                </mxCell>
                <mxCell id="FrnQ98GIJdtg7QqHGKeF-23" value="" style="rounded=0;whiteSpace=wrap;html=1;" parent="1" vertex="1">
                    <mxGeometry x="520" y="240" width="40" height="40" as="geometry"/>
                </mxCell>
                <mxCell id="FrnQ98GIJdtg7QqHGKeF-25" value="" style="rounded=0;whiteSpace=wrap;html=1;" parent="1" vertex="1">
                    <mxGeometry x="560" y="240" width="40" height="40" as="geometry"/>
                </mxCell>
                <mxCell id="FrnQ98GIJdtg7QqHGKeF-26" value="" style="rounded=0;whiteSpace=wrap;html=1;" parent="1" vertex="1">
                    <mxGeometry x="600" y="240" width="40" height="40" as="geometry"/>
                </mxCell>
                <mxCell id="FrnQ98GIJdtg7QqHGKeF-27" value="" style="rounded=0;whiteSpace=wrap;html=1;" parent="1" vertex="1">
                    <mxGeometry x="640" y="240" width="40" height="40" as="geometry"/>
                </mxCell>
                <mxCell id="FrnQ98GIJdtg7QqHGKeF-28" value="" style="rounded=0;whiteSpace=wrap;html=1;" parent="1" vertex="1">
                    <mxGeometry x="680" y="240" width="40" height="40" as="geometry"/>
                </mxCell>
                <mxCell id="FrnQ98GIJdtg7QqHGKeF-29" value="" style="rounded=0;whiteSpace=wrap;html=1;" parent="1" vertex="1">
                    <mxGeometry x="640" y="200" width="40" height="40" as="geometry"/>
                </mxCell>
                <mxCell id="FrnQ98GIJdtg7QqHGKeF-30" value="" style="rounded=0;whiteSpace=wrap;html=1;" parent="1" vertex="1">
                    <mxGeometry x="680" y="200" width="40" height="40" as="geometry"/>
                </mxCell>
                <mxCell id="FrnQ98GIJdtg7QqHGKeF-35" value="" style="rounded=0;whiteSpace=wrap;html=1;" parent="1" vertex="1">
                    <mxGeometry x="680" y="160" width="40" height="40" as="geometry"/>
                </mxCell>
                <mxCell id="FrnQ98GIJdtg7QqHGKeF-36" value="" style="rounded=0;whiteSpace=wrap;html=1;" parent="1" vertex="1">
                    <mxGeometry x="680" y="120" width="40" height="40" as="geometry"/>
                </mxCell>
                <mxCell id="FrnQ98GIJdtg7QqHGKeF-37" value="" style="rounded=0;whiteSpace=wrap;html=1;" parent="1" vertex="1">
                    <mxGeometry x="680" y="80" width="40" height="40" as="geometry"/>
                </mxCell>
                <mxCell id="FrnQ98GIJdtg7QqHGKeF-49" value="" style="rounded=0;whiteSpace=wrap;html=1;fillColor=#647687;fontColor=#ffffff;strokeColor=#314354;" parent="1" vertex="1">
                    <mxGeometry x="520" y="80" width="40" height="40" as="geometry"/>
                </mxCell>
                <mxCell id="FrnQ98GIJdtg7QqHGKeF-50" value="" style="rounded=0;whiteSpace=wrap;html=1;fillColor=#647687;fontColor=#ffffff;strokeColor=#314354;" parent="1" vertex="1">
                    <mxGeometry x="520" y="120" width="40" height="40" as="geometry"/>
                </mxCell>
                <mxCell id="FrnQ98GIJdtg7QqHGKeF-51" value="" style="rounded=0;whiteSpace=wrap;html=1;fillColor=#647687;fontColor=#ffffff;strokeColor=#314354;" parent="1" vertex="1">
                    <mxGeometry x="560" y="80" width="40" height="40" as="geometry"/>
                </mxCell>
                <mxCell id="FrnQ98GIJdtg7QqHGKeF-54" value="" style="rounded=0;whiteSpace=wrap;html=1;fillColor=#647687;fontColor=#ffffff;strokeColor=#314354;" parent="1" vertex="1">
                    <mxGeometry x="520" y="80" width="40" height="40" as="geometry"/>
                </mxCell>
                <mxCell id="FrnQ98GIJdtg7QqHGKeF-55" value="" style="rounded=0;whiteSpace=wrap;html=1;fillColor=#647687;fontColor=#ffffff;strokeColor=#314354;" parent="1" vertex="1">
                    <mxGeometry x="560" y="80" width="40" height="40" as="geometry"/>
                </mxCell>
                <mxCell id="FrnQ98GIJdtg7QqHGKeF-11" value="" style="rounded=0;whiteSpace=wrap;html=1;" parent="1" vertex="1">
                    <mxGeometry x="520" y="160" width="40" height="40" as="geometry"/>
                </mxCell>
                <mxCell id="FrnQ98GIJdtg7QqHGKeF-21" value="" style="rounded=0;whiteSpace=wrap;html=1;" parent="1" vertex="1">
                    <mxGeometry x="480" y="240" width="40" height="40" as="geometry"/>
                </mxCell>
                <mxCell id="FrnQ98GIJdtg7QqHGKeF-45" value="" style="rounded=0;whiteSpace=wrap;html=1;" parent="1" vertex="1">
                    <mxGeometry x="480" y="200" width="40" height="40" as="geometry"/>
                </mxCell>
                <mxCell id="FrnQ98GIJdtg7QqHGKeF-46" value="" style="rounded=0;whiteSpace=wrap;html=1;" parent="1" vertex="1">
                    <mxGeometry x="480" y="160" width="40" height="40" as="geometry"/>
                </mxCell>
                <mxCell id="FrnQ98GIJdtg7QqHGKeF-47" value="" style="rounded=0;whiteSpace=wrap;html=1;" parent="1" vertex="1">
                    <mxGeometry x="480" y="120" width="40" height="40" as="geometry"/>
                </mxCell>
                <mxCell id="FrnQ98GIJdtg7QqHGKeF-48" value="" style="rounded=0;whiteSpace=wrap;html=1;" parent="1" vertex="1">
                    <mxGeometry x="480" y="80" width="40" height="40" as="geometry"/>
                </mxCell>
                <mxCell id="FrnQ98GIJdtg7QqHGKeF-40" value="" style="rounded=0;whiteSpace=wrap;html=1;" parent="1" vertex="1">
                    <mxGeometry x="520" y="40" width="40" height="40" as="geometry"/>
                </mxCell>
                <mxCell id="FrnQ98GIJdtg7QqHGKeF-41" value="" style="rounded=0;whiteSpace=wrap;html=1;" parent="1" vertex="1">
                    <mxGeometry x="560" y="40" width="40" height="40" as="geometry"/>
                </mxCell>
                <mxCell id="FrnQ98GIJdtg7QqHGKeF-42" value="" style="rounded=0;whiteSpace=wrap;html=1;" parent="1" vertex="1">
                    <mxGeometry x="600" y="40" width="40" height="40" as="geometry"/>
                </mxCell>
                <mxCell id="FrnQ98GIJdtg7QqHGKeF-43" value="" style="rounded=0;whiteSpace=wrap;html=1;" parent="1" vertex="1">
                    <mxGeometry x="640" y="40" width="40" height="40" as="geometry"/>
                </mxCell>
                <mxCell id="FrnQ98GIJdtg7QqHGKeF-44" value="" style="rounded=0;whiteSpace=wrap;html=1;" parent="1" vertex="1">
                    <mxGeometry x="680" y="40" width="40" height="40" as="geometry"/>
                </mxCell>
                <mxCell id="FrnQ98GIJdtg7QqHGKeF-39" value="" style="rounded=0;whiteSpace=wrap;html=1;" parent="1" vertex="1">
                    <mxGeometry x="480" y="40" width="40" height="40" as="geometry"/>
                </mxCell>
                <mxCell id="FrnQ98GIJdtg7QqHGKeF-53" value="" style="rounded=0;whiteSpace=wrap;html=1;" parent="1" vertex="1">
                    <mxGeometry x="600" y="80" width="40" height="40" as="geometry"/>
                </mxCell>
                <mxCell id="e1wjnoUH-8o34KMHF-Yo-1" value="" style="rounded=0;whiteSpace=wrap;html=1;" parent="1" vertex="1">
                    <mxGeometry x="360" y="240" width="40" height="40" as="geometry"/>
                </mxCell>
                <mxCell id="e1wjnoUH-8o34KMHF-Yo-2" value="" style="rounded=0;whiteSpace=wrap;html=1;fillColor=#647687;fontColor=#ffffff;strokeColor=#314354;" parent="1" vertex="1">
                    <mxGeometry x="360" y="200" width="40" height="40" as="geometry"/>
                </mxCell>
                <mxCell id="e1wjnoUH-8o34KMHF-Yo-3" value="" style="rounded=0;whiteSpace=wrap;html=1;fillColor=#647687;fontColor=#ffffff;strokeColor=#314354;" parent="1" vertex="1">
                    <mxGeometry x="320" y="240" width="40" height="40" as="geometry"/>
                </mxCell>
                <mxCell id="e1wjnoUH-8o34KMHF-Yo-4" value="&lt;font style=&quot;font-size: 30px;&quot;&gt;+&lt;/font&gt;" style="rounded=0;whiteSpace=wrap;html=1;fillColor=#647687;fontColor=#ffffff;strokeColor=#314354;" parent="1" vertex="1">
                    <mxGeometry x="320" y="200" width="40" height="40" as="geometry"/>
                </mxCell>
                <mxCell id="e1wjnoUH-8o34KMHF-Yo-5" value="结构元的映射" style="text;html=1;align=center;verticalAlign=middle;resizable=0;points=[];autosize=1;strokeColor=none;fillColor=none;fontSize=30;" parent="1" vertex="1">
                    <mxGeometry x="260" y="295" width="200" height="50" as="geometry"/>
                </mxCell>
                <mxCell id="e1wjnoUH-8o34KMHF-Yo-6" value="" style="rounded=0;whiteSpace=wrap;html=1;fillColor=#647687;fontColor=#ffffff;strokeColor=#314354;" parent="1" vertex="1">
                    <mxGeometry x="200" y="560" width="40" height="40" as="geometry"/>
                </mxCell>
                <mxCell id="e1wjnoUH-8o34KMHF-Yo-7" value="" style="rounded=0;whiteSpace=wrap;html=1;fillColor=#647687;fontColor=#ffffff;strokeColor=#314354;" parent="1" vertex="1">
                    <mxGeometry x="240" y="520" width="40" height="40" as="geometry"/>
                </mxCell>
                <mxCell id="e1wjnoUH-8o34KMHF-Yo-8" value="" style="rounded=0;whiteSpace=wrap;html=1;fillColor=#647687;fontColor=#ffffff;strokeColor=#314354;" parent="1" vertex="1">
                    <mxGeometry x="240" y="560" width="40" height="40" as="geometry"/>
                </mxCell>
                <mxCell id="e1wjnoUH-8o34KMHF-Yo-9" value="" style="rounded=0;whiteSpace=wrap;html=1;fillColor=#647687;fontColor=#ffffff;strokeColor=#314354;" parent="1" vertex="1">
                    <mxGeometry x="280" y="520" width="40" height="40" as="geometry"/>
                </mxCell>
                <mxCell id="e1wjnoUH-8o34KMHF-Yo-10" value="" style="rounded=0;whiteSpace=wrap;html=1;fillColor=#647687;fontColor=#ffffff;strokeColor=#314354;" parent="1" vertex="1">
                    <mxGeometry x="280" y="480" width="40" height="40" as="geometry"/>
                </mxCell>
                <mxCell id="e1wjnoUH-8o34KMHF-Yo-11" value="" style="rounded=0;whiteSpace=wrap;html=1;fillColor=#647687;fontColor=#ffffff;strokeColor=#314354;" parent="1" vertex="1">
                    <mxGeometry x="280" y="440" width="40" height="40" as="geometry"/>
                </mxCell>
                <mxCell id="e1wjnoUH-8o34KMHF-Yo-12" value="" style="rounded=0;whiteSpace=wrap;html=1;fillColor=#647687;fontColor=#ffffff;strokeColor=#314354;" parent="1" vertex="1">
                    <mxGeometry x="160" y="440" width="40" height="40" as="geometry"/>
                </mxCell>
                <mxCell id="e1wjnoUH-8o34KMHF-Yo-13" value="" style="rounded=0;whiteSpace=wrap;html=1;fillColor=#647687;fontColor=#ffffff;strokeColor=#314354;" parent="1" vertex="1">
                    <mxGeometry x="200" y="440" width="40" height="40" as="geometry"/>
                </mxCell>
                <mxCell id="e1wjnoUH-8o34KMHF-Yo-14" value="" style="rounded=0;whiteSpace=wrap;html=1;fillColor=#647687;fontColor=#ffffff;strokeColor=#314354;" parent="1" vertex="1">
                    <mxGeometry x="200" y="480" width="40" height="40" as="geometry"/>
                </mxCell>
                <mxCell id="e1wjnoUH-8o34KMHF-Yo-15" value="" style="rounded=0;whiteSpace=wrap;html=1;fillColor=#647687;fontColor=#ffffff;strokeColor=#314354;" parent="1" vertex="1">
                    <mxGeometry x="200" y="520" width="40" height="40" as="geometry"/>
                </mxCell>
                <mxCell id="e1wjnoUH-8o34KMHF-Yo-16" value="" style="rounded=0;whiteSpace=wrap;html=1;fillColor=#647687;fontColor=#ffffff;strokeColor=#314354;" parent="1" vertex="1">
                    <mxGeometry x="200" y="480" width="40" height="40" as="geometry"/>
                </mxCell>
                <mxCell id="e1wjnoUH-8o34KMHF-Yo-17" value="" style="rounded=0;whiteSpace=wrap;html=1;fillColor=#647687;fontColor=#ffffff;strokeColor=#314354;" parent="1" vertex="1">
                    <mxGeometry x="200" y="520" width="40" height="40" as="geometry"/>
                </mxCell>
                <mxCell id="e1wjnoUH-8o34KMHF-Yo-20" value="膨胀结果" style="text;html=1;align=center;verticalAlign=middle;resizable=0;points=[];autosize=1;strokeColor=none;fillColor=none;fontSize=30;" parent="1" vertex="1">
                    <mxGeometry x="170" y="655" width="140" height="50" as="geometry"/>
                </mxCell>
                <mxCell id="e1wjnoUH-8o34KMHF-Yo-21" value="" style="rounded=0;whiteSpace=wrap;html=1;" parent="1" vertex="1">
                    <mxGeometry x="160" y="600" width="40" height="40" as="geometry"/>
                </mxCell>
                <mxCell id="e1wjnoUH-8o34KMHF-Yo-22" value="" style="rounded=0;whiteSpace=wrap;html=1;" parent="1" vertex="1">
                    <mxGeometry x="200" y="600" width="40" height="40" as="geometry"/>
                </mxCell>
                <mxCell id="e1wjnoUH-8o34KMHF-Yo-23" value="" style="rounded=0;whiteSpace=wrap;html=1;" parent="1" vertex="1">
                    <mxGeometry x="240" y="600" width="40" height="40" as="geometry"/>
                </mxCell>
                <mxCell id="e1wjnoUH-8o34KMHF-Yo-24" value="" style="rounded=0;whiteSpace=wrap;html=1;" parent="1" vertex="1">
                    <mxGeometry x="280" y="600" width="40" height="40" as="geometry"/>
                </mxCell>
                <mxCell id="e1wjnoUH-8o34KMHF-Yo-25" value="" style="rounded=0;whiteSpace=wrap;html=1;" parent="1" vertex="1">
                    <mxGeometry x="320" y="600" width="40" height="40" as="geometry"/>
                </mxCell>
                <mxCell id="e1wjnoUH-8o34KMHF-Yo-26" value="" style="rounded=0;whiteSpace=wrap;html=1;" parent="1" vertex="1">
                    <mxGeometry x="280" y="560" width="40" height="40" as="geometry"/>
                </mxCell>
                <mxCell id="e1wjnoUH-8o34KMHF-Yo-27" value="" style="rounded=0;whiteSpace=wrap;html=1;" parent="1" vertex="1">
                    <mxGeometry x="320" y="560" width="40" height="40" as="geometry"/>
                </mxCell>
                <mxCell id="e1wjnoUH-8o34KMHF-Yo-28" value="" style="rounded=0;whiteSpace=wrap;html=1;" parent="1" vertex="1">
                    <mxGeometry x="320" y="520" width="40" height="40" as="geometry"/>
                </mxCell>
                <mxCell id="e1wjnoUH-8o34KMHF-Yo-29" value="" style="rounded=0;whiteSpace=wrap;html=1;" parent="1" vertex="1">
                    <mxGeometry x="320" y="480" width="40" height="40" as="geometry"/>
                </mxCell>
                <mxCell id="e1wjnoUH-8o34KMHF-Yo-30" value="" style="rounded=0;whiteSpace=wrap;html=1;" parent="1" vertex="1">
                    <mxGeometry x="320" y="440" width="40" height="40" as="geometry"/>
                </mxCell>
                <mxCell id="e1wjnoUH-8o34KMHF-Yo-31" value="" style="rounded=0;whiteSpace=wrap;html=1;fillColor=#647687;fontColor=#ffffff;strokeColor=#314354;" parent="1" vertex="1">
                    <mxGeometry x="160" y="440" width="40" height="40" as="geometry"/>
                </mxCell>
                <mxCell id="e1wjnoUH-8o34KMHF-Yo-32" value="" style="rounded=0;whiteSpace=wrap;html=1;fillColor=#647687;fontColor=#ffffff;strokeColor=#314354;" parent="1" vertex="1">
                    <mxGeometry x="160" y="480" width="40" height="40" as="geometry"/>
                </mxCell>
                <mxCell id="e1wjnoUH-8o34KMHF-Yo-33" value="" style="rounded=0;whiteSpace=wrap;html=1;fillColor=#647687;fontColor=#ffffff;strokeColor=#314354;" parent="1" vertex="1">
                    <mxGeometry x="200" y="440" width="40" height="40" as="geometry"/>
                </mxCell>
                <mxCell id="e1wjnoUH-8o34KMHF-Yo-34" value="" style="rounded=0;whiteSpace=wrap;html=1;fillColor=#647687;fontColor=#ffffff;strokeColor=#314354;" parent="1" vertex="1">
                    <mxGeometry x="160" y="440" width="40" height="40" as="geometry"/>
                </mxCell>
                <mxCell id="e1wjnoUH-8o34KMHF-Yo-35" value="" style="rounded=0;whiteSpace=wrap;html=1;fillColor=#647687;fontColor=#ffffff;strokeColor=#314354;" parent="1" vertex="1">
                    <mxGeometry x="200" y="440" width="40" height="40" as="geometry"/>
                </mxCell>
                <mxCell id="e1wjnoUH-8o34KMHF-Yo-37" value="" style="rounded=0;whiteSpace=wrap;html=1;" parent="1" vertex="1">
                    <mxGeometry x="120" y="600" width="40" height="40" as="geometry"/>
                </mxCell>
                <mxCell id="e1wjnoUH-8o34KMHF-Yo-38" value="" style="rounded=0;whiteSpace=wrap;html=1;" parent="1" vertex="1">
                    <mxGeometry x="120" y="560" width="40" height="40" as="geometry"/>
                </mxCell>
                <mxCell id="e1wjnoUH-8o34KMHF-Yo-39" value="" style="rounded=0;whiteSpace=wrap;html=1;" parent="1" vertex="1">
                    <mxGeometry x="120" y="520" width="40" height="40" as="geometry"/>
                </mxCell>
                <mxCell id="e1wjnoUH-8o34KMHF-Yo-46" value="" style="rounded=0;whiteSpace=wrap;html=1;" parent="1" vertex="1">
                    <mxGeometry x="320" y="400" width="40" height="40" as="geometry"/>
                </mxCell>
                <mxCell id="e1wjnoUH-8o34KMHF-Yo-49" value="" style="rounded=0;whiteSpace=wrap;html=1;fillColor=#647687;fontColor=#ffffff;strokeColor=#314354;" parent="1" vertex="1">
                    <mxGeometry x="120" y="440" width="40" height="40" as="geometry"/>
                </mxCell>
                <mxCell id="e1wjnoUH-8o34KMHF-Yo-50" value="" style="rounded=0;whiteSpace=wrap;html=1;fillColor=#647687;fontColor=#ffffff;strokeColor=#314354;" parent="1" vertex="1">
                    <mxGeometry x="120" y="440" width="40" height="40" as="geometry"/>
                </mxCell>
                <mxCell id="e1wjnoUH-8o34KMHF-Yo-51" value="" style="rounded=0;whiteSpace=wrap;html=1;fillColor=#647687;fontColor=#ffffff;strokeColor=#314354;" parent="1" vertex="1">
                    <mxGeometry x="120" y="480" width="40" height="40" as="geometry"/>
                </mxCell>
                <mxCell id="e1wjnoUH-8o34KMHF-Yo-52" value="" style="rounded=0;whiteSpace=wrap;html=1;fillColor=#647687;fontColor=#ffffff;strokeColor=#314354;" parent="1" vertex="1">
                    <mxGeometry x="120" y="440" width="40" height="40" as="geometry"/>
                </mxCell>
                <mxCell id="e1wjnoUH-8o34KMHF-Yo-53" value="" style="rounded=0;whiteSpace=wrap;html=1;fillColor=#647687;fontColor=#ffffff;strokeColor=#314354;" parent="1" vertex="1">
                    <mxGeometry x="160" y="400" width="40" height="40" as="geometry"/>
                </mxCell>
                <mxCell id="e1wjnoUH-8o34KMHF-Yo-54" value="" style="rounded=0;whiteSpace=wrap;html=1;fillColor=#647687;fontColor=#ffffff;strokeColor=#314354;" parent="1" vertex="1">
                    <mxGeometry x="200" y="400" width="40" height="40" as="geometry"/>
                </mxCell>
                <mxCell id="e1wjnoUH-8o34KMHF-Yo-47" value="" style="rounded=0;whiteSpace=wrap;html=1;" parent="1" vertex="1">
                    <mxGeometry x="120" y="400" width="40" height="40" as="geometry"/>
                </mxCell>
                <mxCell id="e1wjnoUH-8o34KMHF-Yo-44" value="" style="rounded=0;whiteSpace=wrap;html=1;" parent="1" vertex="1">
                    <mxGeometry x="240" y="400" width="40" height="40" as="geometry"/>
                </mxCell>
                <mxCell id="e1wjnoUH-8o34KMHF-Yo-63" value="" style="rounded=0;whiteSpace=wrap;html=1;fillColor=#647687;fontColor=#ffffff;strokeColor=#314354;" parent="1" vertex="1">
                    <mxGeometry x="600" y="520" width="40" height="40" as="geometry"/>
                </mxCell>
                <mxCell id="e1wjnoUH-8o34KMHF-Yo-64" value="" style="rounded=0;whiteSpace=wrap;html=1;fillColor=#647687;fontColor=#ffffff;strokeColor=#314354;" parent="1" vertex="1">
                    <mxGeometry x="600" y="560" width="40" height="40" as="geometry"/>
                </mxCell>
                <mxCell id="e1wjnoUH-8o34KMHF-Yo-65" value="" style="rounded=0;whiteSpace=wrap;html=1;fillColor=#647687;fontColor=#ffffff;strokeColor=#314354;" parent="1" vertex="1">
                    <mxGeometry x="640" y="520" width="40" height="40" as="geometry"/>
                </mxCell>
                <mxCell id="e1wjnoUH-8o34KMHF-Yo-66" value="" style="rounded=0;whiteSpace=wrap;html=1;fillColor=#647687;fontColor=#ffffff;strokeColor=#314354;" parent="1" vertex="1">
                    <mxGeometry x="640" y="480" width="40" height="40" as="geometry"/>
                </mxCell>
                <mxCell id="e1wjnoUH-8o34KMHF-Yo-70" value="" style="rounded=0;whiteSpace=wrap;html=1;fillColor=#647687;fontColor=#ffffff;strokeColor=#314354;" parent="1" vertex="1">
                    <mxGeometry x="560" y="480" width="40" height="40" as="geometry"/>
                </mxCell>
                <mxCell id="e1wjnoUH-8o34KMHF-Yo-72" value="" style="rounded=0;whiteSpace=wrap;html=1;fillColor=#647687;fontColor=#ffffff;strokeColor=#314354;" parent="1" vertex="1">
                    <mxGeometry x="560" y="480" width="40" height="40" as="geometry"/>
                </mxCell>
                <mxCell id="e1wjnoUH-8o34KMHF-Yo-74" value="" style="rounded=0;whiteSpace=wrap;html=1;" parent="1" vertex="1">
                    <mxGeometry x="520" y="560" width="40" height="40" as="geometry"/>
                </mxCell>
                <mxCell id="e1wjnoUH-8o34KMHF-Yo-75" value="" style="rounded=0;whiteSpace=wrap;html=1;" parent="1" vertex="1">
                    <mxGeometry x="600" y="480" width="40" height="40" as="geometry"/>
                </mxCell>
                <mxCell id="e1wjnoUH-8o34KMHF-Yo-76" value="腐蚀结果" style="text;html=1;align=center;verticalAlign=middle;resizable=0;points=[];autosize=1;strokeColor=none;fillColor=none;fontSize=30;" parent="1" vertex="1">
                    <mxGeometry x="530" y="655" width="140" height="50" as="geometry"/>
                </mxCell>
                <mxCell id="e1wjnoUH-8o34KMHF-Yo-77" value="" style="rounded=0;whiteSpace=wrap;html=1;" parent="1" vertex="1">
                    <mxGeometry x="520" y="600" width="40" height="40" as="geometry"/>
                </mxCell>
                <mxCell id="e1wjnoUH-8o34KMHF-Yo-78" value="" style="rounded=0;whiteSpace=wrap;html=1;" parent="1" vertex="1">
                    <mxGeometry x="560" y="600" width="40" height="40" as="geometry"/>
                </mxCell>
                <mxCell id="e1wjnoUH-8o34KMHF-Yo-79" value="" style="rounded=0;whiteSpace=wrap;html=1;" parent="1" vertex="1">
                    <mxGeometry x="600" y="600" width="40" height="40" as="geometry"/>
                </mxCell>
                <mxCell id="e1wjnoUH-8o34KMHF-Yo-80" value="" style="rounded=0;whiteSpace=wrap;html=1;" parent="1" vertex="1">
                    <mxGeometry x="640" y="600" width="40" height="40" as="geometry"/>
                </mxCell>
                <mxCell id="e1wjnoUH-8o34KMHF-Yo-81" value="" style="rounded=0;whiteSpace=wrap;html=1;" parent="1" vertex="1">
                    <mxGeometry x="680" y="600" width="40" height="40" as="geometry"/>
                </mxCell>
                <mxCell id="e1wjnoUH-8o34KMHF-Yo-82" value="" style="rounded=0;whiteSpace=wrap;html=1;" parent="1" vertex="1">
                    <mxGeometry x="640" y="560" width="40" height="40" as="geometry"/>
                </mxCell>
                <mxCell id="e1wjnoUH-8o34KMHF-Yo-83" value="" style="rounded=0;whiteSpace=wrap;html=1;" parent="1" vertex="1">
                    <mxGeometry x="680" y="560" width="40" height="40" as="geometry"/>
                </mxCell>
                <mxCell id="e1wjnoUH-8o34KMHF-Yo-84" value="" style="rounded=0;whiteSpace=wrap;html=1;" parent="1" vertex="1">
                    <mxGeometry x="680" y="520" width="40" height="40" as="geometry"/>
                </mxCell>
                <mxCell id="e1wjnoUH-8o34KMHF-Yo-85" value="" style="rounded=0;whiteSpace=wrap;html=1;" parent="1" vertex="1">
                    <mxGeometry x="680" y="480" width="40" height="40" as="geometry"/>
                </mxCell>
                <mxCell id="e1wjnoUH-8o34KMHF-Yo-86" value="" style="rounded=0;whiteSpace=wrap;html=1;" parent="1" vertex="1">
                    <mxGeometry x="680" y="440" width="40" height="40" as="geometry"/>
                </mxCell>
                <mxCell id="e1wjnoUH-8o34KMHF-Yo-92" value="" style="rounded=0;whiteSpace=wrap;html=1;" parent="1" vertex="1">
                    <mxGeometry x="520" y="520" width="40" height="40" as="geometry"/>
                </mxCell>
                <mxCell id="e1wjnoUH-8o34KMHF-Yo-93" value="" style="rounded=0;whiteSpace=wrap;html=1;" parent="1" vertex="1">
                    <mxGeometry x="480" y="600" width="40" height="40" as="geometry"/>
                </mxCell>
                <mxCell id="e1wjnoUH-8o34KMHF-Yo-94" value="" style="rounded=0;whiteSpace=wrap;html=1;" parent="1" vertex="1">
                    <mxGeometry x="480" y="560" width="40" height="40" as="geometry"/>
                </mxCell>
                <mxCell id="e1wjnoUH-8o34KMHF-Yo-95" value="" style="rounded=0;whiteSpace=wrap;html=1;" parent="1" vertex="1">
                    <mxGeometry x="480" y="520" width="40" height="40" as="geometry"/>
                </mxCell>
                <mxCell id="e1wjnoUH-8o34KMHF-Yo-96" value="" style="rounded=0;whiteSpace=wrap;html=1;" parent="1" vertex="1">
                    <mxGeometry x="480" y="480" width="40" height="40" as="geometry"/>
                </mxCell>
                <mxCell id="e1wjnoUH-8o34KMHF-Yo-97" value="" style="rounded=0;whiteSpace=wrap;html=1;" parent="1" vertex="1">
                    <mxGeometry x="480" y="440" width="40" height="40" as="geometry"/>
                </mxCell>
                <mxCell id="e1wjnoUH-8o34KMHF-Yo-98" value="" style="rounded=0;whiteSpace=wrap;html=1;" parent="1" vertex="1">
                    <mxGeometry x="520" y="400" width="40" height="40" as="geometry"/>
                </mxCell>
                <mxCell id="e1wjnoUH-8o34KMHF-Yo-99" value="" style="rounded=0;whiteSpace=wrap;html=1;" parent="1" vertex="1">
                    <mxGeometry x="560" y="400" width="40" height="40" as="geometry"/>
                </mxCell>
                <mxCell id="e1wjnoUH-8o34KMHF-Yo-100" value="" style="rounded=0;whiteSpace=wrap;html=1;" parent="1" vertex="1">
                    <mxGeometry x="600" y="400" width="40" height="40" as="geometry"/>
                </mxCell>
                <mxCell id="e1wjnoUH-8o34KMHF-Yo-101" value="" style="rounded=0;whiteSpace=wrap;html=1;" parent="1" vertex="1">
                    <mxGeometry x="640" y="400" width="40" height="40" as="geometry"/>
                </mxCell>
                <mxCell id="e1wjnoUH-8o34KMHF-Yo-102" value="" style="rounded=0;whiteSpace=wrap;html=1;" parent="1" vertex="1">
                    <mxGeometry x="680" y="400" width="40" height="40" as="geometry"/>
                </mxCell>
                <mxCell id="e1wjnoUH-8o34KMHF-Yo-103" value="" style="rounded=0;whiteSpace=wrap;html=1;" parent="1" vertex="1">
                    <mxGeometry x="480" y="400" width="40" height="40" as="geometry"/>
                </mxCell>
                <mxCell id="e1wjnoUH-8o34KMHF-Yo-106" value="" style="rounded=0;whiteSpace=wrap;html=1;" parent="1" vertex="1">
                    <mxGeometry x="520" y="440" width="40" height="40" as="geometry"/>
                </mxCell>
                <mxCell id="e1wjnoUH-8o34KMHF-Yo-107" value="" style="rounded=0;whiteSpace=wrap;html=1;" parent="1" vertex="1">
                    <mxGeometry x="560" y="440" width="40" height="40" as="geometry"/>
                </mxCell>
                <mxCell id="e1wjnoUH-8o34KMHF-Yo-108" value="" style="rounded=0;whiteSpace=wrap;html=1;" parent="1" vertex="1">
                    <mxGeometry x="600" y="440" width="40" height="40" as="geometry"/>
                </mxCell>
                <mxCell id="e1wjnoUH-8o34KMHF-Yo-109" value="" style="rounded=0;whiteSpace=wrap;html=1;" parent="1" vertex="1">
                    <mxGeometry x="640" y="440" width="40" height="40" as="geometry"/>
                </mxCell>
                <mxCell id="e1wjnoUH-8o34KMHF-Yo-110" value="" style="rounded=0;whiteSpace=wrap;html=1;" parent="1" vertex="1">
                    <mxGeometry x="520" y="480" width="40" height="40" as="geometry"/>
                </mxCell>
                <mxCell id="e1wjnoUH-8o34KMHF-Yo-111" value="" style="rounded=0;whiteSpace=wrap;html=1;" parent="1" vertex="1">
                    <mxGeometry x="560" y="560" width="40" height="40" as="geometry"/>
                </mxCell>
                <mxCell id="e1wjnoUH-8o34KMHF-Yo-112" value="" style="rounded=0;whiteSpace=wrap;html=1;" parent="1" vertex="1">
                    <mxGeometry x="560" y="520" width="40" height="40" as="geometry"/>
                </mxCell>
            </root>
        </mxGraphModel>
    </diagram>
    <diagram id="W5RpXY4DqOG5FGzB8Nn2" name="第5章习题3">
        <mxGraphModel dx="459" dy="584" grid="1" gridSize="10" guides="1" tooltips="1" connect="1" arrows="1" fold="1" page="1" pageScale="1" pageWidth="827" pageHeight="1169" math="0" shadow="0">
            <root>
                <mxCell id="0"/>
                <mxCell id="1" parent="0"/>
                <mxCell id="F1PyZxMeSDWPHxhF79l0-1" value="" style="rounded=0;whiteSpace=wrap;html=1;" parent="1" vertex="1">
                    <mxGeometry x="120" y="200" width="40" height="40" as="geometry"/>
                </mxCell>
                <mxCell id="F1PyZxMeSDWPHxhF79l0-2" value="" style="rounded=0;whiteSpace=wrap;html=1;fillColor=#647687;fontColor=#ffffff;strokeColor=#314354;" parent="1" vertex="1">
                    <mxGeometry x="160" y="200" width="40" height="40" as="geometry"/>
                </mxCell>
                <mxCell id="F1PyZxMeSDWPHxhF79l0-3" value="" style="rounded=0;whiteSpace=wrap;html=1;fillColor=#647687;fontColor=#ffffff;strokeColor=#314354;" parent="1" vertex="1">
                    <mxGeometry x="120" y="240" width="40" height="40" as="geometry"/>
                </mxCell>
                <mxCell id="F1PyZxMeSDWPHxhF79l0-4" value="&lt;font style=&quot;font-size: 30px;&quot;&gt;+&lt;/font&gt;" style="rounded=0;whiteSpace=wrap;html=1;fillColor=#647687;fontColor=#ffffff;strokeColor=#314354;" parent="1" vertex="1">
                    <mxGeometry x="160" y="240" width="40" height="40" as="geometry"/>
                </mxCell>
                <mxCell id="F1PyZxMeSDWPHxhF79l0-5" value="结构元" style="text;html=1;align=center;verticalAlign=middle;resizable=0;points=[];autosize=1;strokeColor=none;fillColor=none;fontSize=30;" parent="1" vertex="1">
                    <mxGeometry x="100" y="295" width="110" height="50" as="geometry"/>
                </mxCell>
                <mxCell id="F1PyZxMeSDWPHxhF79l0-6" value="" style="rounded=0;whiteSpace=wrap;html=1;" parent="1" vertex="1">
                    <mxGeometry x="360" y="240" width="40" height="40" as="geometry"/>
                </mxCell>
                <mxCell id="F1PyZxMeSDWPHxhF79l0-7" value="" style="rounded=0;whiteSpace=wrap;html=1;fillColor=#647687;fontColor=#ffffff;strokeColor=#314354;" parent="1" vertex="1">
                    <mxGeometry x="360" y="200" width="40" height="40" as="geometry"/>
                </mxCell>
                <mxCell id="F1PyZxMeSDWPHxhF79l0-8" value="" style="rounded=0;whiteSpace=wrap;html=1;fillColor=#647687;fontColor=#ffffff;strokeColor=#314354;" parent="1" vertex="1">
                    <mxGeometry x="320" y="240" width="40" height="40" as="geometry"/>
                </mxCell>
                <mxCell id="F1PyZxMeSDWPHxhF79l0-9" value="&lt;font style=&quot;font-size: 30px;&quot;&gt;+&lt;/font&gt;" style="rounded=0;whiteSpace=wrap;html=1;fillColor=#647687;fontColor=#ffffff;strokeColor=#314354;" parent="1" vertex="1">
                    <mxGeometry x="320" y="200" width="40" height="40" as="geometry"/>
                </mxCell>
                <mxCell id="F1PyZxMeSDWPHxhF79l0-10" value="结构元的映射" style="text;html=1;align=center;verticalAlign=middle;resizable=0;points=[];autosize=1;strokeColor=none;fillColor=none;fontSize=30;" parent="1" vertex="1">
                    <mxGeometry x="260" y="295" width="200" height="50" as="geometry"/>
                </mxCell>
                <mxCell id="F1PyZxMeSDWPHxhF79l0-11" value="" style="rounded=0;whiteSpace=wrap;html=1;" parent="1" vertex="1">
                    <mxGeometry x="520" y="160" width="40" height="40" as="geometry"/>
                </mxCell>
                <mxCell id="F1PyZxMeSDWPHxhF79l0-12" value="" style="rounded=0;whiteSpace=wrap;html=1;fillColor=#647687;fontColor=#ffffff;strokeColor=#314354;" parent="1" vertex="1">
                    <mxGeometry x="560" y="160" width="40" height="40" as="geometry"/>
                </mxCell>
                <mxCell id="F1PyZxMeSDWPHxhF79l0-13" value="" style="rounded=0;whiteSpace=wrap;html=1;fillColor=#647687;fontColor=#ffffff;strokeColor=#314354;" parent="1" vertex="1">
                    <mxGeometry x="520" y="200" width="40" height="40" as="geometry"/>
                </mxCell>
                <mxCell id="F1PyZxMeSDWPHxhF79l0-14" value="" style="rounded=0;whiteSpace=wrap;html=1;fillColor=#647687;fontColor=#ffffff;strokeColor=#314354;" parent="1" vertex="1">
                    <mxGeometry x="560" y="200" width="40" height="40" as="geometry"/>
                </mxCell>
                <mxCell id="F1PyZxMeSDWPHxhF79l0-15" value="" style="rounded=0;whiteSpace=wrap;html=1;" parent="1" vertex="1">
                    <mxGeometry x="520" y="240" width="40" height="40" as="geometry"/>
                </mxCell>
                <mxCell id="F1PyZxMeSDWPHxhF79l0-16" value="" style="rounded=0;whiteSpace=wrap;html=1;" parent="1" vertex="1">
                    <mxGeometry x="600" y="160" width="40" height="40" as="geometry"/>
                </mxCell>
                <mxCell id="F1PyZxMeSDWPHxhF79l0-17" value="" style="rounded=0;whiteSpace=wrap;html=1;" parent="1" vertex="1">
                    <mxGeometry x="600" y="240" width="40" height="40" as="geometry"/>
                </mxCell>
                <mxCell id="F1PyZxMeSDWPHxhF79l0-18" value="" style="rounded=0;whiteSpace=wrap;html=1;fillColor=#647687;fontColor=#ffffff;strokeColor=#314354;" parent="1" vertex="1">
                    <mxGeometry x="560" y="240" width="40" height="40" as="geometry"/>
                </mxCell>
                <mxCell id="F1PyZxMeSDWPHxhF79l0-19" value="" style="rounded=0;whiteSpace=wrap;html=1;fillColor=#647687;fontColor=#ffffff;strokeColor=#314354;" parent="1" vertex="1">
                    <mxGeometry x="600" y="200" width="40" height="40" as="geometry"/>
                </mxCell>
                <mxCell id="F1PyZxMeSDWPHxhF79l0-20" value="图像" style="text;html=1;align=center;verticalAlign=middle;resizable=0;points=[];autosize=1;strokeColor=none;fillColor=none;fontSize=30;" parent="1" vertex="1">
                    <mxGeometry x="540" y="295" width="80" height="50" as="geometry"/>
                </mxCell>
                <mxCell id="F1PyZxMeSDWPHxhF79l0-21" value="" style="rounded=0;whiteSpace=wrap;html=1;" parent="1" vertex="1">
                    <mxGeometry x="120" y="440" width="40" height="40" as="geometry"/>
                </mxCell>
                <mxCell id="F1PyZxMeSDWPHxhF79l0-22" value="" style="rounded=0;whiteSpace=wrap;html=1;fillColor=#647687;fontColor=#ffffff;strokeColor=#314354;" parent="1" vertex="1">
                    <mxGeometry x="160" y="440" width="40" height="40" as="geometry"/>
                </mxCell>
                <mxCell id="F1PyZxMeSDWPHxhF79l0-23" value="" style="rounded=0;whiteSpace=wrap;html=1;fillColor=#647687;fontColor=#ffffff;strokeColor=#314354;" parent="1" vertex="1">
                    <mxGeometry x="120" y="480" width="40" height="40" as="geometry"/>
                </mxCell>
                <mxCell id="F1PyZxMeSDWPHxhF79l0-24" value="" style="rounded=0;whiteSpace=wrap;html=1;fillColor=#647687;fontColor=#ffffff;strokeColor=#314354;" parent="1" vertex="1">
                    <mxGeometry x="160" y="480" width="40" height="40" as="geometry"/>
                </mxCell>
                <mxCell id="F1PyZxMeSDWPHxhF79l0-25" value="" style="rounded=0;whiteSpace=wrap;html=1;" parent="1" vertex="1">
                    <mxGeometry x="120" y="520" width="40" height="40" as="geometry"/>
                </mxCell>
                <mxCell id="F1PyZxMeSDWPHxhF79l0-26" value="" style="rounded=0;whiteSpace=wrap;html=1;" parent="1" vertex="1">
                    <mxGeometry x="200" y="440" width="40" height="40" as="geometry"/>
                </mxCell>
                <mxCell id="F1PyZxMeSDWPHxhF79l0-27" value="" style="rounded=0;whiteSpace=wrap;html=1;" parent="1" vertex="1">
                    <mxGeometry x="200" y="520" width="40" height="40" as="geometry"/>
                </mxCell>
                <mxCell id="F1PyZxMeSDWPHxhF79l0-28" value="" style="rounded=0;whiteSpace=wrap;html=1;fillColor=#647687;fontColor=#ffffff;strokeColor=#314354;" parent="1" vertex="1">
                    <mxGeometry x="160" y="520" width="40" height="40" as="geometry"/>
                </mxCell>
                <mxCell id="F1PyZxMeSDWPHxhF79l0-29" value="" style="rounded=0;whiteSpace=wrap;html=1;fillColor=#647687;fontColor=#ffffff;strokeColor=#314354;" parent="1" vertex="1">
                    <mxGeometry x="200" y="480" width="40" height="40" as="geometry"/>
                </mxCell>
                <mxCell id="F1PyZxMeSDWPHxhF79l0-30" value="开运算(1):" style="text;html=1;align=center;verticalAlign=middle;resizable=0;points=[];autosize=1;strokeColor=none;fillColor=none;fontSize=30;" parent="1" vertex="1">
                    <mxGeometry y="370" width="160" height="50" as="geometry"/>
                </mxCell>
                <mxCell id="F1PyZxMeSDWPHxhF79l0-31" value="" style="rounded=0;whiteSpace=wrap;html=1;" parent="1" vertex="1">
                    <mxGeometry x="360" y="440" width="40" height="40" as="geometry"/>
                </mxCell>
                <mxCell id="F1PyZxMeSDWPHxhF79l0-32" value="" style="rounded=0;whiteSpace=wrap;html=1;" parent="1" vertex="1">
                    <mxGeometry x="400" y="440" width="40" height="40" as="geometry"/>
                </mxCell>
                <mxCell id="F1PyZxMeSDWPHxhF79l0-33" value="" style="rounded=0;whiteSpace=wrap;html=1;" parent="1" vertex="1">
                    <mxGeometry x="360" y="480" width="40" height="40" as="geometry"/>
                </mxCell>
                <mxCell id="F1PyZxMeSDWPHxhF79l0-34" value="" style="rounded=0;whiteSpace=wrap;html=1;fillColor=#647687;fontColor=#ffffff;strokeColor=#314354;" parent="1" vertex="1">
                    <mxGeometry x="400" y="480" width="40" height="40" as="geometry"/>
                </mxCell>
                <mxCell id="F1PyZxMeSDWPHxhF79l0-35" value="" style="rounded=0;whiteSpace=wrap;html=1;" parent="1" vertex="1">
                    <mxGeometry x="360" y="520" width="40" height="40" as="geometry"/>
                </mxCell>
                <mxCell id="F1PyZxMeSDWPHxhF79l0-36" value="" style="rounded=0;whiteSpace=wrap;html=1;" parent="1" vertex="1">
                    <mxGeometry x="440" y="440" width="40" height="40" as="geometry"/>
                </mxCell>
                <mxCell id="F1PyZxMeSDWPHxhF79l0-37" value="" style="rounded=0;whiteSpace=wrap;html=1;" parent="1" vertex="1">
                    <mxGeometry x="440" y="520" width="40" height="40" as="geometry"/>
                </mxCell>
                <mxCell id="F1PyZxMeSDWPHxhF79l0-38" value="" style="rounded=0;whiteSpace=wrap;html=1;" parent="1" vertex="1">
                    <mxGeometry x="400" y="520" width="40" height="40" as="geometry"/>
                </mxCell>
                <mxCell id="F1PyZxMeSDWPHxhF79l0-39" value="" style="rounded=0;whiteSpace=wrap;html=1;" parent="1" vertex="1">
                    <mxGeometry x="440" y="480" width="40" height="40" as="geometry"/>
                </mxCell>
                <mxCell id="F1PyZxMeSDWPHxhF79l0-40" value="" style="shape=flexArrow;endArrow=classic;html=1;rounded=0;fontSize=30;" parent="1" edge="1">
                    <mxGeometry width="50" height="50" relative="1" as="geometry">
                        <mxPoint x="260" y="500" as="sourcePoint"/>
                        <mxPoint x="340" y="500" as="targetPoint"/>
                    </mxGeometry>
                </mxCell>
                <mxCell id="F1PyZxMeSDWPHxhF79l0-41" value="" style="rounded=0;whiteSpace=wrap;html=1;" parent="1" vertex="1">
                    <mxGeometry x="360" y="680" width="40" height="40" as="geometry"/>
                </mxCell>
                <mxCell id="F1PyZxMeSDWPHxhF79l0-42" value="" style="rounded=0;whiteSpace=wrap;html=1;" parent="1" vertex="1">
                    <mxGeometry x="400" y="680" width="40" height="40" as="geometry"/>
                </mxCell>
                <mxCell id="F1PyZxMeSDWPHxhF79l0-43" value="" style="rounded=0;whiteSpace=wrap;html=1;" parent="1" vertex="1">
                    <mxGeometry x="360" y="720" width="40" height="40" as="geometry"/>
                </mxCell>
                <mxCell id="F1PyZxMeSDWPHxhF79l0-44" value="" style="rounded=0;whiteSpace=wrap;html=1;fillColor=#647687;fontColor=#ffffff;strokeColor=#314354;" parent="1" vertex="1">
                    <mxGeometry x="400" y="720" width="40" height="40" as="geometry"/>
                </mxCell>
                <mxCell id="F1PyZxMeSDWPHxhF79l0-45" value="" style="rounded=0;whiteSpace=wrap;html=1;" parent="1" vertex="1">
                    <mxGeometry x="360" y="760" width="40" height="40" as="geometry"/>
                </mxCell>
                <mxCell id="F1PyZxMeSDWPHxhF79l0-46" value="" style="rounded=0;whiteSpace=wrap;html=1;" parent="1" vertex="1">
                    <mxGeometry x="440" y="680" width="40" height="40" as="geometry"/>
                </mxCell>
                <mxCell id="F1PyZxMeSDWPHxhF79l0-47" value="" style="rounded=0;whiteSpace=wrap;html=1;" parent="1" vertex="1">
                    <mxGeometry x="440" y="760" width="40" height="40" as="geometry"/>
                </mxCell>
                <mxCell id="F1PyZxMeSDWPHxhF79l0-48" value="" style="rounded=0;whiteSpace=wrap;html=1;" parent="1" vertex="1">
                    <mxGeometry x="400" y="760" width="40" height="40" as="geometry"/>
                </mxCell>
                <mxCell id="F1PyZxMeSDWPHxhF79l0-49" value="" style="rounded=0;whiteSpace=wrap;html=1;" parent="1" vertex="1">
                    <mxGeometry x="440" y="720" width="40" height="40" as="geometry"/>
                </mxCell>
                <mxCell id="F1PyZxMeSDWPHxhF79l0-50" value="开运算(2):" style="text;html=1;align=center;verticalAlign=middle;resizable=0;points=[];autosize=1;strokeColor=none;fillColor=none;fontSize=30;" parent="1" vertex="1">
                    <mxGeometry y="610" width="160" height="50" as="geometry"/>
                </mxCell>
                <mxCell id="F1PyZxMeSDWPHxhF79l0-51" value="" style="rounded=0;whiteSpace=wrap;html=1;" parent="1" vertex="1">
                    <mxGeometry x="600" y="680" width="40" height="40" as="geometry"/>
                </mxCell>
                <mxCell id="F1PyZxMeSDWPHxhF79l0-52" value="" style="rounded=0;whiteSpace=wrap;html=1;fillColor=#647687;fontColor=#ffffff;strokeColor=#314354;" parent="1" vertex="1">
                    <mxGeometry x="640" y="680" width="40" height="40" as="geometry"/>
                </mxCell>
                <mxCell id="F1PyZxMeSDWPHxhF79l0-53" value="" style="rounded=0;whiteSpace=wrap;html=1;fillColor=#647687;fontColor=#ffffff;strokeColor=#314354;" parent="1" vertex="1">
                    <mxGeometry x="600" y="720" width="40" height="40" as="geometry"/>
                </mxCell>
                <mxCell id="F1PyZxMeSDWPHxhF79l0-54" value="" style="rounded=0;whiteSpace=wrap;html=1;fillColor=#647687;fontColor=#ffffff;strokeColor=#314354;" parent="1" vertex="1">
                    <mxGeometry x="640" y="720" width="40" height="40" as="geometry"/>
                </mxCell>
                <mxCell id="F1PyZxMeSDWPHxhF79l0-55" value="" style="rounded=0;whiteSpace=wrap;html=1;" parent="1" vertex="1">
                    <mxGeometry x="600" y="760" width="40" height="40" as="geometry"/>
                </mxCell>
                <mxCell id="F1PyZxMeSDWPHxhF79l0-56" value="" style="rounded=0;whiteSpace=wrap;html=1;" parent="1" vertex="1">
                    <mxGeometry x="680" y="680" width="40" height="40" as="geometry"/>
                </mxCell>
                <mxCell id="F1PyZxMeSDWPHxhF79l0-57" value="" style="rounded=0;whiteSpace=wrap;html=1;" parent="1" vertex="1">
                    <mxGeometry x="680" y="760" width="40" height="40" as="geometry"/>
                </mxCell>
                <mxCell id="F1PyZxMeSDWPHxhF79l0-58" value="" style="rounded=0;whiteSpace=wrap;html=1;" parent="1" vertex="1">
                    <mxGeometry x="640" y="760" width="40" height="40" as="geometry"/>
                </mxCell>
                <mxCell id="F1PyZxMeSDWPHxhF79l0-59" value="" style="rounded=0;whiteSpace=wrap;html=1;" parent="1" vertex="1">
                    <mxGeometry x="680" y="720" width="40" height="40" as="geometry"/>
                </mxCell>
                <mxCell id="F1PyZxMeSDWPHxhF79l0-60" value="" style="shape=flexArrow;endArrow=classic;html=1;rounded=0;fontSize=30;" parent="1" edge="1">
                    <mxGeometry width="50" height="50" relative="1" as="geometry">
                        <mxPoint x="500.0000000000002" y="740" as="sourcePoint"/>
                        <mxPoint x="580.0000000000002" y="740" as="targetPoint"/>
                    </mxGeometry>
                </mxCell>
                <mxCell id="F1PyZxMeSDWPHxhF79l0-61" value="" style="shape=flexArrow;endArrow=classic;html=1;rounded=0;fontSize=30;" parent="1" edge="1">
                    <mxGeometry width="50" height="50" relative="1" as="geometry">
                        <mxPoint x="500.0000000000001" y="499.62" as="sourcePoint"/>
                        <mxPoint x="580.0000000000001" y="499.62" as="targetPoint"/>
                    </mxGeometry>
                </mxCell>
                <mxCell id="F1PyZxMeSDWPHxhF79l0-62" value="" style="rounded=0;whiteSpace=wrap;html=1;" parent="1" vertex="1">
                    <mxGeometry x="600" y="440" width="40" height="40" as="geometry"/>
                </mxCell>
                <mxCell id="F1PyZxMeSDWPHxhF79l0-63" value="" style="rounded=0;whiteSpace=wrap;html=1;fillColor=#647687;fontColor=#ffffff;strokeColor=#314354;" parent="1" vertex="1">
                    <mxGeometry x="640" y="440" width="40" height="40" as="geometry"/>
                </mxCell>
                <mxCell id="F1PyZxMeSDWPHxhF79l0-64" value="" style="rounded=0;whiteSpace=wrap;html=1;direction=south;fillColor=#647687;fontColor=#ffffff;strokeColor=#314354;" parent="1" vertex="1">
                    <mxGeometry x="600" y="480" width="40" height="40" as="geometry"/>
                </mxCell>
                <mxCell id="F1PyZxMeSDWPHxhF79l0-65" value="" style="rounded=0;whiteSpace=wrap;html=1;fillColor=#647687;fontColor=#ffffff;strokeColor=#314354;" parent="1" vertex="1">
                    <mxGeometry x="640" y="480" width="40" height="40" as="geometry"/>
                </mxCell>
                <mxCell id="F1PyZxMeSDWPHxhF79l0-66" value="" style="rounded=0;whiteSpace=wrap;html=1;" parent="1" vertex="1">
                    <mxGeometry x="600" y="520" width="40" height="40" as="geometry"/>
                </mxCell>
                <mxCell id="F1PyZxMeSDWPHxhF79l0-67" value="" style="rounded=0;whiteSpace=wrap;html=1;" parent="1" vertex="1">
                    <mxGeometry x="680" y="440" width="40" height="40" as="geometry"/>
                </mxCell>
                <mxCell id="F1PyZxMeSDWPHxhF79l0-68" value="" style="rounded=0;whiteSpace=wrap;html=1;" parent="1" vertex="1">
                    <mxGeometry x="680" y="520" width="40" height="40" as="geometry"/>
                </mxCell>
                <mxCell id="F1PyZxMeSDWPHxhF79l0-69" value="" style="rounded=0;whiteSpace=wrap;html=1;" parent="1" vertex="1">
                    <mxGeometry x="640" y="520" width="40" height="40" as="geometry"/>
                </mxCell>
                <mxCell id="F1PyZxMeSDWPHxhF79l0-70" value="" style="rounded=0;whiteSpace=wrap;html=1;" parent="1" vertex="1">
                    <mxGeometry x="680" y="480" width="40" height="40" as="geometry"/>
                </mxCell>
                <mxCell id="F1PyZxMeSDWPHxhF79l0-71" value="" style="rounded=0;whiteSpace=wrap;html=1;" parent="1" vertex="1">
                    <mxGeometry x="120" y="680" width="40" height="40" as="geometry"/>
                </mxCell>
                <mxCell id="F1PyZxMeSDWPHxhF79l0-72" value="" style="rounded=0;whiteSpace=wrap;html=1;fillColor=#647687;fontColor=#ffffff;strokeColor=#314354;" parent="1" vertex="1">
                    <mxGeometry x="160" y="680" width="40" height="40" as="geometry"/>
                </mxCell>
                <mxCell id="F1PyZxMeSDWPHxhF79l0-73" value="" style="rounded=0;whiteSpace=wrap;html=1;direction=south;fillColor=#647687;fontColor=#ffffff;strokeColor=#314354;" parent="1" vertex="1">
                    <mxGeometry x="120" y="720" width="40" height="40" as="geometry"/>
                </mxCell>
                <mxCell id="F1PyZxMeSDWPHxhF79l0-74" value="" style="rounded=0;whiteSpace=wrap;html=1;fillColor=#647687;fontColor=#ffffff;strokeColor=#314354;" parent="1" vertex="1">
                    <mxGeometry x="160" y="720" width="40" height="40" as="geometry"/>
                </mxCell>
                <mxCell id="F1PyZxMeSDWPHxhF79l0-75" value="" style="rounded=0;whiteSpace=wrap;html=1;" parent="1" vertex="1">
                    <mxGeometry x="120" y="760" width="40" height="40" as="geometry"/>
                </mxCell>
                <mxCell id="F1PyZxMeSDWPHxhF79l0-76" value="" style="rounded=0;whiteSpace=wrap;html=1;" parent="1" vertex="1">
                    <mxGeometry x="200" y="680" width="40" height="40" as="geometry"/>
                </mxCell>
                <mxCell id="F1PyZxMeSDWPHxhF79l0-77" value="" style="rounded=0;whiteSpace=wrap;html=1;" parent="1" vertex="1">
                    <mxGeometry x="200" y="760" width="40" height="40" as="geometry"/>
                </mxCell>
                <mxCell id="F1PyZxMeSDWPHxhF79l0-78" value="" style="rounded=0;whiteSpace=wrap;html=1;" parent="1" vertex="1">
                    <mxGeometry x="160" y="760" width="40" height="40" as="geometry"/>
                </mxCell>
                <mxCell id="F1PyZxMeSDWPHxhF79l0-79" value="" style="rounded=0;whiteSpace=wrap;html=1;" parent="1" vertex="1">
                    <mxGeometry x="200" y="720" width="40" height="40" as="geometry"/>
                </mxCell>
                <mxCell id="F1PyZxMeSDWPHxhF79l0-80" value="" style="shape=flexArrow;endArrow=classic;html=1;rounded=0;fontSize=30;" parent="1" edge="1">
                    <mxGeometry width="50" height="50" relative="1" as="geometry">
                        <mxPoint x="260.0000000000001" y="739.62" as="sourcePoint"/>
                        <mxPoint x="340.0000000000001" y="739.62" as="targetPoint"/>
                    </mxGeometry>
                </mxCell>
                <mxCell id="F1PyZxMeSDWPHxhF79l0-81" value="" style="rounded=0;whiteSpace=wrap;html=1;" parent="1" vertex="1">
                    <mxGeometry x="120" y="920" width="40" height="40" as="geometry"/>
                </mxCell>
                <mxCell id="F1PyZxMeSDWPHxhF79l0-82" value="" style="rounded=0;whiteSpace=wrap;html=1;fillColor=#647687;fontColor=#ffffff;strokeColor=#314354;" parent="1" vertex="1">
                    <mxGeometry x="160" y="920" width="40" height="40" as="geometry"/>
                </mxCell>
                <mxCell id="F1PyZxMeSDWPHxhF79l0-83" value="" style="rounded=0;whiteSpace=wrap;html=1;fillColor=#647687;fontColor=#ffffff;strokeColor=#314354;" parent="1" vertex="1">
                    <mxGeometry x="120" y="960" width="40" height="40" as="geometry"/>
                </mxCell>
                <mxCell id="F1PyZxMeSDWPHxhF79l0-84" value="" style="rounded=0;whiteSpace=wrap;html=1;fillColor=#647687;fontColor=#ffffff;strokeColor=#314354;" parent="1" vertex="1">
                    <mxGeometry x="160" y="960" width="40" height="40" as="geometry"/>
                </mxCell>
                <mxCell id="F1PyZxMeSDWPHxhF79l0-85" value="" style="rounded=0;whiteSpace=wrap;html=1;" parent="1" vertex="1">
                    <mxGeometry x="120" y="1000" width="40" height="40" as="geometry"/>
                </mxCell>
                <mxCell id="F1PyZxMeSDWPHxhF79l0-86" value="" style="rounded=0;whiteSpace=wrap;html=1;" parent="1" vertex="1">
                    <mxGeometry x="200" y="920" width="40" height="40" as="geometry"/>
                </mxCell>
                <mxCell id="F1PyZxMeSDWPHxhF79l0-87" value="" style="rounded=0;whiteSpace=wrap;html=1;" parent="1" vertex="1">
                    <mxGeometry x="200" y="1000" width="40" height="40" as="geometry"/>
                </mxCell>
                <mxCell id="F1PyZxMeSDWPHxhF79l0-88" value="" style="rounded=0;whiteSpace=wrap;html=1;fillColor=#647687;fontColor=#ffffff;strokeColor=#314354;" parent="1" vertex="1">
                    <mxGeometry x="160" y="1000" width="40" height="40" as="geometry"/>
                </mxCell>
                <mxCell id="F1PyZxMeSDWPHxhF79l0-89" value="" style="rounded=0;whiteSpace=wrap;html=1;fillColor=#647687;fontColor=#ffffff;strokeColor=#314354;" parent="1" vertex="1">
                    <mxGeometry x="200" y="960" width="40" height="40" as="geometry"/>
                </mxCell>
                <mxCell id="F1PyZxMeSDWPHxhF79l0-90" value="闭运算(1):" style="text;html=1;align=center;verticalAlign=middle;resizable=0;points=[];autosize=1;strokeColor=none;fillColor=none;fontSize=30;" parent="1" vertex="1">
                    <mxGeometry y="850" width="160" height="50" as="geometry"/>
                </mxCell>
                <mxCell id="F1PyZxMeSDWPHxhF79l0-91" value="" style="rounded=0;whiteSpace=wrap;html=1;fillColor=#647687;fontColor=#ffffff;strokeColor=#314354;" parent="1" vertex="1">
                    <mxGeometry x="360" y="920" width="40" height="40" as="geometry"/>
                </mxCell>
                <mxCell id="F1PyZxMeSDWPHxhF79l0-92" value="" style="rounded=0;whiteSpace=wrap;html=1;fillColor=#647687;fontColor=#ffffff;strokeColor=#314354;" parent="1" vertex="1">
                    <mxGeometry x="400" y="920" width="40" height="40" as="geometry"/>
                </mxCell>
                <mxCell id="F1PyZxMeSDWPHxhF79l0-93" value="" style="rounded=0;whiteSpace=wrap;html=1;fillColor=#647687;fontColor=#ffffff;strokeColor=#314354;" parent="1" vertex="1">
                    <mxGeometry x="360" y="960" width="40" height="40" as="geometry"/>
                </mxCell>
                <mxCell id="F1PyZxMeSDWPHxhF79l0-94" value="" style="rounded=0;whiteSpace=wrap;html=1;fillColor=#647687;fontColor=#ffffff;strokeColor=#314354;" parent="1" vertex="1">
                    <mxGeometry x="400" y="960" width="40" height="40" as="geometry"/>
                </mxCell>
                <mxCell id="F1PyZxMeSDWPHxhF79l0-95" value="" style="rounded=0;whiteSpace=wrap;html=1;fillColor=#647687;fontColor=#ffffff;strokeColor=#314354;" parent="1" vertex="1">
                    <mxGeometry x="360" y="1000" width="40" height="40" as="geometry"/>
                </mxCell>
                <mxCell id="F1PyZxMeSDWPHxhF79l0-96" value="" style="rounded=0;whiteSpace=wrap;html=1;fillColor=#647687;fontColor=#ffffff;strokeColor=#314354;" parent="1" vertex="1">
                    <mxGeometry x="440" y="920" width="40" height="40" as="geometry"/>
                </mxCell>
                <mxCell id="F1PyZxMeSDWPHxhF79l0-97" value="" style="rounded=0;whiteSpace=wrap;html=1;" parent="1" vertex="1">
                    <mxGeometry x="440" y="1000" width="40" height="40" as="geometry"/>
                </mxCell>
                <mxCell id="F1PyZxMeSDWPHxhF79l0-98" value="" style="rounded=0;whiteSpace=wrap;html=1;fillColor=#647687;fontColor=#ffffff;strokeColor=#314354;" parent="1" vertex="1">
                    <mxGeometry x="400" y="1000" width="40" height="40" as="geometry"/>
                </mxCell>
                <mxCell id="F1PyZxMeSDWPHxhF79l0-99" value="" style="rounded=0;whiteSpace=wrap;html=1;fillColor=#647687;fontColor=#ffffff;strokeColor=#314354;" parent="1" vertex="1">
                    <mxGeometry x="440" y="960" width="40" height="40" as="geometry"/>
                </mxCell>
                <mxCell id="F1PyZxMeSDWPHxhF79l0-100" value="" style="shape=flexArrow;endArrow=classic;html=1;rounded=0;fontSize=30;" parent="1" edge="1">
                    <mxGeometry width="50" height="50" relative="1" as="geometry">
                        <mxPoint x="260" y="980" as="sourcePoint"/>
                        <mxPoint x="340" y="980" as="targetPoint"/>
                    </mxGeometry>
                </mxCell>
                <mxCell id="F1PyZxMeSDWPHxhF79l0-101" value="" style="rounded=0;whiteSpace=wrap;html=1;fillColor=#647687;fontColor=#ffffff;strokeColor=#314354;" parent="1" vertex="1">
                    <mxGeometry x="360" y="1160" width="40" height="40" as="geometry"/>
                </mxCell>
                <mxCell id="F1PyZxMeSDWPHxhF79l0-102" value="" style="rounded=0;whiteSpace=wrap;html=1;fillColor=#647687;fontColor=#ffffff;strokeColor=#314354;" parent="1" vertex="1">
                    <mxGeometry x="400" y="1160" width="40" height="40" as="geometry"/>
                </mxCell>
                <mxCell id="F1PyZxMeSDWPHxhF79l0-103" value="" style="rounded=0;whiteSpace=wrap;html=1;fillColor=#647687;fontColor=#ffffff;strokeColor=#314354;" parent="1" vertex="1">
                    <mxGeometry x="360" y="1200" width="40" height="40" as="geometry"/>
                </mxCell>
                <mxCell id="F1PyZxMeSDWPHxhF79l0-104" value="" style="rounded=0;whiteSpace=wrap;html=1;fillColor=#647687;fontColor=#ffffff;strokeColor=#314354;" parent="1" vertex="1">
                    <mxGeometry x="400" y="1200" width="40" height="40" as="geometry"/>
                </mxCell>
                <mxCell id="F1PyZxMeSDWPHxhF79l0-105" value="" style="rounded=0;whiteSpace=wrap;html=1;fillColor=#647687;fontColor=#ffffff;strokeColor=#314354;" parent="1" vertex="1">
                    <mxGeometry x="360" y="1240" width="40" height="40" as="geometry"/>
                </mxCell>
                <mxCell id="F1PyZxMeSDWPHxhF79l0-106" value="" style="rounded=0;whiteSpace=wrap;html=1;fillColor=#647687;fontColor=#ffffff;strokeColor=#314354;" parent="1" vertex="1">
                    <mxGeometry x="440" y="1160" width="40" height="40" as="geometry"/>
                </mxCell>
                <mxCell id="F1PyZxMeSDWPHxhF79l0-107" value="" style="rounded=0;whiteSpace=wrap;html=1;" parent="1" vertex="1">
                    <mxGeometry x="440" y="1240" width="40" height="40" as="geometry"/>
                </mxCell>
                <mxCell id="F1PyZxMeSDWPHxhF79l0-108" value="" style="rounded=0;whiteSpace=wrap;html=1;fillColor=#647687;fontColor=#ffffff;strokeColor=#314354;" parent="1" vertex="1">
                    <mxGeometry x="400" y="1240" width="40" height="40" as="geometry"/>
                </mxCell>
                <mxCell id="F1PyZxMeSDWPHxhF79l0-109" value="" style="rounded=0;whiteSpace=wrap;html=1;fillColor=#647687;fontColor=#ffffff;strokeColor=#314354;" parent="1" vertex="1">
                    <mxGeometry x="440" y="1200" width="40" height="40" as="geometry"/>
                </mxCell>
                <mxCell id="F1PyZxMeSDWPHxhF79l0-110" value="闭运算(2):" style="text;html=1;align=center;verticalAlign=middle;resizable=0;points=[];autosize=1;strokeColor=none;fillColor=none;fontSize=30;" parent="1" vertex="1">
                    <mxGeometry y="1090" width="160" height="50" as="geometry"/>
                </mxCell>
                <mxCell id="F1PyZxMeSDWPHxhF79l0-111" value="" style="rounded=0;whiteSpace=wrap;html=1;" parent="1" vertex="1">
                    <mxGeometry x="600" y="1160" width="40" height="40" as="geometry"/>
                </mxCell>
                <mxCell id="F1PyZxMeSDWPHxhF79l0-112" value="" style="rounded=0;whiteSpace=wrap;html=1;" parent="1" vertex="1">
                    <mxGeometry x="640" y="1160" width="40" height="40" as="geometry"/>
                </mxCell>
                <mxCell id="F1PyZxMeSDWPHxhF79l0-113" value="" style="rounded=0;whiteSpace=wrap;html=1;fillColor=#647687;fontColor=#ffffff;strokeColor=#314354;" parent="1" vertex="1">
                    <mxGeometry x="600" y="1200" width="40" height="40" as="geometry"/>
                </mxCell>
                <mxCell id="F1PyZxMeSDWPHxhF79l0-114" value="" style="rounded=0;whiteSpace=wrap;html=1;fillColor=#647687;fontColor=#ffffff;strokeColor=#314354;" parent="1" vertex="1">
                    <mxGeometry x="640" y="1200" width="40" height="40" as="geometry"/>
                </mxCell>
                <mxCell id="F1PyZxMeSDWPHxhF79l0-115" value="" style="rounded=0;whiteSpace=wrap;html=1;" parent="1" vertex="1">
                    <mxGeometry x="600" y="1240" width="40" height="40" as="geometry"/>
                </mxCell>
                <mxCell id="F1PyZxMeSDWPHxhF79l0-116" value="" style="rounded=0;whiteSpace=wrap;html=1;" parent="1" vertex="1">
                    <mxGeometry x="680" y="1160" width="40" height="40" as="geometry"/>
                </mxCell>
                <mxCell id="F1PyZxMeSDWPHxhF79l0-117" value="" style="rounded=0;whiteSpace=wrap;html=1;" parent="1" vertex="1">
                    <mxGeometry x="680" y="1240" width="40" height="40" as="geometry"/>
                </mxCell>
                <mxCell id="F1PyZxMeSDWPHxhF79l0-118" value="" style="rounded=0;whiteSpace=wrap;html=1;fillColor=#647687;fontColor=#ffffff;strokeColor=#314354;" parent="1" vertex="1">
                    <mxGeometry x="640" y="1240" width="40" height="40" as="geometry"/>
                </mxCell>
                <mxCell id="F1PyZxMeSDWPHxhF79l0-119" value="" style="rounded=0;whiteSpace=wrap;html=1;fillColor=#647687;fontColor=#ffffff;strokeColor=#314354;" parent="1" vertex="1">
                    <mxGeometry x="680" y="1200" width="40" height="40" as="geometry"/>
                </mxCell>
                <mxCell id="F1PyZxMeSDWPHxhF79l0-120" value="" style="shape=flexArrow;endArrow=classic;html=1;rounded=0;fontSize=30;" parent="1" edge="1">
                    <mxGeometry width="50" height="50" relative="1" as="geometry">
                        <mxPoint x="500" y="1220" as="sourcePoint"/>
                        <mxPoint x="580" y="1220" as="targetPoint"/>
                    </mxGeometry>
                </mxCell>
                <mxCell id="F1PyZxMeSDWPHxhF79l0-121" value="" style="shape=flexArrow;endArrow=classic;html=1;rounded=0;fontSize=30;" parent="1" edge="1">
                    <mxGeometry width="50" height="50" relative="1" as="geometry">
                        <mxPoint x="500" y="979.6199999999999" as="sourcePoint"/>
                        <mxPoint x="580" y="979.6199999999999" as="targetPoint"/>
                    </mxGeometry>
                </mxCell>
                <mxCell id="F1PyZxMeSDWPHxhF79l0-122" value="" style="rounded=0;whiteSpace=wrap;html=1;" parent="1" vertex="1">
                    <mxGeometry x="600" y="920" width="40" height="40" as="geometry"/>
                </mxCell>
                <mxCell id="F1PyZxMeSDWPHxhF79l0-123" value="" style="rounded=0;whiteSpace=wrap;html=1;" parent="1" vertex="1">
                    <mxGeometry x="640" y="920" width="40" height="40" as="geometry"/>
                </mxCell>
                <mxCell id="F1PyZxMeSDWPHxhF79l0-124" value="" style="rounded=0;whiteSpace=wrap;html=1;direction=south;fillColor=#647687;fontColor=#ffffff;strokeColor=#314354;" parent="1" vertex="1">
                    <mxGeometry x="600" y="960" width="40" height="40" as="geometry"/>
                </mxCell>
                <mxCell id="F1PyZxMeSDWPHxhF79l0-125" value="" style="rounded=0;whiteSpace=wrap;html=1;fillColor=#647687;fontColor=#ffffff;strokeColor=#314354;" parent="1" vertex="1">
                    <mxGeometry x="640" y="960" width="40" height="40" as="geometry"/>
                </mxCell>
                <mxCell id="F1PyZxMeSDWPHxhF79l0-126" value="" style="rounded=0;whiteSpace=wrap;html=1;" parent="1" vertex="1">
                    <mxGeometry x="600" y="1000" width="40" height="40" as="geometry"/>
                </mxCell>
                <mxCell id="F1PyZxMeSDWPHxhF79l0-127" value="" style="rounded=0;whiteSpace=wrap;html=1;" parent="1" vertex="1">
                    <mxGeometry x="680" y="920" width="40" height="40" as="geometry"/>
                </mxCell>
                <mxCell id="F1PyZxMeSDWPHxhF79l0-128" value="" style="rounded=0;whiteSpace=wrap;html=1;" parent="1" vertex="1">
                    <mxGeometry x="680" y="1000" width="40" height="40" as="geometry"/>
                </mxCell>
                <mxCell id="F1PyZxMeSDWPHxhF79l0-129" value="" style="rounded=0;whiteSpace=wrap;html=1;fillColor=#647687;fontColor=#ffffff;strokeColor=#314354;" parent="1" vertex="1">
                    <mxGeometry x="640" y="1000" width="40" height="40" as="geometry"/>
                </mxCell>
                <mxCell id="F1PyZxMeSDWPHxhF79l0-130" value="" style="rounded=0;whiteSpace=wrap;html=1;fillColor=#647687;fontColor=#ffffff;strokeColor=#314354;" parent="1" vertex="1">
                    <mxGeometry x="680" y="960" width="40" height="40" as="geometry"/>
                </mxCell>
                <mxCell id="F1PyZxMeSDWPHxhF79l0-131" value="" style="rounded=0;whiteSpace=wrap;html=1;" parent="1" vertex="1">
                    <mxGeometry x="120" y="1160" width="40" height="40" as="geometry"/>
                </mxCell>
                <mxCell id="F1PyZxMeSDWPHxhF79l0-132" value="" style="rounded=0;whiteSpace=wrap;html=1;" parent="1" vertex="1">
                    <mxGeometry x="160" y="1160" width="40" height="40" as="geometry"/>
                </mxCell>
                <mxCell id="F1PyZxMeSDWPHxhF79l0-133" value="" style="rounded=0;whiteSpace=wrap;html=1;direction=south;fillColor=#647687;fontColor=#ffffff;strokeColor=#314354;" parent="1" vertex="1">
                    <mxGeometry x="120" y="1200" width="40" height="40" as="geometry"/>
                </mxCell>
                <mxCell id="F1PyZxMeSDWPHxhF79l0-134" value="" style="rounded=0;whiteSpace=wrap;html=1;fillColor=#647687;fontColor=#ffffff;strokeColor=#314354;" parent="1" vertex="1">
                    <mxGeometry x="160" y="1200" width="40" height="40" as="geometry"/>
                </mxCell>
                <mxCell id="F1PyZxMeSDWPHxhF79l0-135" value="" style="rounded=0;whiteSpace=wrap;html=1;" parent="1" vertex="1">
                    <mxGeometry x="120" y="1240" width="40" height="40" as="geometry"/>
                </mxCell>
                <mxCell id="F1PyZxMeSDWPHxhF79l0-136" value="" style="rounded=0;whiteSpace=wrap;html=1;" parent="1" vertex="1">
                    <mxGeometry x="200" y="1160" width="40" height="40" as="geometry"/>
                </mxCell>
                <mxCell id="F1PyZxMeSDWPHxhF79l0-137" value="" style="rounded=0;whiteSpace=wrap;html=1;" parent="1" vertex="1">
                    <mxGeometry x="200" y="1240" width="40" height="40" as="geometry"/>
                </mxCell>
                <mxCell id="F1PyZxMeSDWPHxhF79l0-138" value="" style="rounded=0;whiteSpace=wrap;html=1;fillColor=#647687;fontColor=#ffffff;strokeColor=#314354;" parent="1" vertex="1">
                    <mxGeometry x="160" y="1240" width="40" height="40" as="geometry"/>
                </mxCell>
                <mxCell id="F1PyZxMeSDWPHxhF79l0-139" value="" style="rounded=0;whiteSpace=wrap;html=1;fillColor=#647687;fontColor=#ffffff;strokeColor=#314354;" parent="1" vertex="1">
                    <mxGeometry x="200" y="1200" width="40" height="40" as="geometry"/>
                </mxCell>
                <mxCell id="F1PyZxMeSDWPHxhF79l0-140" value="" style="shape=flexArrow;endArrow=classic;html=1;rounded=0;fontSize=30;" parent="1" edge="1">
                    <mxGeometry width="50" height="50" relative="1" as="geometry">
                        <mxPoint x="260" y="1219.62" as="sourcePoint"/>
                        <mxPoint x="340" y="1219.62" as="targetPoint"/>
                    </mxGeometry>
                </mxCell>
            </root>
        </mxGraphModel>
    </diagram>
    <diagram id="_iYlVwzo0ZqlDPY2LrBd" name="第6章习题2">
        <mxGraphModel dx="459" dy="584" grid="1" gridSize="10" guides="1" tooltips="1" connect="1" arrows="1" fold="1" page="1" pageScale="1" pageWidth="827" pageHeight="1169" math="0" shadow="0">
            <root>
                <mxCell id="0"/>
                <mxCell id="1" parent="0"/>
                <mxCell id="b7J6CW01sccaG01LUfjt-1" value="&lt;font style=&quot;font-size: 20px;&quot;&gt;9&lt;/font&gt;" style="rounded=0;whiteSpace=wrap;html=1;fontSize=20;" parent="1" vertex="1">
                    <mxGeometry width="40" height="40" as="geometry"/>
                </mxCell>
                <mxCell id="b7J6CW01sccaG01LUfjt-2" value="" style="rounded=0;whiteSpace=wrap;html=1;fontSize=20;" parent="1" vertex="1">
                    <mxGeometry x="40" width="40" height="40" as="geometry"/>
                </mxCell>
                <mxCell id="b7J6CW01sccaG01LUfjt-3" value="&lt;font style=&quot;font-size: 20px; line-height: 1;&quot;&gt;5&lt;/font&gt;" style="rounded=0;whiteSpace=wrap;html=1;fontSize=20;" parent="1" vertex="1">
                    <mxGeometry x="80" width="40" height="40" as="geometry"/>
                </mxCell>
                <mxCell id="b7J6CW01sccaG01LUfjt-5" value="" style="rounded=0;whiteSpace=wrap;html=1;fontSize=20;" parent="1" vertex="1">
                    <mxGeometry x="120" width="40" height="40" as="geometry"/>
                </mxCell>
                <mxCell id="b7J6CW01sccaG01LUfjt-6" value="&lt;font style=&quot;font-size: 20px; line-height: 1;&quot;&gt;8&lt;/font&gt;" style="rounded=0;whiteSpace=wrap;html=1;fontSize=20;" parent="1" vertex="1">
                    <mxGeometry x="160" width="40" height="40" as="geometry"/>
                </mxCell>
                <mxCell id="b7J6CW01sccaG01LUfjt-7" value="" style="rounded=0;whiteSpace=wrap;html=1;fontSize=20;" parent="1" vertex="1">
                    <mxGeometry x="200" width="40" height="40" as="geometry"/>
                </mxCell>
                <mxCell id="b7J6CW01sccaG01LUfjt-8" value="4" style="rounded=0;whiteSpace=wrap;html=1;fontSize=20;" parent="1" vertex="1">
                    <mxGeometry x="240" width="40" height="40" as="geometry"/>
                </mxCell>
                <mxCell id="b7J6CW01sccaG01LUfjt-9" value="5" style="rounded=0;whiteSpace=wrap;html=1;fontSize=20;" parent="1" vertex="1">
                    <mxGeometry x="280" width="40" height="40" as="geometry"/>
                </mxCell>
                <mxCell id="b7J6CW01sccaG01LUfjt-10" value="" style="rounded=0;whiteSpace=wrap;html=1;fontSize=20;" parent="1" vertex="1">
                    <mxGeometry x="320" width="40" height="40" as="geometry"/>
                </mxCell>
                <mxCell id="b7J6CW01sccaG01LUfjt-11" value="3" style="rounded=0;whiteSpace=wrap;html=1;fontSize=20;" parent="1" vertex="1">
                    <mxGeometry x="360" width="40" height="40" as="geometry"/>
                </mxCell>
                <mxCell id="b7J6CW01sccaG01LUfjt-12" value="" style="rounded=0;whiteSpace=wrap;html=1;fontSize=20;" parent="1" vertex="1">
                    <mxGeometry y="40" width="40" height="40" as="geometry"/>
                </mxCell>
                <mxCell id="b7J6CW01sccaG01LUfjt-13" value="5" style="rounded=0;whiteSpace=wrap;html=1;fontSize=20;" parent="1" vertex="1">
                    <mxGeometry x="40" y="40" width="40" height="40" as="geometry"/>
                </mxCell>
                <mxCell id="b7J6CW01sccaG01LUfjt-14" value="" style="rounded=0;whiteSpace=wrap;html=1;fontSize=20;" parent="1" vertex="1">
                    <mxGeometry x="80" y="40" width="40" height="40" as="geometry"/>
                </mxCell>
                <mxCell id="b7J6CW01sccaG01LUfjt-15" value="" style="rounded=0;whiteSpace=wrap;html=1;fontSize=20;" parent="1" vertex="1">
                    <mxGeometry x="120" y="40" width="40" height="40" as="geometry"/>
                </mxCell>
                <mxCell id="b7J6CW01sccaG01LUfjt-16" value="" style="rounded=0;whiteSpace=wrap;html=1;fontSize=20;" parent="1" vertex="1">
                    <mxGeometry x="160" y="40" width="40" height="40" as="geometry"/>
                </mxCell>
                <mxCell id="b7J6CW01sccaG01LUfjt-17" value="6" style="rounded=0;whiteSpace=wrap;html=1;fontSize=20;" parent="1" vertex="1">
                    <mxGeometry x="200" y="40" width="40" height="40" as="geometry"/>
                </mxCell>
                <mxCell id="b7J6CW01sccaG01LUfjt-18" value="" style="rounded=0;whiteSpace=wrap;html=1;fontSize=20;" parent="1" vertex="1">
                    <mxGeometry x="240" y="40" width="40" height="40" as="geometry"/>
                </mxCell>
                <mxCell id="b7J6CW01sccaG01LUfjt-19" value="4" style="rounded=0;whiteSpace=wrap;html=1;fontSize=20;" parent="1" vertex="1">
                    <mxGeometry x="280" y="40" width="40" height="40" as="geometry"/>
                </mxCell>
                <mxCell id="b7J6CW01sccaG01LUfjt-20" value="2" style="rounded=0;whiteSpace=wrap;html=1;fontSize=20;" parent="1" vertex="1">
                    <mxGeometry x="320" y="40" width="40" height="40" as="geometry"/>
                </mxCell>
                <mxCell id="b7J6CW01sccaG01LUfjt-21" value="" style="rounded=0;whiteSpace=wrap;html=1;fontSize=20;" parent="1" vertex="1">
                    <mxGeometry x="360" y="40" width="40" height="40" as="geometry"/>
                </mxCell>
                <mxCell id="b7J6CW01sccaG01LUfjt-22" value="" style="rounded=0;whiteSpace=wrap;html=1;fontSize=20;" parent="1" vertex="1">
                    <mxGeometry y="80" width="40" height="40" as="geometry"/>
                </mxCell>
                <mxCell id="b7J6CW01sccaG01LUfjt-23" value="" style="rounded=0;whiteSpace=wrap;html=1;fontSize=20;" parent="1" vertex="1">
                    <mxGeometry x="40" y="80" width="40" height="40" as="geometry"/>
                </mxCell>
                <mxCell id="b7J6CW01sccaG01LUfjt-24" value="9" style="rounded=0;whiteSpace=wrap;html=1;fontSize=20;" parent="1" vertex="1">
                    <mxGeometry x="80" y="80" width="40" height="40" as="geometry"/>
                </mxCell>
                <mxCell id="b7J6CW01sccaG01LUfjt-25" value="" style="rounded=0;whiteSpace=wrap;html=1;fontSize=20;" parent="1" vertex="1">
                    <mxGeometry x="120" y="80" width="40" height="40" as="geometry"/>
                </mxCell>
                <mxCell id="b7J6CW01sccaG01LUfjt-26" value="1" style="rounded=0;whiteSpace=wrap;html=1;fontSize=20;" parent="1" vertex="1">
                    <mxGeometry x="160" y="80" width="40" height="40" as="geometry"/>
                </mxCell>
                <mxCell id="b7J6CW01sccaG01LUfjt-27" value="5" style="rounded=0;whiteSpace=wrap;html=1;fontSize=20;" parent="1" vertex="1">
                    <mxGeometry x="200" y="80" width="40" height="40" as="geometry"/>
                </mxCell>
                <mxCell id="b7J6CW01sccaG01LUfjt-28" value="" style="rounded=0;whiteSpace=wrap;html=1;fontSize=20;" parent="1" vertex="1">
                    <mxGeometry x="240" y="80" width="40" height="40" as="geometry"/>
                </mxCell>
                <mxCell id="b7J6CW01sccaG01LUfjt-29" value="" style="rounded=0;whiteSpace=wrap;html=1;fontSize=20;" parent="1" vertex="1">
                    <mxGeometry x="280" y="80" width="40" height="40" as="geometry"/>
                </mxCell>
                <mxCell id="b7J6CW01sccaG01LUfjt-30" value="5" style="rounded=0;whiteSpace=wrap;html=1;fontSize=20;" parent="1" vertex="1">
                    <mxGeometry x="320" y="80" width="40" height="40" as="geometry"/>
                </mxCell>
                <mxCell id="b7J6CW01sccaG01LUfjt-31" value="" style="rounded=0;whiteSpace=wrap;html=1;fontSize=20;" parent="1" vertex="1">
                    <mxGeometry x="360" y="80" width="40" height="40" as="geometry"/>
                </mxCell>
                <mxCell id="b7J6CW01sccaG01LUfjt-32" value="&lt;font style=&quot;font-size: 20px;&quot;&gt;6&lt;/font&gt;" style="rounded=0;whiteSpace=wrap;html=1;fontSize=20;" parent="1" vertex="1">
                    <mxGeometry y="120" width="40" height="40" as="geometry"/>
                </mxCell>
                <mxCell id="b7J6CW01sccaG01LUfjt-33" value="" style="rounded=0;whiteSpace=wrap;html=1;fontSize=20;" parent="1" vertex="1">
                    <mxGeometry x="40" y="120" width="40" height="40" as="geometry"/>
                </mxCell>
                <mxCell id="b7J6CW01sccaG01LUfjt-34" value="" style="rounded=0;whiteSpace=wrap;html=1;fontSize=20;" parent="1" vertex="1">
                    <mxGeometry x="80" y="120" width="40" height="40" as="geometry"/>
                </mxCell>
                <mxCell id="b7J6CW01sccaG01LUfjt-35" value="5" style="rounded=0;whiteSpace=wrap;html=1;fontSize=20;" parent="1" vertex="1">
                    <mxGeometry x="120" y="120" width="40" height="40" as="geometry"/>
                </mxCell>
                <mxCell id="b7J6CW01sccaG01LUfjt-36" value="" style="rounded=0;whiteSpace=wrap;html=1;fontSize=20;" parent="1" vertex="1">
                    <mxGeometry x="160" y="120" width="40" height="40" as="geometry"/>
                </mxCell>
                <mxCell id="b7J6CW01sccaG01LUfjt-37" value="" style="rounded=0;whiteSpace=wrap;html=1;fontSize=20;" parent="1" vertex="1">
                    <mxGeometry x="200" y="120" width="40" height="40" as="geometry"/>
                </mxCell>
                <mxCell id="b7J6CW01sccaG01LUfjt-38" value="7" style="rounded=0;whiteSpace=wrap;html=1;fontSize=20;" parent="1" vertex="1">
                    <mxGeometry x="240" y="120" width="40" height="40" as="geometry"/>
                </mxCell>
                <mxCell id="b7J6CW01sccaG01LUfjt-39" value="" style="rounded=0;whiteSpace=wrap;html=1;fontSize=20;" parent="1" vertex="1">
                    <mxGeometry x="280" y="120" width="40" height="40" as="geometry"/>
                </mxCell>
                <mxCell id="b7J6CW01sccaG01LUfjt-40" value="2" style="rounded=0;whiteSpace=wrap;html=1;fontSize=20;" parent="1" vertex="1">
                    <mxGeometry x="320" y="120" width="40" height="40" as="geometry"/>
                </mxCell>
                <mxCell id="b7J6CW01sccaG01LUfjt-41" value="" style="rounded=0;whiteSpace=wrap;html=1;fontSize=20;" parent="1" vertex="1">
                    <mxGeometry x="360" y="120" width="40" height="40" as="geometry"/>
                </mxCell>
                <mxCell id="b7J6CW01sccaG01LUfjt-42" value="" style="rounded=0;whiteSpace=wrap;html=1;fontSize=20;" parent="1" vertex="1">
                    <mxGeometry y="160" width="40" height="40" as="geometry"/>
                </mxCell>
                <mxCell id="b7J6CW01sccaG01LUfjt-43" value="3" style="rounded=0;whiteSpace=wrap;html=1;fontSize=20;" parent="1" vertex="1">
                    <mxGeometry x="40" y="160" width="40" height="40" as="geometry"/>
                </mxCell>
                <mxCell id="b7J6CW01sccaG01LUfjt-44" value="" style="rounded=0;whiteSpace=wrap;html=1;fontSize=20;" parent="1" vertex="1">
                    <mxGeometry x="80" y="160" width="40" height="40" as="geometry"/>
                </mxCell>
                <mxCell id="b7J6CW01sccaG01LUfjt-45" value="6" style="rounded=0;whiteSpace=wrap;html=1;fontSize=20;" parent="1" vertex="1">
                    <mxGeometry x="120" y="160" width="40" height="40" as="geometry"/>
                </mxCell>
                <mxCell id="b7J6CW01sccaG01LUfjt-46" value="2" style="rounded=0;whiteSpace=wrap;html=1;fontSize=20;" parent="1" vertex="1">
                    <mxGeometry x="160" y="160" width="40" height="40" as="geometry"/>
                </mxCell>
                <mxCell id="b7J6CW01sccaG01LUfjt-47" value="" style="rounded=0;whiteSpace=wrap;html=1;fontSize=20;" parent="1" vertex="1">
                    <mxGeometry x="200" y="160" width="40" height="40" as="geometry"/>
                </mxCell>
                <mxCell id="b7J6CW01sccaG01LUfjt-48" value="9" style="rounded=0;whiteSpace=wrap;html=1;fontSize=20;" parent="1" vertex="1">
                    <mxGeometry x="240" y="160" width="40" height="40" as="geometry"/>
                </mxCell>
                <mxCell id="b7J6CW01sccaG01LUfjt-49" value="" style="rounded=0;whiteSpace=wrap;html=1;fontSize=20;" parent="1" vertex="1">
                    <mxGeometry x="280" y="160" width="40" height="40" as="geometry"/>
                </mxCell>
                <mxCell id="b7J6CW01sccaG01LUfjt-50" value="" style="rounded=0;whiteSpace=wrap;html=1;fontSize=20;" parent="1" vertex="1">
                    <mxGeometry x="320" y="160" width="40" height="40" as="geometry"/>
                </mxCell>
                <mxCell id="b7J6CW01sccaG01LUfjt-51" value="7" style="rounded=0;whiteSpace=wrap;html=1;fontSize=20;" parent="1" vertex="1">
                    <mxGeometry x="360" y="160" width="40" height="40" as="geometry"/>
                </mxCell>
                <mxCell id="b7J6CW01sccaG01LUfjt-52" value="&lt;font style=&quot;font-size: 20px;&quot;&gt;4&lt;/font&gt;" style="rounded=0;whiteSpace=wrap;html=1;fontSize=20;" parent="1" vertex="1">
                    <mxGeometry y="200" width="40" height="40" as="geometry"/>
                </mxCell>
                <mxCell id="b7J6CW01sccaG01LUfjt-53" value="" style="rounded=0;whiteSpace=wrap;html=1;fontSize=20;" parent="1" vertex="1">
                    <mxGeometry x="40" y="200" width="40" height="40" as="geometry"/>
                </mxCell>
                <mxCell id="b7J6CW01sccaG01LUfjt-54" value="6" style="rounded=0;whiteSpace=wrap;html=1;fontSize=20;" parent="1" vertex="1">
                    <mxGeometry x="80" y="200" width="40" height="40" as="geometry"/>
                </mxCell>
                <mxCell id="b7J6CW01sccaG01LUfjt-55" value="" style="rounded=0;whiteSpace=wrap;html=1;fontSize=20;" parent="1" vertex="1">
                    <mxGeometry x="120" y="200" width="40" height="40" as="geometry"/>
                </mxCell>
                <mxCell id="b7J6CW01sccaG01LUfjt-56" value="" style="rounded=0;whiteSpace=wrap;html=1;fontSize=20;" parent="1" vertex="1">
                    <mxGeometry x="160" y="200" width="40" height="40" as="geometry"/>
                </mxCell>
                <mxCell id="b7J6CW01sccaG01LUfjt-57" value="5" style="rounded=0;whiteSpace=wrap;html=1;fontSize=20;" parent="1" vertex="1">
                    <mxGeometry x="200" y="200" width="40" height="40" as="geometry"/>
                </mxCell>
                <mxCell id="b7J6CW01sccaG01LUfjt-58" value="" style="rounded=0;whiteSpace=wrap;html=1;fontSize=20;" parent="1" vertex="1">
                    <mxGeometry x="240" y="200" width="40" height="40" as="geometry"/>
                </mxCell>
                <mxCell id="b7J6CW01sccaG01LUfjt-59" value="3" style="rounded=0;whiteSpace=wrap;html=1;fontSize=20;" parent="1" vertex="1">
                    <mxGeometry x="280" y="200" width="40" height="40" as="geometry"/>
                </mxCell>
                <mxCell id="b7J6CW01sccaG01LUfjt-60" value="" style="rounded=0;whiteSpace=wrap;html=1;fontSize=20;" parent="1" vertex="1">
                    <mxGeometry x="320" y="200" width="40" height="40" as="geometry"/>
                </mxCell>
                <mxCell id="b7J6CW01sccaG01LUfjt-61" value="5" style="rounded=0;whiteSpace=wrap;html=1;fontSize=20;" parent="1" vertex="1">
                    <mxGeometry x="360" y="200" width="40" height="40" as="geometry"/>
                </mxCell>
                <mxCell id="b7J6CW01sccaG01LUfjt-62" value="" style="rounded=0;whiteSpace=wrap;html=1;fontSize=20;" parent="1" vertex="1">
                    <mxGeometry y="240" width="40" height="40" as="geometry"/>
                </mxCell>
                <mxCell id="b7J6CW01sccaG01LUfjt-63" value="" style="rounded=0;whiteSpace=wrap;html=1;fontSize=20;" parent="1" vertex="1">
                    <mxGeometry x="40" y="240" width="40" height="40" as="geometry"/>
                </mxCell>
                <mxCell id="b7J6CW01sccaG01LUfjt-64" value="5" style="rounded=0;whiteSpace=wrap;html=1;fontSize=20;" parent="1" vertex="1">
                    <mxGeometry x="80" y="240" width="40" height="40" as="geometry"/>
                </mxCell>
                <mxCell id="b7J6CW01sccaG01LUfjt-65" value="" style="rounded=0;whiteSpace=wrap;html=1;fontSize=20;" parent="1" vertex="1">
                    <mxGeometry x="120" y="240" width="40" height="40" as="geometry"/>
                </mxCell>
                <mxCell id="b7J6CW01sccaG01LUfjt-66" value="2" style="rounded=0;whiteSpace=wrap;html=1;fontSize=20;" parent="1" vertex="1">
                    <mxGeometry x="160" y="240" width="40" height="40" as="geometry"/>
                </mxCell>
                <mxCell id="b7J6CW01sccaG01LUfjt-67" value="6" style="rounded=0;whiteSpace=wrap;html=1;fontSize=20;" parent="1" vertex="1">
                    <mxGeometry x="200" y="240" width="40" height="40" as="geometry"/>
                </mxCell>
                <mxCell id="b7J6CW01sccaG01LUfjt-68" value="" style="rounded=0;whiteSpace=wrap;html=1;fontSize=20;" parent="1" vertex="1">
                    <mxGeometry x="240" y="240" width="40" height="40" as="geometry"/>
                </mxCell>
                <mxCell id="b7J6CW01sccaG01LUfjt-69" value="" style="rounded=0;whiteSpace=wrap;html=1;fontSize=20;" parent="1" vertex="1">
                    <mxGeometry x="280" y="240" width="40" height="40" as="geometry"/>
                </mxCell>
                <mxCell id="b7J6CW01sccaG01LUfjt-70" value="6" style="rounded=0;whiteSpace=wrap;html=1;fontSize=20;" parent="1" vertex="1">
                    <mxGeometry x="320" y="240" width="40" height="40" as="geometry"/>
                </mxCell>
                <mxCell id="b7J6CW01sccaG01LUfjt-71" value="" style="rounded=0;whiteSpace=wrap;html=1;fontSize=20;" parent="1" vertex="1">
                    <mxGeometry x="360" y="240" width="40" height="40" as="geometry"/>
                </mxCell>
                <mxCell id="b7J6CW01sccaG01LUfjt-72" value="&lt;font style=&quot;font-size: 20px;&quot;&gt;6&lt;/font&gt;" style="rounded=0;whiteSpace=wrap;html=1;fontSize=20;" parent="1" vertex="1">
                    <mxGeometry y="280" width="40" height="40" as="geometry"/>
                </mxCell>
                <mxCell id="b7J6CW01sccaG01LUfjt-73" value="4" style="rounded=0;whiteSpace=wrap;html=1;fontSize=20;" parent="1" vertex="1">
                    <mxGeometry x="40" y="280" width="40" height="40" as="geometry"/>
                </mxCell>
                <mxCell id="b7J6CW01sccaG01LUfjt-74" value="" style="rounded=0;whiteSpace=wrap;html=1;fontSize=20;" parent="1" vertex="1">
                    <mxGeometry x="80" y="280" width="40" height="40" as="geometry"/>
                </mxCell>
                <mxCell id="b7J6CW01sccaG01LUfjt-75" value="3" style="rounded=0;whiteSpace=wrap;html=1;fontSize=20;" parent="1" vertex="1">
                    <mxGeometry x="120" y="280" width="40" height="40" as="geometry"/>
                </mxCell>
                <mxCell id="b7J6CW01sccaG01LUfjt-76" value="" style="rounded=0;whiteSpace=wrap;html=1;fontSize=20;" parent="1" vertex="1">
                    <mxGeometry x="160" y="280" width="40" height="40" as="geometry"/>
                </mxCell>
                <mxCell id="b7J6CW01sccaG01LUfjt-77" value="7" style="rounded=0;whiteSpace=wrap;html=1;fontSize=20;" parent="1" vertex="1">
                    <mxGeometry x="200" y="280" width="40" height="40" as="geometry"/>
                </mxCell>
                <mxCell id="b7J6CW01sccaG01LUfjt-78" value="" style="rounded=0;whiteSpace=wrap;html=1;fontSize=20;" parent="1" vertex="1">
                    <mxGeometry x="240" y="280" width="40" height="40" as="geometry"/>
                </mxCell>
                <mxCell id="b7J6CW01sccaG01LUfjt-79" value="" style="rounded=0;whiteSpace=wrap;html=1;fontSize=20;" parent="1" vertex="1">
                    <mxGeometry x="280" y="280" width="40" height="40" as="geometry"/>
                </mxCell>
                <mxCell id="b7J6CW01sccaG01LUfjt-80" value="4" style="rounded=0;whiteSpace=wrap;html=1;fontSize=20;" parent="1" vertex="1">
                    <mxGeometry x="320" y="280" width="40" height="40" as="geometry"/>
                </mxCell>
                <mxCell id="b7J6CW01sccaG01LUfjt-81" value="2" style="rounded=0;whiteSpace=wrap;html=1;fontSize=20;" parent="1" vertex="1">
                    <mxGeometry x="360" y="280" width="40" height="40" as="geometry"/>
                </mxCell>
                <mxCell id="b7J6CW01sccaG01LUfjt-82" value="&lt;font style=&quot;font-size: 20px;&quot;&gt;9&lt;/font&gt;" style="rounded=0;whiteSpace=wrap;html=1;fontSize=20;fillColor=#647687;fontColor=#ffffff;strokeColor=#314354;" parent="1" vertex="1">
                    <mxGeometry x="440" width="40" height="40" as="geometry"/>
                </mxCell>
                <mxCell id="b7J6CW01sccaG01LUfjt-83" value="" style="rounded=0;whiteSpace=wrap;html=1;fontSize=20;" parent="1" vertex="1">
                    <mxGeometry x="480" width="40" height="40" as="geometry"/>
                </mxCell>
                <mxCell id="b7J6CW01sccaG01LUfjt-84" value="&lt;font style=&quot;font-size: 20px; line-height: 1;&quot;&gt;5&lt;/font&gt;" style="rounded=0;whiteSpace=wrap;html=1;fontSize=20;" parent="1" vertex="1">
                    <mxGeometry x="520" width="40" height="40" as="geometry"/>
                </mxCell>
                <mxCell id="b7J6CW01sccaG01LUfjt-85" value="" style="rounded=0;whiteSpace=wrap;html=1;fontSize=20;" parent="1" vertex="1">
                    <mxGeometry x="560" width="40" height="40" as="geometry"/>
                </mxCell>
                <mxCell id="b7J6CW01sccaG01LUfjt-86" value="&lt;font style=&quot;font-size: 20px; line-height: 1;&quot;&gt;8&lt;/font&gt;" style="rounded=0;whiteSpace=wrap;html=1;fontSize=20;fillColor=#647687;fontColor=#ffffff;strokeColor=#314354;" parent="1" vertex="1">
                    <mxGeometry x="600" width="40" height="40" as="geometry"/>
                </mxCell>
                <mxCell id="b7J6CW01sccaG01LUfjt-87" value="" style="rounded=0;whiteSpace=wrap;html=1;fontSize=20;" parent="1" vertex="1">
                    <mxGeometry x="640" width="40" height="40" as="geometry"/>
                </mxCell>
                <mxCell id="b7J6CW01sccaG01LUfjt-88" value="4" style="rounded=0;whiteSpace=wrap;html=1;fontSize=20;" parent="1" vertex="1">
                    <mxGeometry x="680" width="40" height="40" as="geometry"/>
                </mxCell>
                <mxCell id="b7J6CW01sccaG01LUfjt-89" value="5" style="rounded=0;whiteSpace=wrap;html=1;fontSize=20;" parent="1" vertex="1">
                    <mxGeometry x="720" width="40" height="40" as="geometry"/>
                </mxCell>
                <mxCell id="b7J6CW01sccaG01LUfjt-90" value="" style="rounded=0;whiteSpace=wrap;html=1;fontSize=20;" parent="1" vertex="1">
                    <mxGeometry x="760" width="40" height="40" as="geometry"/>
                </mxCell>
                <mxCell id="b7J6CW01sccaG01LUfjt-91" value="3" style="rounded=0;whiteSpace=wrap;html=1;fontSize=20;" parent="1" vertex="1">
                    <mxGeometry x="800" width="40" height="40" as="geometry"/>
                </mxCell>
                <mxCell id="b7J6CW01sccaG01LUfjt-92" value="" style="rounded=0;whiteSpace=wrap;html=1;fontSize=20;" parent="1" vertex="1">
                    <mxGeometry x="440" y="40" width="40" height="40" as="geometry"/>
                </mxCell>
                <mxCell id="b7J6CW01sccaG01LUfjt-93" value="5" style="rounded=0;whiteSpace=wrap;html=1;fontSize=20;" parent="1" vertex="1">
                    <mxGeometry x="480" y="40" width="40" height="40" as="geometry"/>
                </mxCell>
                <mxCell id="b7J6CW01sccaG01LUfjt-94" value="" style="rounded=0;whiteSpace=wrap;html=1;fontSize=20;" parent="1" vertex="1">
                    <mxGeometry x="520" y="40" width="40" height="40" as="geometry"/>
                </mxCell>
                <mxCell id="b7J6CW01sccaG01LUfjt-95" value="" style="rounded=0;whiteSpace=wrap;html=1;fontSize=20;" parent="1" vertex="1">
                    <mxGeometry x="560" y="40" width="40" height="40" as="geometry"/>
                </mxCell>
                <mxCell id="b7J6CW01sccaG01LUfjt-96" value="" style="rounded=0;whiteSpace=wrap;html=1;fontSize=20;" parent="1" vertex="1">
                    <mxGeometry x="600" y="40" width="40" height="40" as="geometry"/>
                </mxCell>
                <mxCell id="b7J6CW01sccaG01LUfjt-97" value="6" style="rounded=0;whiteSpace=wrap;html=1;fontSize=20;" parent="1" vertex="1">
                    <mxGeometry x="640" y="40" width="40" height="40" as="geometry"/>
                </mxCell>
                <mxCell id="b7J6CW01sccaG01LUfjt-98" value="" style="rounded=0;whiteSpace=wrap;html=1;fontSize=20;" parent="1" vertex="1">
                    <mxGeometry x="680" y="40" width="40" height="40" as="geometry"/>
                </mxCell>
                <mxCell id="b7J6CW01sccaG01LUfjt-99" value="4" style="rounded=0;whiteSpace=wrap;html=1;fontSize=20;" parent="1" vertex="1">
                    <mxGeometry x="720" y="40" width="40" height="40" as="geometry"/>
                </mxCell>
                <mxCell id="b7J6CW01sccaG01LUfjt-100" value="2" style="rounded=0;whiteSpace=wrap;html=1;fontSize=20;" parent="1" vertex="1">
                    <mxGeometry x="760" y="40" width="40" height="40" as="geometry"/>
                </mxCell>
                <mxCell id="b7J6CW01sccaG01LUfjt-101" value="" style="rounded=0;whiteSpace=wrap;html=1;fontSize=20;" parent="1" vertex="1">
                    <mxGeometry x="800" y="40" width="40" height="40" as="geometry"/>
                </mxCell>
                <mxCell id="b7J6CW01sccaG01LUfjt-102" value="" style="rounded=0;whiteSpace=wrap;html=1;fontSize=20;" parent="1" vertex="1">
                    <mxGeometry x="440" y="80" width="40" height="40" as="geometry"/>
                </mxCell>
                <mxCell id="b7J6CW01sccaG01LUfjt-103" value="" style="rounded=0;whiteSpace=wrap;html=1;fontSize=20;" parent="1" vertex="1">
                    <mxGeometry x="480" y="80" width="40" height="40" as="geometry"/>
                </mxCell>
                <mxCell id="b7J6CW01sccaG01LUfjt-104" value="9" style="rounded=0;whiteSpace=wrap;html=1;fontSize=20;fillColor=#647687;fontColor=#ffffff;strokeColor=#314354;" parent="1" vertex="1">
                    <mxGeometry x="520" y="80" width="40" height="40" as="geometry"/>
                </mxCell>
                <mxCell id="b7J6CW01sccaG01LUfjt-105" value="" style="rounded=0;whiteSpace=wrap;html=1;fontSize=20;" parent="1" vertex="1">
                    <mxGeometry x="560" y="80" width="40" height="40" as="geometry"/>
                </mxCell>
                <mxCell id="b7J6CW01sccaG01LUfjt-106" value="1" style="rounded=0;whiteSpace=wrap;html=1;fontSize=20;" parent="1" vertex="1">
                    <mxGeometry x="600" y="80" width="40" height="40" as="geometry"/>
                </mxCell>
                <mxCell id="b7J6CW01sccaG01LUfjt-107" value="5" style="rounded=0;whiteSpace=wrap;html=1;fontSize=20;" parent="1" vertex="1">
                    <mxGeometry x="640" y="80" width="40" height="40" as="geometry"/>
                </mxCell>
                <mxCell id="b7J6CW01sccaG01LUfjt-108" value="" style="rounded=0;whiteSpace=wrap;html=1;fontSize=20;" parent="1" vertex="1">
                    <mxGeometry x="680" y="80" width="40" height="40" as="geometry"/>
                </mxCell>
                <mxCell id="b7J6CW01sccaG01LUfjt-109" value="" style="rounded=0;whiteSpace=wrap;html=1;fontSize=20;" parent="1" vertex="1">
                    <mxGeometry x="720" y="80" width="40" height="40" as="geometry"/>
                </mxCell>
                <mxCell id="b7J6CW01sccaG01LUfjt-110" value="5" style="rounded=0;whiteSpace=wrap;html=1;fontSize=20;" parent="1" vertex="1">
                    <mxGeometry x="760" y="80" width="40" height="40" as="geometry"/>
                </mxCell>
                <mxCell id="b7J6CW01sccaG01LUfjt-111" value="" style="rounded=0;whiteSpace=wrap;html=1;fontSize=20;" parent="1" vertex="1">
                    <mxGeometry x="800" y="80" width="40" height="40" as="geometry"/>
                </mxCell>
                <mxCell id="b7J6CW01sccaG01LUfjt-112" value="&lt;font style=&quot;font-size: 20px;&quot;&gt;6&lt;/font&gt;" style="rounded=0;whiteSpace=wrap;html=1;fontSize=20;" parent="1" vertex="1">
                    <mxGeometry x="440" y="120" width="40" height="40" as="geometry"/>
                </mxCell>
                <mxCell id="b7J6CW01sccaG01LUfjt-113" value="" style="rounded=0;whiteSpace=wrap;html=1;fontSize=20;" parent="1" vertex="1">
                    <mxGeometry x="480" y="120" width="40" height="40" as="geometry"/>
                </mxCell>
                <mxCell id="b7J6CW01sccaG01LUfjt-114" value="" style="rounded=0;whiteSpace=wrap;html=1;fontSize=20;" parent="1" vertex="1">
                    <mxGeometry x="520" y="120" width="40" height="40" as="geometry"/>
                </mxCell>
                <mxCell id="b7J6CW01sccaG01LUfjt-115" value="5" style="rounded=0;whiteSpace=wrap;html=1;fontSize=20;" parent="1" vertex="1">
                    <mxGeometry x="560" y="120" width="40" height="40" as="geometry"/>
                </mxCell>
                <mxCell id="b7J6CW01sccaG01LUfjt-116" value="" style="rounded=0;whiteSpace=wrap;html=1;fontSize=20;" parent="1" vertex="1">
                    <mxGeometry x="600" y="120" width="40" height="40" as="geometry"/>
                </mxCell>
                <mxCell id="b7J6CW01sccaG01LUfjt-117" value="" style="rounded=0;whiteSpace=wrap;html=1;fontSize=20;" parent="1" vertex="1">
                    <mxGeometry x="640" y="120" width="40" height="40" as="geometry"/>
                </mxCell>
                <mxCell id="b7J6CW01sccaG01LUfjt-118" value="7" style="rounded=0;whiteSpace=wrap;html=1;fontSize=20;fillColor=#647687;fontColor=#ffffff;strokeColor=#314354;" parent="1" vertex="1">
                    <mxGeometry x="680" y="120" width="40" height="40" as="geometry"/>
                </mxCell>
                <mxCell id="b7J6CW01sccaG01LUfjt-119" value="" style="rounded=0;whiteSpace=wrap;html=1;fontSize=20;" parent="1" vertex="1">
                    <mxGeometry x="720" y="120" width="40" height="40" as="geometry"/>
                </mxCell>
                <mxCell id="b7J6CW01sccaG01LUfjt-120" value="2" style="rounded=0;whiteSpace=wrap;html=1;fontSize=20;" parent="1" vertex="1">
                    <mxGeometry x="760" y="120" width="40" height="40" as="geometry"/>
                </mxCell>
                <mxCell id="b7J6CW01sccaG01LUfjt-121" value="" style="rounded=0;whiteSpace=wrap;html=1;fontSize=20;" parent="1" vertex="1">
                    <mxGeometry x="800" y="120" width="40" height="40" as="geometry"/>
                </mxCell>
                <mxCell id="b7J6CW01sccaG01LUfjt-122" value="" style="rounded=0;whiteSpace=wrap;html=1;fontSize=20;" parent="1" vertex="1">
                    <mxGeometry x="440" y="160" width="40" height="40" as="geometry"/>
                </mxCell>
                <mxCell id="b7J6CW01sccaG01LUfjt-123" value="3" style="rounded=0;whiteSpace=wrap;html=1;fontSize=20;" parent="1" vertex="1">
                    <mxGeometry x="480" y="160" width="40" height="40" as="geometry"/>
                </mxCell>
                <mxCell id="b7J6CW01sccaG01LUfjt-124" value="" style="rounded=0;whiteSpace=wrap;html=1;fontSize=20;" parent="1" vertex="1">
                    <mxGeometry x="520" y="160" width="40" height="40" as="geometry"/>
                </mxCell>
                <mxCell id="b7J6CW01sccaG01LUfjt-125" value="6" style="rounded=0;whiteSpace=wrap;html=1;fontSize=20;" parent="1" vertex="1">
                    <mxGeometry x="560" y="160" width="40" height="40" as="geometry"/>
                </mxCell>
                <mxCell id="b7J6CW01sccaG01LUfjt-126" value="2" style="rounded=0;whiteSpace=wrap;html=1;fontSize=20;" parent="1" vertex="1">
                    <mxGeometry x="600" y="160" width="40" height="40" as="geometry"/>
                </mxCell>
                <mxCell id="b7J6CW01sccaG01LUfjt-127" value="" style="rounded=0;whiteSpace=wrap;html=1;fontSize=20;" parent="1" vertex="1">
                    <mxGeometry x="640" y="160" width="40" height="40" as="geometry"/>
                </mxCell>
                <mxCell id="b7J6CW01sccaG01LUfjt-128" value="9" style="rounded=0;whiteSpace=wrap;html=1;fontSize=20;fillColor=#647687;fontColor=#ffffff;strokeColor=#314354;" parent="1" vertex="1">
                    <mxGeometry x="680" y="160" width="40" height="40" as="geometry"/>
                </mxCell>
                <mxCell id="b7J6CW01sccaG01LUfjt-129" value="" style="rounded=0;whiteSpace=wrap;html=1;fontSize=20;" parent="1" vertex="1">
                    <mxGeometry x="720" y="160" width="40" height="40" as="geometry"/>
                </mxCell>
                <mxCell id="b7J6CW01sccaG01LUfjt-130" value="" style="rounded=0;whiteSpace=wrap;html=1;fontSize=20;" parent="1" vertex="1">
                    <mxGeometry x="760" y="160" width="40" height="40" as="geometry"/>
                </mxCell>
                <mxCell id="b7J6CW01sccaG01LUfjt-131" value="7" style="rounded=0;whiteSpace=wrap;html=1;fontSize=20;fillColor=#647687;fontColor=#ffffff;strokeColor=#314354;" parent="1" vertex="1">
                    <mxGeometry x="800" y="160" width="40" height="40" as="geometry"/>
                </mxCell>
                <mxCell id="b7J6CW01sccaG01LUfjt-132" value="&lt;font style=&quot;font-size: 20px;&quot;&gt;4&lt;/font&gt;" style="rounded=0;whiteSpace=wrap;html=1;fontSize=20;" parent="1" vertex="1">
                    <mxGeometry x="440" y="200" width="40" height="40" as="geometry"/>
                </mxCell>
                <mxCell id="b7J6CW01sccaG01LUfjt-133" value="" style="rounded=0;whiteSpace=wrap;html=1;fontSize=20;" parent="1" vertex="1">
                    <mxGeometry x="480" y="200" width="40" height="40" as="geometry"/>
                </mxCell>
                <mxCell id="b7J6CW01sccaG01LUfjt-134" value="6" style="rounded=0;whiteSpace=wrap;html=1;fontSize=20;" parent="1" vertex="1">
                    <mxGeometry x="520" y="200" width="40" height="40" as="geometry"/>
                </mxCell>
                <mxCell id="b7J6CW01sccaG01LUfjt-135" value="" style="rounded=0;whiteSpace=wrap;html=1;fontSize=20;" parent="1" vertex="1">
                    <mxGeometry x="560" y="200" width="40" height="40" as="geometry"/>
                </mxCell>
                <mxCell id="b7J6CW01sccaG01LUfjt-136" value="" style="rounded=0;whiteSpace=wrap;html=1;fontSize=20;" parent="1" vertex="1">
                    <mxGeometry x="600" y="200" width="40" height="40" as="geometry"/>
                </mxCell>
                <mxCell id="b7J6CW01sccaG01LUfjt-137" value="5" style="rounded=0;whiteSpace=wrap;html=1;fontSize=20;" parent="1" vertex="1">
                    <mxGeometry x="640" y="200" width="40" height="40" as="geometry"/>
                </mxCell>
                <mxCell id="b7J6CW01sccaG01LUfjt-138" value="" style="rounded=0;whiteSpace=wrap;html=1;fontSize=20;" parent="1" vertex="1">
                    <mxGeometry x="680" y="200" width="40" height="40" as="geometry"/>
                </mxCell>
                <mxCell id="b7J6CW01sccaG01LUfjt-139" value="3" style="rounded=0;whiteSpace=wrap;html=1;fontSize=20;" parent="1" vertex="1">
                    <mxGeometry x="720" y="200" width="40" height="40" as="geometry"/>
                </mxCell>
                <mxCell id="b7J6CW01sccaG01LUfjt-140" value="" style="rounded=0;whiteSpace=wrap;html=1;fontSize=20;" parent="1" vertex="1">
                    <mxGeometry x="760" y="200" width="40" height="40" as="geometry"/>
                </mxCell>
                <mxCell id="b7J6CW01sccaG01LUfjt-141" value="5" style="rounded=0;whiteSpace=wrap;html=1;fontSize=20;" parent="1" vertex="1">
                    <mxGeometry x="800" y="200" width="40" height="40" as="geometry"/>
                </mxCell>
                <mxCell id="b7J6CW01sccaG01LUfjt-142" value="" style="rounded=0;whiteSpace=wrap;html=1;fontSize=20;" parent="1" vertex="1">
                    <mxGeometry x="440" y="240" width="40" height="40" as="geometry"/>
                </mxCell>
                <mxCell id="b7J6CW01sccaG01LUfjt-143" value="" style="rounded=0;whiteSpace=wrap;html=1;fontSize=20;" parent="1" vertex="1">
                    <mxGeometry x="480" y="240" width="40" height="40" as="geometry"/>
                </mxCell>
                <mxCell id="b7J6CW01sccaG01LUfjt-144" value="5" style="rounded=0;whiteSpace=wrap;html=1;fontSize=20;" parent="1" vertex="1">
                    <mxGeometry x="520" y="240" width="40" height="40" as="geometry"/>
                </mxCell>
                <mxCell id="b7J6CW01sccaG01LUfjt-145" value="" style="rounded=0;whiteSpace=wrap;html=1;fontSize=20;" parent="1" vertex="1">
                    <mxGeometry x="560" y="240" width="40" height="40" as="geometry"/>
                </mxCell>
                <mxCell id="b7J6CW01sccaG01LUfjt-146" value="2" style="rounded=0;whiteSpace=wrap;html=1;fontSize=20;" parent="1" vertex="1">
                    <mxGeometry x="600" y="240" width="40" height="40" as="geometry"/>
                </mxCell>
                <mxCell id="b7J6CW01sccaG01LUfjt-147" value="6" style="rounded=0;whiteSpace=wrap;html=1;fontSize=20;" parent="1" vertex="1">
                    <mxGeometry x="640" y="240" width="40" height="40" as="geometry"/>
                </mxCell>
                <mxCell id="b7J6CW01sccaG01LUfjt-148" value="" style="rounded=0;whiteSpace=wrap;html=1;fontSize=20;" parent="1" vertex="1">
                    <mxGeometry x="680" y="240" width="40" height="40" as="geometry"/>
                </mxCell>
                <mxCell id="b7J6CW01sccaG01LUfjt-149" value="" style="rounded=0;whiteSpace=wrap;html=1;fontSize=20;" parent="1" vertex="1">
                    <mxGeometry x="720" y="240" width="40" height="40" as="geometry"/>
                </mxCell>
                <mxCell id="b7J6CW01sccaG01LUfjt-150" value="6" style="rounded=0;whiteSpace=wrap;html=1;fontSize=20;" parent="1" vertex="1">
                    <mxGeometry x="760" y="240" width="40" height="40" as="geometry"/>
                </mxCell>
                <mxCell id="b7J6CW01sccaG01LUfjt-151" value="" style="rounded=0;whiteSpace=wrap;html=1;fontSize=20;" parent="1" vertex="1">
                    <mxGeometry x="800" y="240" width="40" height="40" as="geometry"/>
                </mxCell>
                <mxCell id="b7J6CW01sccaG01LUfjt-152" value="&lt;font style=&quot;font-size: 20px;&quot;&gt;6&lt;/font&gt;" style="rounded=0;whiteSpace=wrap;html=1;fontSize=20;" parent="1" vertex="1">
                    <mxGeometry x="440" y="280" width="40" height="40" as="geometry"/>
                </mxCell>
                <mxCell id="b7J6CW01sccaG01LUfjt-153" value="4" style="rounded=0;whiteSpace=wrap;html=1;fontSize=20;" parent="1" vertex="1">
                    <mxGeometry x="480" y="280" width="40" height="40" as="geometry"/>
                </mxCell>
                <mxCell id="b7J6CW01sccaG01LUfjt-154" value="" style="rounded=0;whiteSpace=wrap;html=1;fontSize=20;" parent="1" vertex="1">
                    <mxGeometry x="520" y="280" width="40" height="40" as="geometry"/>
                </mxCell>
                <mxCell id="b7J6CW01sccaG01LUfjt-155" value="3" style="rounded=0;whiteSpace=wrap;html=1;fontSize=20;" parent="1" vertex="1">
                    <mxGeometry x="560" y="280" width="40" height="40" as="geometry"/>
                </mxCell>
                <mxCell id="b7J6CW01sccaG01LUfjt-156" value="" style="rounded=0;whiteSpace=wrap;html=1;fontSize=20;" parent="1" vertex="1">
                    <mxGeometry x="600" y="280" width="40" height="40" as="geometry"/>
                </mxCell>
                <mxCell id="b7J6CW01sccaG01LUfjt-157" value="7" style="rounded=0;whiteSpace=wrap;html=1;fontSize=20;fillColor=#647687;fontColor=#ffffff;strokeColor=#314354;" parent="1" vertex="1">
                    <mxGeometry x="640" y="280" width="40" height="40" as="geometry"/>
                </mxCell>
                <mxCell id="b7J6CW01sccaG01LUfjt-158" value="" style="rounded=0;whiteSpace=wrap;html=1;fontSize=20;" parent="1" vertex="1">
                    <mxGeometry x="680" y="280" width="40" height="40" as="geometry"/>
                </mxCell>
                <mxCell id="b7J6CW01sccaG01LUfjt-159" value="" style="rounded=0;whiteSpace=wrap;html=1;fontSize=20;" parent="1" vertex="1">
                    <mxGeometry x="720" y="280" width="40" height="40" as="geometry"/>
                </mxCell>
                <mxCell id="b7J6CW01sccaG01LUfjt-160" value="4" style="rounded=0;whiteSpace=wrap;html=1;fontSize=20;" parent="1" vertex="1">
                    <mxGeometry x="760" y="280" width="40" height="40" as="geometry"/>
                </mxCell>
                <mxCell id="b7J6CW01sccaG01LUfjt-161" value="2" style="rounded=0;whiteSpace=wrap;html=1;fontSize=20;" parent="1" vertex="1">
                    <mxGeometry x="800" y="280" width="40" height="40" as="geometry"/>
                </mxCell>
                <mxCell id="b7J6CW01sccaG01LUfjt-162" value="检测结果" style="text;html=1;align=center;verticalAlign=middle;resizable=0;points=[];autosize=1;strokeColor=none;fillColor=none;fontSize=20;" parent="1" vertex="1">
                    <mxGeometry x="590" y="330" width="100" height="40" as="geometry"/>
                </mxCell>
                <mxCell id="b7J6CW01sccaG01LUfjt-163" value="&lt;font style=&quot;font-size: 20px;&quot;&gt;9&lt;/font&gt;" style="rounded=0;whiteSpace=wrap;html=1;fontSize=20;fillColor=#647687;fontColor=#ffffff;strokeColor=#314354;" parent="1" vertex="1">
                    <mxGeometry x="440" y="400" width="40" height="40" as="geometry"/>
                </mxCell>
                <mxCell id="b7J6CW01sccaG01LUfjt-164" value="" style="rounded=0;whiteSpace=wrap;html=1;fontSize=20;" parent="1" vertex="1">
                    <mxGeometry x="480" y="400" width="40" height="40" as="geometry"/>
                </mxCell>
                <mxCell id="b7J6CW01sccaG01LUfjt-165" value="&lt;font style=&quot;font-size: 20px; line-height: 1;&quot;&gt;5&lt;/font&gt;" style="rounded=0;whiteSpace=wrap;html=1;fontSize=20;" parent="1" vertex="1">
                    <mxGeometry x="520" y="400" width="40" height="40" as="geometry"/>
                </mxCell>
                <mxCell id="b7J6CW01sccaG01LUfjt-166" value="" style="rounded=0;whiteSpace=wrap;html=1;fontSize=20;" parent="1" vertex="1">
                    <mxGeometry x="560" y="400" width="40" height="40" as="geometry"/>
                </mxCell>
                <mxCell id="b7J6CW01sccaG01LUfjt-167" value="&lt;font style=&quot;font-size: 20px; line-height: 1;&quot;&gt;8&lt;/font&gt;" style="rounded=0;whiteSpace=wrap;html=1;fontSize=20;fillColor=#647687;fontColor=#ffffff;strokeColor=#314354;" parent="1" vertex="1">
                    <mxGeometry x="600" y="400" width="40" height="40" as="geometry"/>
                </mxCell>
                <mxCell id="b7J6CW01sccaG01LUfjt-168" value="" style="rounded=0;whiteSpace=wrap;html=1;fontSize=20;" parent="1" vertex="1">
                    <mxGeometry x="640" y="400" width="40" height="40" as="geometry"/>
                </mxCell>
                <mxCell id="b7J6CW01sccaG01LUfjt-169" value="4" style="rounded=0;whiteSpace=wrap;html=1;fontSize=20;" parent="1" vertex="1">
                    <mxGeometry x="680" y="400" width="40" height="40" as="geometry"/>
                </mxCell>
                <mxCell id="b7J6CW01sccaG01LUfjt-170" value="5" style="rounded=0;whiteSpace=wrap;html=1;fontSize=20;" parent="1" vertex="1">
                    <mxGeometry x="720" y="400" width="40" height="40" as="geometry"/>
                </mxCell>
                <mxCell id="b7J6CW01sccaG01LUfjt-171" value="" style="rounded=0;whiteSpace=wrap;html=1;fontSize=20;" parent="1" vertex="1">
                    <mxGeometry x="760" y="400" width="40" height="40" as="geometry"/>
                </mxCell>
                <mxCell id="b7J6CW01sccaG01LUfjt-172" value="3" style="rounded=0;whiteSpace=wrap;html=1;fontSize=20;" parent="1" vertex="1">
                    <mxGeometry x="800" y="400" width="40" height="40" as="geometry"/>
                </mxCell>
                <mxCell id="b7J6CW01sccaG01LUfjt-173" value="" style="rounded=0;whiteSpace=wrap;html=1;fontSize=20;" parent="1" vertex="1">
                    <mxGeometry x="440" y="440" width="40" height="40" as="geometry"/>
                </mxCell>
                <mxCell id="b7J6CW01sccaG01LUfjt-174" value="5" style="rounded=0;whiteSpace=wrap;html=1;fontSize=20;fillColor=#647687;fontColor=#ffffff;strokeColor=#314354;" parent="1" vertex="1">
                    <mxGeometry x="480" y="440" width="40" height="40" as="geometry"/>
                </mxCell>
                <mxCell id="b7J6CW01sccaG01LUfjt-175" value="" style="rounded=0;whiteSpace=wrap;html=1;fontSize=20;" parent="1" vertex="1">
                    <mxGeometry x="520" y="440" width="40" height="40" as="geometry"/>
                </mxCell>
                <mxCell id="b7J6CW01sccaG01LUfjt-176" value="" style="rounded=0;whiteSpace=wrap;html=1;fontSize=20;" parent="1" vertex="1">
                    <mxGeometry x="560" y="440" width="40" height="40" as="geometry"/>
                </mxCell>
                <mxCell id="b7J6CW01sccaG01LUfjt-177" value="" style="rounded=0;whiteSpace=wrap;html=1;fontSize=20;" parent="1" vertex="1">
                    <mxGeometry x="600" y="440" width="40" height="40" as="geometry"/>
                </mxCell>
                <mxCell id="b7J6CW01sccaG01LUfjt-178" value="6" style="rounded=0;whiteSpace=wrap;html=1;fontSize=20;fillColor=#647687;fontColor=#ffffff;strokeColor=#314354;" parent="1" vertex="1">
                    <mxGeometry x="640" y="440" width="40" height="40" as="geometry"/>
                </mxCell>
                <mxCell id="b7J6CW01sccaG01LUfjt-179" value="" style="rounded=0;whiteSpace=wrap;html=1;fontSize=20;" parent="1" vertex="1">
                    <mxGeometry x="680" y="440" width="40" height="40" as="geometry"/>
                </mxCell>
                <mxCell id="b7J6CW01sccaG01LUfjt-180" value="4" style="rounded=0;whiteSpace=wrap;html=1;fontSize=20;" parent="1" vertex="1">
                    <mxGeometry x="720" y="440" width="40" height="40" as="geometry"/>
                </mxCell>
                <mxCell id="b7J6CW01sccaG01LUfjt-181" value="2" style="rounded=0;whiteSpace=wrap;html=1;fontSize=20;" parent="1" vertex="1">
                    <mxGeometry x="760" y="440" width="40" height="40" as="geometry"/>
                </mxCell>
                <mxCell id="b7J6CW01sccaG01LUfjt-182" value="" style="rounded=0;whiteSpace=wrap;html=1;fontSize=20;" parent="1" vertex="1">
                    <mxGeometry x="800" y="440" width="40" height="40" as="geometry"/>
                </mxCell>
                <mxCell id="b7J6CW01sccaG01LUfjt-183" value="" style="rounded=0;whiteSpace=wrap;html=1;fontSize=20;" parent="1" vertex="1">
                    <mxGeometry x="440" y="480" width="40" height="40" as="geometry"/>
                </mxCell>
                <mxCell id="b7J6CW01sccaG01LUfjt-184" value="" style="rounded=0;whiteSpace=wrap;html=1;fontSize=20;" parent="1" vertex="1">
                    <mxGeometry x="480" y="480" width="40" height="40" as="geometry"/>
                </mxCell>
                <mxCell id="b7J6CW01sccaG01LUfjt-185" value="9" style="rounded=0;whiteSpace=wrap;html=1;fontSize=20;fillColor=#647687;fontColor=#ffffff;strokeColor=#314354;" parent="1" vertex="1">
                    <mxGeometry x="520" y="480" width="40" height="40" as="geometry"/>
                </mxCell>
                <mxCell id="b7J6CW01sccaG01LUfjt-186" value="" style="rounded=0;whiteSpace=wrap;html=1;fontSize=20;" parent="1" vertex="1">
                    <mxGeometry x="560" y="480" width="40" height="40" as="geometry"/>
                </mxCell>
                <mxCell id="b7J6CW01sccaG01LUfjt-187" value="1" style="rounded=0;whiteSpace=wrap;html=1;fontSize=20;" parent="1" vertex="1">
                    <mxGeometry x="600" y="480" width="40" height="40" as="geometry"/>
                </mxCell>
                <mxCell id="b7J6CW01sccaG01LUfjt-188" value="5" style="rounded=0;whiteSpace=wrap;html=1;fontSize=20;" parent="1" vertex="1">
                    <mxGeometry x="640" y="480" width="40" height="40" as="geometry"/>
                </mxCell>
                <mxCell id="b7J6CW01sccaG01LUfjt-189" value="" style="rounded=0;whiteSpace=wrap;html=1;fontSize=20;" parent="1" vertex="1">
                    <mxGeometry x="680" y="480" width="40" height="40" as="geometry"/>
                </mxCell>
                <mxCell id="b7J6CW01sccaG01LUfjt-190" value="" style="rounded=0;whiteSpace=wrap;html=1;fontSize=20;" parent="1" vertex="1">
                    <mxGeometry x="720" y="480" width="40" height="40" as="geometry"/>
                </mxCell>
                <mxCell id="b7J6CW01sccaG01LUfjt-191" value="5" style="rounded=0;whiteSpace=wrap;html=1;fontSize=20;" parent="1" vertex="1">
                    <mxGeometry x="760" y="480" width="40" height="40" as="geometry"/>
                </mxCell>
                <mxCell id="b7J6CW01sccaG01LUfjt-192" value="" style="rounded=0;whiteSpace=wrap;html=1;fontSize=20;" parent="1" vertex="1">
                    <mxGeometry x="800" y="480" width="40" height="40" as="geometry"/>
                </mxCell>
                <mxCell id="b7J6CW01sccaG01LUfjt-193" value="&lt;font style=&quot;font-size: 20px;&quot;&gt;6&lt;/font&gt;" style="rounded=0;whiteSpace=wrap;html=1;fontSize=20;" parent="1" vertex="1">
                    <mxGeometry x="440" y="520" width="40" height="40" as="geometry"/>
                </mxCell>
                <mxCell id="b7J6CW01sccaG01LUfjt-194" value="" style="rounded=0;whiteSpace=wrap;html=1;fontSize=20;" parent="1" vertex="1">
                    <mxGeometry x="480" y="520" width="40" height="40" as="geometry"/>
                </mxCell>
                <mxCell id="b7J6CW01sccaG01LUfjt-195" value="" style="rounded=0;whiteSpace=wrap;html=1;fontSize=20;" parent="1" vertex="1">
                    <mxGeometry x="520" y="520" width="40" height="40" as="geometry"/>
                </mxCell>
                <mxCell id="b7J6CW01sccaG01LUfjt-196" value="5" style="rounded=0;whiteSpace=wrap;html=1;fontSize=20;fillColor=#647687;fontColor=#ffffff;strokeColor=#314354;" parent="1" vertex="1">
                    <mxGeometry x="560" y="520" width="40" height="40" as="geometry"/>
                </mxCell>
                <mxCell id="b7J6CW01sccaG01LUfjt-197" value="" style="rounded=0;whiteSpace=wrap;html=1;fontSize=20;" parent="1" vertex="1">
                    <mxGeometry x="600" y="520" width="40" height="40" as="geometry"/>
                </mxCell>
                <mxCell id="b7J6CW01sccaG01LUfjt-198" value="" style="rounded=0;whiteSpace=wrap;html=1;fontSize=20;" parent="1" vertex="1">
                    <mxGeometry x="640" y="520" width="40" height="40" as="geometry"/>
                </mxCell>
                <mxCell id="b7J6CW01sccaG01LUfjt-199" value="7" style="rounded=0;whiteSpace=wrap;html=1;fontSize=20;fillColor=#647687;fontColor=#ffffff;strokeColor=#314354;" parent="1" vertex="1">
                    <mxGeometry x="680" y="520" width="40" height="40" as="geometry"/>
                </mxCell>
                <mxCell id="b7J6CW01sccaG01LUfjt-200" value="" style="rounded=0;whiteSpace=wrap;html=1;fontSize=20;" parent="1" vertex="1">
                    <mxGeometry x="720" y="520" width="40" height="40" as="geometry"/>
                </mxCell>
                <mxCell id="b7J6CW01sccaG01LUfjt-201" value="2" style="rounded=0;whiteSpace=wrap;html=1;fontSize=20;" parent="1" vertex="1">
                    <mxGeometry x="760" y="520" width="40" height="40" as="geometry"/>
                </mxCell>
                <mxCell id="b7J6CW01sccaG01LUfjt-202" value="" style="rounded=0;whiteSpace=wrap;html=1;fontSize=20;" parent="1" vertex="1">
                    <mxGeometry x="800" y="520" width="40" height="40" as="geometry"/>
                </mxCell>
                <mxCell id="b7J6CW01sccaG01LUfjt-203" value="" style="rounded=0;whiteSpace=wrap;html=1;fontSize=20;" parent="1" vertex="1">
                    <mxGeometry x="440" y="560" width="40" height="40" as="geometry"/>
                </mxCell>
                <mxCell id="b7J6CW01sccaG01LUfjt-204" value="3" style="rounded=0;whiteSpace=wrap;html=1;fontSize=20;" parent="1" vertex="1">
                    <mxGeometry x="480" y="560" width="40" height="40" as="geometry"/>
                </mxCell>
                <mxCell id="b7J6CW01sccaG01LUfjt-205" value="" style="rounded=0;whiteSpace=wrap;html=1;fontSize=20;" parent="1" vertex="1">
                    <mxGeometry x="520" y="560" width="40" height="40" as="geometry"/>
                </mxCell>
                <mxCell id="b7J6CW01sccaG01LUfjt-206" value="6" style="rounded=0;whiteSpace=wrap;html=1;fontSize=20;" parent="1" vertex="1">
                    <mxGeometry x="560" y="560" width="40" height="40" as="geometry"/>
                </mxCell>
                <mxCell id="b7J6CW01sccaG01LUfjt-207" value="2" style="rounded=0;whiteSpace=wrap;html=1;fontSize=20;" parent="1" vertex="1">
                    <mxGeometry x="600" y="560" width="40" height="40" as="geometry"/>
                </mxCell>
                <mxCell id="b7J6CW01sccaG01LUfjt-208" value="" style="rounded=0;whiteSpace=wrap;html=1;fontSize=20;" parent="1" vertex="1">
                    <mxGeometry x="640" y="560" width="40" height="40" as="geometry"/>
                </mxCell>
                <mxCell id="b7J6CW01sccaG01LUfjt-209" value="9" style="rounded=0;whiteSpace=wrap;html=1;fontSize=20;fillColor=#647687;fontColor=#ffffff;strokeColor=#314354;" parent="1" vertex="1">
                    <mxGeometry x="680" y="560" width="40" height="40" as="geometry"/>
                </mxCell>
                <mxCell id="b7J6CW01sccaG01LUfjt-210" value="" style="rounded=0;whiteSpace=wrap;html=1;fontSize=20;" parent="1" vertex="1">
                    <mxGeometry x="720" y="560" width="40" height="40" as="geometry"/>
                </mxCell>
                <mxCell id="b7J6CW01sccaG01LUfjt-211" value="" style="rounded=0;whiteSpace=wrap;html=1;fontSize=20;" parent="1" vertex="1">
                    <mxGeometry x="760" y="560" width="40" height="40" as="geometry"/>
                </mxCell>
                <mxCell id="b7J6CW01sccaG01LUfjt-212" value="7" style="rounded=0;whiteSpace=wrap;html=1;fontSize=20;fillColor=#647687;fontColor=#ffffff;strokeColor=#314354;" parent="1" vertex="1">
                    <mxGeometry x="800" y="560" width="40" height="40" as="geometry"/>
                </mxCell>
                <mxCell id="b7J6CW01sccaG01LUfjt-213" value="&lt;font style=&quot;font-size: 20px;&quot;&gt;4&lt;/font&gt;" style="rounded=0;whiteSpace=wrap;html=1;fontSize=20;" parent="1" vertex="1">
                    <mxGeometry x="440" y="600" width="40" height="40" as="geometry"/>
                </mxCell>
                <mxCell id="b7J6CW01sccaG01LUfjt-214" value="" style="rounded=0;whiteSpace=wrap;html=1;fontSize=20;" parent="1" vertex="1">
                    <mxGeometry x="480" y="600" width="40" height="40" as="geometry"/>
                </mxCell>
                <mxCell id="b7J6CW01sccaG01LUfjt-215" value="6" style="rounded=0;whiteSpace=wrap;html=1;fontSize=20;" parent="1" vertex="1">
                    <mxGeometry x="520" y="600" width="40" height="40" as="geometry"/>
                </mxCell>
                <mxCell id="b7J6CW01sccaG01LUfjt-216" value="" style="rounded=0;whiteSpace=wrap;html=1;fontSize=20;" parent="1" vertex="1">
                    <mxGeometry x="560" y="600" width="40" height="40" as="geometry"/>
                </mxCell>
                <mxCell id="b7J6CW01sccaG01LUfjt-217" value="" style="rounded=0;whiteSpace=wrap;html=1;fontSize=20;" parent="1" vertex="1">
                    <mxGeometry x="600" y="600" width="40" height="40" as="geometry"/>
                </mxCell>
                <mxCell id="b7J6CW01sccaG01LUfjt-218" value="5" style="rounded=0;whiteSpace=wrap;html=1;fontSize=20;fillColor=#647687;fontColor=#ffffff;strokeColor=#314354;" parent="1" vertex="1">
                    <mxGeometry x="640" y="600" width="40" height="40" as="geometry"/>
                </mxCell>
                <mxCell id="b7J6CW01sccaG01LUfjt-219" value="" style="rounded=0;whiteSpace=wrap;html=1;fontSize=20;" parent="1" vertex="1">
                    <mxGeometry x="680" y="600" width="40" height="40" as="geometry"/>
                </mxCell>
                <mxCell id="b7J6CW01sccaG01LUfjt-220" value="3" style="rounded=0;whiteSpace=wrap;html=1;fontSize=20;" parent="1" vertex="1">
                    <mxGeometry x="720" y="600" width="40" height="40" as="geometry"/>
                </mxCell>
                <mxCell id="b7J6CW01sccaG01LUfjt-221" value="" style="rounded=0;whiteSpace=wrap;html=1;fontSize=20;" parent="1" vertex="1">
                    <mxGeometry x="760" y="600" width="40" height="40" as="geometry"/>
                </mxCell>
                <mxCell id="b7J6CW01sccaG01LUfjt-222" value="5" style="rounded=0;whiteSpace=wrap;html=1;fontSize=20;fillColor=#647687;fontColor=#ffffff;strokeColor=#314354;" parent="1" vertex="1">
                    <mxGeometry x="800" y="600" width="40" height="40" as="geometry"/>
                </mxCell>
                <mxCell id="b7J6CW01sccaG01LUfjt-223" value="" style="rounded=0;whiteSpace=wrap;html=1;fontSize=20;" parent="1" vertex="1">
                    <mxGeometry x="440" y="640" width="40" height="40" as="geometry"/>
                </mxCell>
                <mxCell id="b7J6CW01sccaG01LUfjt-224" value="" style="rounded=0;whiteSpace=wrap;html=1;fontSize=20;" parent="1" vertex="1">
                    <mxGeometry x="480" y="640" width="40" height="40" as="geometry"/>
                </mxCell>
                <mxCell id="b7J6CW01sccaG01LUfjt-225" value="5" style="rounded=0;whiteSpace=wrap;html=1;fontSize=20;" parent="1" vertex="1">
                    <mxGeometry x="520" y="640" width="40" height="40" as="geometry"/>
                </mxCell>
                <mxCell id="b7J6CW01sccaG01LUfjt-226" value="" style="rounded=0;whiteSpace=wrap;html=1;fontSize=20;" parent="1" vertex="1">
                    <mxGeometry x="560" y="640" width="40" height="40" as="geometry"/>
                </mxCell>
                <mxCell id="b7J6CW01sccaG01LUfjt-227" value="2" style="rounded=0;whiteSpace=wrap;html=1;fontSize=20;" parent="1" vertex="1">
                    <mxGeometry x="600" y="640" width="40" height="40" as="geometry"/>
                </mxCell>
                <mxCell id="b7J6CW01sccaG01LUfjt-228" value="6" style="rounded=0;whiteSpace=wrap;html=1;fontSize=20;" parent="1" vertex="1">
                    <mxGeometry x="640" y="640" width="40" height="40" as="geometry"/>
                </mxCell>
                <mxCell id="b7J6CW01sccaG01LUfjt-229" value="" style="rounded=0;whiteSpace=wrap;html=1;fontSize=20;" parent="1" vertex="1">
                    <mxGeometry x="680" y="640" width="40" height="40" as="geometry"/>
                </mxCell>
                <mxCell id="b7J6CW01sccaG01LUfjt-230" value="" style="rounded=0;whiteSpace=wrap;html=1;fontSize=20;" parent="1" vertex="1">
                    <mxGeometry x="720" y="640" width="40" height="40" as="geometry"/>
                </mxCell>
                <mxCell id="b7J6CW01sccaG01LUfjt-231" value="6" style="rounded=0;whiteSpace=wrap;html=1;fontSize=20;" parent="1" vertex="1">
                    <mxGeometry x="760" y="640" width="40" height="40" as="geometry"/>
                </mxCell>
                <mxCell id="b7J6CW01sccaG01LUfjt-232" value="" style="rounded=0;whiteSpace=wrap;html=1;fontSize=20;" parent="1" vertex="1">
                    <mxGeometry x="800" y="640" width="40" height="40" as="geometry"/>
                </mxCell>
                <mxCell id="b7J6CW01sccaG01LUfjt-233" value="&lt;font style=&quot;font-size: 20px;&quot;&gt;6&lt;/font&gt;" style="rounded=0;whiteSpace=wrap;html=1;fontSize=20;" parent="1" vertex="1">
                    <mxGeometry x="440" y="680" width="40" height="40" as="geometry"/>
                </mxCell>
                <mxCell id="b7J6CW01sccaG01LUfjt-234" value="4" style="rounded=0;whiteSpace=wrap;html=1;fontSize=20;" parent="1" vertex="1">
                    <mxGeometry x="480" y="680" width="40" height="40" as="geometry"/>
                </mxCell>
                <mxCell id="b7J6CW01sccaG01LUfjt-235" value="" style="rounded=0;whiteSpace=wrap;html=1;fontSize=20;" parent="1" vertex="1">
                    <mxGeometry x="520" y="680" width="40" height="40" as="geometry"/>
                </mxCell>
                <mxCell id="b7J6CW01sccaG01LUfjt-236" value="3" style="rounded=0;whiteSpace=wrap;html=1;fontSize=20;" parent="1" vertex="1">
                    <mxGeometry x="560" y="680" width="40" height="40" as="geometry"/>
                </mxCell>
                <mxCell id="b7J6CW01sccaG01LUfjt-237" value="" style="rounded=0;whiteSpace=wrap;html=1;fontSize=20;" parent="1" vertex="1">
                    <mxGeometry x="600" y="680" width="40" height="40" as="geometry"/>
                </mxCell>
                <mxCell id="b7J6CW01sccaG01LUfjt-238" value="7" style="rounded=0;whiteSpace=wrap;html=1;fontSize=20;fillColor=#647687;fontColor=#ffffff;strokeColor=#314354;" parent="1" vertex="1">
                    <mxGeometry x="640" y="680" width="40" height="40" as="geometry"/>
                </mxCell>
                <mxCell id="b7J6CW01sccaG01LUfjt-239" value="" style="rounded=0;whiteSpace=wrap;html=1;fontSize=20;" parent="1" vertex="1">
                    <mxGeometry x="680" y="680" width="40" height="40" as="geometry"/>
                </mxCell>
                <mxCell id="b7J6CW01sccaG01LUfjt-240" value="" style="rounded=0;whiteSpace=wrap;html=1;fontSize=20;" parent="1" vertex="1">
                    <mxGeometry x="720" y="680" width="40" height="40" as="geometry"/>
                </mxCell>
                <mxCell id="b7J6CW01sccaG01LUfjt-241" value="4" style="rounded=0;whiteSpace=wrap;html=1;fontSize=20;" parent="1" vertex="1">
                    <mxGeometry x="760" y="680" width="40" height="40" as="geometry"/>
                </mxCell>
                <mxCell id="b7J6CW01sccaG01LUfjt-242" value="2" style="rounded=0;whiteSpace=wrap;html=1;fontSize=20;" parent="1" vertex="1">
                    <mxGeometry x="800" y="680" width="40" height="40" as="geometry"/>
                </mxCell>
                <mxCell id="b7J6CW01sccaG01LUfjt-243" value="最终结果" style="text;html=1;align=center;verticalAlign=middle;resizable=0;points=[];autosize=1;strokeColor=none;fillColor=none;fontSize=20;" parent="1" vertex="1">
                    <mxGeometry x="590" y="730" width="100" height="40" as="geometry"/>
                </mxCell>
                <mxCell id="b7J6CW01sccaG01LUfjt-244" value="原图" style="text;html=1;align=center;verticalAlign=middle;resizable=0;points=[];autosize=1;strokeColor=none;fillColor=none;fontSize=20;" parent="1" vertex="1">
                    <mxGeometry x="170" y="330" width="60" height="40" as="geometry"/>
                </mxCell>
                <mxCell id="b7J6CW01sccaG01LUfjt-488" value="&lt;font style=&quot;font-size: 20px;&quot;&gt;9&lt;/font&gt;" style="rounded=0;whiteSpace=wrap;html=1;fontSize=20;" parent="1" vertex="1">
                    <mxGeometry y="400" width="40" height="40" as="geometry"/>
                </mxCell>
                <mxCell id="b7J6CW01sccaG01LUfjt-489" value="" style="rounded=0;whiteSpace=wrap;html=1;fontSize=20;" parent="1" vertex="1">
                    <mxGeometry x="40" y="400" width="40" height="40" as="geometry"/>
                </mxCell>
                <mxCell id="b7J6CW01sccaG01LUfjt-490" value="&lt;font style=&quot;font-size: 20px; line-height: 1;&quot;&gt;5&lt;/font&gt;" style="rounded=0;whiteSpace=wrap;html=1;fontSize=20;" parent="1" vertex="1">
                    <mxGeometry x="80" y="400" width="40" height="40" as="geometry"/>
                </mxCell>
                <mxCell id="b7J6CW01sccaG01LUfjt-491" value="" style="rounded=0;whiteSpace=wrap;html=1;fontSize=20;" parent="1" vertex="1">
                    <mxGeometry x="120" y="400" width="40" height="40" as="geometry"/>
                </mxCell>
                <mxCell id="b7J6CW01sccaG01LUfjt-492" value="&lt;font style=&quot;font-size: 20px; line-height: 1;&quot;&gt;8&lt;/font&gt;" style="rounded=0;whiteSpace=wrap;html=1;fontSize=20;" parent="1" vertex="1">
                    <mxGeometry x="160" y="400" width="40" height="40" as="geometry"/>
                </mxCell>
                <mxCell id="b7J6CW01sccaG01LUfjt-493" value="" style="rounded=0;whiteSpace=wrap;html=1;fontSize=20;" parent="1" vertex="1">
                    <mxGeometry x="200" y="400" width="40" height="40" as="geometry"/>
                </mxCell>
                <mxCell id="b7J6CW01sccaG01LUfjt-494" value="4" style="rounded=0;whiteSpace=wrap;html=1;fontSize=20;" parent="1" vertex="1">
                    <mxGeometry x="240" y="400" width="40" height="40" as="geometry"/>
                </mxCell>
                <mxCell id="b7J6CW01sccaG01LUfjt-495" value="5" style="rounded=0;whiteSpace=wrap;html=1;fontSize=20;" parent="1" vertex="1">
                    <mxGeometry x="280" y="400" width="40" height="40" as="geometry"/>
                </mxCell>
                <mxCell id="b7J6CW01sccaG01LUfjt-496" value="" style="rounded=0;whiteSpace=wrap;html=1;fontSize=20;" parent="1" vertex="1">
                    <mxGeometry x="320" y="400" width="40" height="40" as="geometry"/>
                </mxCell>
                <mxCell id="b7J6CW01sccaG01LUfjt-497" value="3" style="rounded=0;whiteSpace=wrap;html=1;fontSize=20;" parent="1" vertex="1">
                    <mxGeometry x="360" y="400" width="40" height="40" as="geometry"/>
                </mxCell>
                <mxCell id="b7J6CW01sccaG01LUfjt-498" value="" style="rounded=0;whiteSpace=wrap;html=1;fontSize=20;" parent="1" vertex="1">
                    <mxGeometry y="440" width="40" height="40" as="geometry"/>
                </mxCell>
                <mxCell id="b7J6CW01sccaG01LUfjt-499" value="5" style="rounded=0;whiteSpace=wrap;html=1;fontSize=20;fillColor=#647687;fontColor=#ffffff;strokeColor=#314354;" parent="1" vertex="1">
                    <mxGeometry x="40" y="440" width="40" height="40" as="geometry"/>
                </mxCell>
                <mxCell id="b7J6CW01sccaG01LUfjt-500" value="" style="rounded=0;whiteSpace=wrap;html=1;fontSize=20;" parent="1" vertex="1">
                    <mxGeometry x="80" y="440" width="40" height="40" as="geometry"/>
                </mxCell>
                <mxCell id="b7J6CW01sccaG01LUfjt-501" value="" style="rounded=0;whiteSpace=wrap;html=1;fontSize=20;" parent="1" vertex="1">
                    <mxGeometry x="120" y="440" width="40" height="40" as="geometry"/>
                </mxCell>
                <mxCell id="b7J6CW01sccaG01LUfjt-502" value="" style="rounded=0;whiteSpace=wrap;html=1;fontSize=20;" parent="1" vertex="1">
                    <mxGeometry x="160" y="440" width="40" height="40" as="geometry"/>
                </mxCell>
                <mxCell id="b7J6CW01sccaG01LUfjt-503" value="6" style="rounded=0;whiteSpace=wrap;html=1;fontSize=20;fillColor=#647687;fontColor=#ffffff;strokeColor=#314354;" parent="1" vertex="1">
                    <mxGeometry x="200" y="440" width="40" height="40" as="geometry"/>
                </mxCell>
                <mxCell id="b7J6CW01sccaG01LUfjt-504" value="" style="rounded=0;whiteSpace=wrap;html=1;fontSize=20;" parent="1" vertex="1">
                    <mxGeometry x="240" y="440" width="40" height="40" as="geometry"/>
                </mxCell>
                <mxCell id="b7J6CW01sccaG01LUfjt-505" value="4" style="rounded=0;whiteSpace=wrap;html=1;fontSize=20;" parent="1" vertex="1">
                    <mxGeometry x="280" y="440" width="40" height="40" as="geometry"/>
                </mxCell>
                <mxCell id="b7J6CW01sccaG01LUfjt-506" value="2" style="rounded=0;whiteSpace=wrap;html=1;fontSize=20;" parent="1" vertex="1">
                    <mxGeometry x="320" y="440" width="40" height="40" as="geometry"/>
                </mxCell>
                <mxCell id="b7J6CW01sccaG01LUfjt-507" value="" style="rounded=0;whiteSpace=wrap;html=1;fontSize=20;" parent="1" vertex="1">
                    <mxGeometry x="360" y="440" width="40" height="40" as="geometry"/>
                </mxCell>
                <mxCell id="b7J6CW01sccaG01LUfjt-508" value="" style="rounded=0;whiteSpace=wrap;html=1;fontSize=20;" parent="1" vertex="1">
                    <mxGeometry y="480" width="40" height="40" as="geometry"/>
                </mxCell>
                <mxCell id="b7J6CW01sccaG01LUfjt-509" value="" style="rounded=0;whiteSpace=wrap;html=1;fontSize=20;" parent="1" vertex="1">
                    <mxGeometry x="40" y="480" width="40" height="40" as="geometry"/>
                </mxCell>
                <mxCell id="b7J6CW01sccaG01LUfjt-510" value="9" style="rounded=0;whiteSpace=wrap;html=1;fontSize=20;" parent="1" vertex="1">
                    <mxGeometry x="80" y="480" width="40" height="40" as="geometry"/>
                </mxCell>
                <mxCell id="b7J6CW01sccaG01LUfjt-511" value="" style="rounded=0;whiteSpace=wrap;html=1;fontSize=20;" parent="1" vertex="1">
                    <mxGeometry x="120" y="480" width="40" height="40" as="geometry"/>
                </mxCell>
                <mxCell id="b7J6CW01sccaG01LUfjt-512" value="1" style="rounded=0;whiteSpace=wrap;html=1;fontSize=20;" parent="1" vertex="1">
                    <mxGeometry x="160" y="480" width="40" height="40" as="geometry"/>
                </mxCell>
                <mxCell id="b7J6CW01sccaG01LUfjt-513" value="5" style="rounded=0;whiteSpace=wrap;html=1;fontSize=20;" parent="1" vertex="1">
                    <mxGeometry x="200" y="480" width="40" height="40" as="geometry"/>
                </mxCell>
                <mxCell id="b7J6CW01sccaG01LUfjt-514" value="" style="rounded=0;whiteSpace=wrap;html=1;fontSize=20;" parent="1" vertex="1">
                    <mxGeometry x="240" y="480" width="40" height="40" as="geometry"/>
                </mxCell>
                <mxCell id="b7J6CW01sccaG01LUfjt-515" value="" style="rounded=0;whiteSpace=wrap;html=1;fontSize=20;" parent="1" vertex="1">
                    <mxGeometry x="280" y="480" width="40" height="40" as="geometry"/>
                </mxCell>
                <mxCell id="b7J6CW01sccaG01LUfjt-516" value="5" style="rounded=0;whiteSpace=wrap;html=1;fontSize=20;" parent="1" vertex="1">
                    <mxGeometry x="320" y="480" width="40" height="40" as="geometry"/>
                </mxCell>
                <mxCell id="b7J6CW01sccaG01LUfjt-517" value="" style="rounded=0;whiteSpace=wrap;html=1;fontSize=20;" parent="1" vertex="1">
                    <mxGeometry x="360" y="480" width="40" height="40" as="geometry"/>
                </mxCell>
                <mxCell id="b7J6CW01sccaG01LUfjt-518" value="&lt;font style=&quot;font-size: 20px;&quot;&gt;6&lt;/font&gt;" style="rounded=0;whiteSpace=wrap;html=1;fontSize=20;" parent="1" vertex="1">
                    <mxGeometry y="520" width="40" height="40" as="geometry"/>
                </mxCell>
                <mxCell id="b7J6CW01sccaG01LUfjt-519" value="" style="rounded=0;whiteSpace=wrap;html=1;fontSize=20;" parent="1" vertex="1">
                    <mxGeometry x="40" y="520" width="40" height="40" as="geometry"/>
                </mxCell>
                <mxCell id="b7J6CW01sccaG01LUfjt-520" value="" style="rounded=0;whiteSpace=wrap;html=1;fontSize=20;" parent="1" vertex="1">
                    <mxGeometry x="80" y="520" width="40" height="40" as="geometry"/>
                </mxCell>
                <mxCell id="b7J6CW01sccaG01LUfjt-521" value="5" style="rounded=0;whiteSpace=wrap;html=1;fontSize=20;fillColor=#647687;fontColor=#ffffff;strokeColor=#314354;" parent="1" vertex="1">
                    <mxGeometry x="120" y="520" width="40" height="40" as="geometry"/>
                </mxCell>
                <mxCell id="b7J6CW01sccaG01LUfjt-522" value="" style="rounded=0;whiteSpace=wrap;html=1;fontSize=20;" parent="1" vertex="1">
                    <mxGeometry x="160" y="520" width="40" height="40" as="geometry"/>
                </mxCell>
                <mxCell id="b7J6CW01sccaG01LUfjt-523" value="" style="rounded=0;whiteSpace=wrap;html=1;fontSize=20;" parent="1" vertex="1">
                    <mxGeometry x="200" y="520" width="40" height="40" as="geometry"/>
                </mxCell>
                <mxCell id="b7J6CW01sccaG01LUfjt-524" value="7" style="rounded=0;whiteSpace=wrap;html=1;fontSize=20;" parent="1" vertex="1">
                    <mxGeometry x="240" y="520" width="40" height="40" as="geometry"/>
                </mxCell>
                <mxCell id="b7J6CW01sccaG01LUfjt-525" value="" style="rounded=0;whiteSpace=wrap;html=1;fontSize=20;" parent="1" vertex="1">
                    <mxGeometry x="280" y="520" width="40" height="40" as="geometry"/>
                </mxCell>
                <mxCell id="b7J6CW01sccaG01LUfjt-526" value="2" style="rounded=0;whiteSpace=wrap;html=1;fontSize=20;" parent="1" vertex="1">
                    <mxGeometry x="320" y="520" width="40" height="40" as="geometry"/>
                </mxCell>
                <mxCell id="b7J6CW01sccaG01LUfjt-527" value="" style="rounded=0;whiteSpace=wrap;html=1;fontSize=20;" parent="1" vertex="1">
                    <mxGeometry x="360" y="520" width="40" height="40" as="geometry"/>
                </mxCell>
                <mxCell id="b7J6CW01sccaG01LUfjt-528" value="" style="rounded=0;whiteSpace=wrap;html=1;fontSize=20;" parent="1" vertex="1">
                    <mxGeometry y="560" width="40" height="40" as="geometry"/>
                </mxCell>
                <mxCell id="b7J6CW01sccaG01LUfjt-529" value="3" style="rounded=0;whiteSpace=wrap;html=1;fontSize=20;" parent="1" vertex="1">
                    <mxGeometry x="40" y="560" width="40" height="40" as="geometry"/>
                </mxCell>
                <mxCell id="b7J6CW01sccaG01LUfjt-530" value="" style="rounded=0;whiteSpace=wrap;html=1;fontSize=20;" parent="1" vertex="1">
                    <mxGeometry x="80" y="560" width="40" height="40" as="geometry"/>
                </mxCell>
                <mxCell id="b7J6CW01sccaG01LUfjt-531" value="6" style="rounded=0;whiteSpace=wrap;html=1;fontSize=20;" parent="1" vertex="1">
                    <mxGeometry x="120" y="560" width="40" height="40" as="geometry"/>
                </mxCell>
                <mxCell id="b7J6CW01sccaG01LUfjt-532" value="2" style="rounded=0;whiteSpace=wrap;html=1;fontSize=20;" parent="1" vertex="1">
                    <mxGeometry x="160" y="560" width="40" height="40" as="geometry"/>
                </mxCell>
                <mxCell id="b7J6CW01sccaG01LUfjt-533" value="" style="rounded=0;whiteSpace=wrap;html=1;fontSize=20;" parent="1" vertex="1">
                    <mxGeometry x="200" y="560" width="40" height="40" as="geometry"/>
                </mxCell>
                <mxCell id="b7J6CW01sccaG01LUfjt-534" value="9" style="rounded=0;whiteSpace=wrap;html=1;fontSize=20;" parent="1" vertex="1">
                    <mxGeometry x="240" y="560" width="40" height="40" as="geometry"/>
                </mxCell>
                <mxCell id="b7J6CW01sccaG01LUfjt-535" value="" style="rounded=0;whiteSpace=wrap;html=1;fontSize=20;" parent="1" vertex="1">
                    <mxGeometry x="280" y="560" width="40" height="40" as="geometry"/>
                </mxCell>
                <mxCell id="b7J6CW01sccaG01LUfjt-536" value="" style="rounded=0;whiteSpace=wrap;html=1;fontSize=20;" parent="1" vertex="1">
                    <mxGeometry x="320" y="560" width="40" height="40" as="geometry"/>
                </mxCell>
                <mxCell id="b7J6CW01sccaG01LUfjt-537" value="7" style="rounded=0;whiteSpace=wrap;html=1;fontSize=20;" parent="1" vertex="1">
                    <mxGeometry x="360" y="560" width="40" height="40" as="geometry"/>
                </mxCell>
                <mxCell id="b7J6CW01sccaG01LUfjt-538" value="&lt;font style=&quot;font-size: 20px;&quot;&gt;4&lt;/font&gt;" style="rounded=0;whiteSpace=wrap;html=1;fontSize=20;" parent="1" vertex="1">
                    <mxGeometry y="600" width="40" height="40" as="geometry"/>
                </mxCell>
                <mxCell id="b7J6CW01sccaG01LUfjt-539" value="" style="rounded=0;whiteSpace=wrap;html=1;fontSize=20;" parent="1" vertex="1">
                    <mxGeometry x="40" y="600" width="40" height="40" as="geometry"/>
                </mxCell>
                <mxCell id="b7J6CW01sccaG01LUfjt-540" value="6" style="rounded=0;whiteSpace=wrap;html=1;fontSize=20;" parent="1" vertex="1">
                    <mxGeometry x="80" y="600" width="40" height="40" as="geometry"/>
                </mxCell>
                <mxCell id="b7J6CW01sccaG01LUfjt-541" value="" style="rounded=0;whiteSpace=wrap;html=1;fontSize=20;" parent="1" vertex="1">
                    <mxGeometry x="120" y="600" width="40" height="40" as="geometry"/>
                </mxCell>
                <mxCell id="b7J6CW01sccaG01LUfjt-542" value="" style="rounded=0;whiteSpace=wrap;html=1;fontSize=20;" parent="1" vertex="1">
                    <mxGeometry x="160" y="600" width="40" height="40" as="geometry"/>
                </mxCell>
                <mxCell id="b7J6CW01sccaG01LUfjt-543" value="5" style="rounded=0;whiteSpace=wrap;html=1;fontSize=20;fillColor=#647687;fontColor=#ffffff;strokeColor=#314354;" parent="1" vertex="1">
                    <mxGeometry x="200" y="600" width="40" height="40" as="geometry"/>
                </mxCell>
                <mxCell id="b7J6CW01sccaG01LUfjt-544" value="" style="rounded=0;whiteSpace=wrap;html=1;fontSize=20;" parent="1" vertex="1">
                    <mxGeometry x="240" y="600" width="40" height="40" as="geometry"/>
                </mxCell>
                <mxCell id="b7J6CW01sccaG01LUfjt-545" value="3" style="rounded=0;whiteSpace=wrap;html=1;fontSize=20;" parent="1" vertex="1">
                    <mxGeometry x="280" y="600" width="40" height="40" as="geometry"/>
                </mxCell>
                <mxCell id="b7J6CW01sccaG01LUfjt-546" value="" style="rounded=0;whiteSpace=wrap;html=1;fontSize=20;" parent="1" vertex="1">
                    <mxGeometry x="320" y="600" width="40" height="40" as="geometry"/>
                </mxCell>
                <mxCell id="b7J6CW01sccaG01LUfjt-547" value="5" style="rounded=0;whiteSpace=wrap;html=1;fontSize=20;fillColor=#647687;fontColor=#ffffff;strokeColor=#314354;" parent="1" vertex="1">
                    <mxGeometry x="360" y="600" width="40" height="40" as="geometry"/>
                </mxCell>
                <mxCell id="b7J6CW01sccaG01LUfjt-548" value="" style="rounded=0;whiteSpace=wrap;html=1;fontSize=20;" parent="1" vertex="1">
                    <mxGeometry y="640" width="40" height="40" as="geometry"/>
                </mxCell>
                <mxCell id="b7J6CW01sccaG01LUfjt-549" value="" style="rounded=0;whiteSpace=wrap;html=1;fontSize=20;" parent="1" vertex="1">
                    <mxGeometry x="40" y="640" width="40" height="40" as="geometry"/>
                </mxCell>
                <mxCell id="b7J6CW01sccaG01LUfjt-550" value="5" style="rounded=0;whiteSpace=wrap;html=1;fontSize=20;" parent="1" vertex="1">
                    <mxGeometry x="80" y="640" width="40" height="40" as="geometry"/>
                </mxCell>
                <mxCell id="b7J6CW01sccaG01LUfjt-551" value="" style="rounded=0;whiteSpace=wrap;html=1;fontSize=20;" parent="1" vertex="1">
                    <mxGeometry x="120" y="640" width="40" height="40" as="geometry"/>
                </mxCell>
                <mxCell id="b7J6CW01sccaG01LUfjt-552" value="2" style="rounded=0;whiteSpace=wrap;html=1;fontSize=20;" parent="1" vertex="1">
                    <mxGeometry x="160" y="640" width="40" height="40" as="geometry"/>
                </mxCell>
                <mxCell id="b7J6CW01sccaG01LUfjt-553" value="6" style="rounded=0;whiteSpace=wrap;html=1;fontSize=20;" parent="1" vertex="1">
                    <mxGeometry x="200" y="640" width="40" height="40" as="geometry"/>
                </mxCell>
                <mxCell id="b7J6CW01sccaG01LUfjt-554" value="" style="rounded=0;whiteSpace=wrap;html=1;fontSize=20;" parent="1" vertex="1">
                    <mxGeometry x="240" y="640" width="40" height="40" as="geometry"/>
                </mxCell>
                <mxCell id="b7J6CW01sccaG01LUfjt-555" value="" style="rounded=0;whiteSpace=wrap;html=1;fontSize=20;" parent="1" vertex="1">
                    <mxGeometry x="280" y="640" width="40" height="40" as="geometry"/>
                </mxCell>
                <mxCell id="b7J6CW01sccaG01LUfjt-556" value="6" style="rounded=0;whiteSpace=wrap;html=1;fontSize=20;" parent="1" vertex="1">
                    <mxGeometry x="320" y="640" width="40" height="40" as="geometry"/>
                </mxCell>
                <mxCell id="b7J6CW01sccaG01LUfjt-557" value="" style="rounded=0;whiteSpace=wrap;html=1;fontSize=20;" parent="1" vertex="1">
                    <mxGeometry x="360" y="640" width="40" height="40" as="geometry"/>
                </mxCell>
                <mxCell id="b7J6CW01sccaG01LUfjt-558" value="&lt;font style=&quot;font-size: 20px;&quot;&gt;6&lt;/font&gt;" style="rounded=0;whiteSpace=wrap;html=1;fontSize=20;" parent="1" vertex="1">
                    <mxGeometry y="680" width="40" height="40" as="geometry"/>
                </mxCell>
                <mxCell id="b7J6CW01sccaG01LUfjt-559" value="4" style="rounded=0;whiteSpace=wrap;html=1;fontSize=20;" parent="1" vertex="1">
                    <mxGeometry x="40" y="680" width="40" height="40" as="geometry"/>
                </mxCell>
                <mxCell id="b7J6CW01sccaG01LUfjt-560" value="" style="rounded=0;whiteSpace=wrap;html=1;fontSize=20;" parent="1" vertex="1">
                    <mxGeometry x="80" y="680" width="40" height="40" as="geometry"/>
                </mxCell>
                <mxCell id="b7J6CW01sccaG01LUfjt-561" value="3" style="rounded=0;whiteSpace=wrap;html=1;fontSize=20;" parent="1" vertex="1">
                    <mxGeometry x="120" y="680" width="40" height="40" as="geometry"/>
                </mxCell>
                <mxCell id="b7J6CW01sccaG01LUfjt-562" value="" style="rounded=0;whiteSpace=wrap;html=1;fontSize=20;" parent="1" vertex="1">
                    <mxGeometry x="160" y="680" width="40" height="40" as="geometry"/>
                </mxCell>
                <mxCell id="b7J6CW01sccaG01LUfjt-563" value="7" style="rounded=0;whiteSpace=wrap;html=1;fontSize=20;" parent="1" vertex="1">
                    <mxGeometry x="200" y="680" width="40" height="40" as="geometry"/>
                </mxCell>
                <mxCell id="b7J6CW01sccaG01LUfjt-564" value="" style="rounded=0;whiteSpace=wrap;html=1;fontSize=20;" parent="1" vertex="1">
                    <mxGeometry x="240" y="680" width="40" height="40" as="geometry"/>
                </mxCell>
                <mxCell id="b7J6CW01sccaG01LUfjt-565" value="" style="rounded=0;whiteSpace=wrap;html=1;fontSize=20;" parent="1" vertex="1">
                    <mxGeometry x="280" y="680" width="40" height="40" as="geometry"/>
                </mxCell>
                <mxCell id="b7J6CW01sccaG01LUfjt-566" value="4" style="rounded=0;whiteSpace=wrap;html=1;fontSize=20;" parent="1" vertex="1">
                    <mxGeometry x="320" y="680" width="40" height="40" as="geometry"/>
                </mxCell>
                <mxCell id="b7J6CW01sccaG01LUfjt-567" value="2" style="rounded=0;whiteSpace=wrap;html=1;fontSize=20;" parent="1" vertex="1">
                    <mxGeometry x="360" y="680" width="40" height="40" as="geometry"/>
                </mxCell>
                <mxCell id="b7J6CW01sccaG01LUfjt-568" value="跟踪结果" style="text;html=1;align=center;verticalAlign=middle;resizable=0;points=[];autosize=1;strokeColor=none;fillColor=none;fontSize=20;" parent="1" vertex="1">
                    <mxGeometry x="150" y="730" width="100" height="40" as="geometry"/>
                </mxCell>
            </root>
        </mxGraphModel>
    </diagram>
    <diagram id="PHA4hT1EtoggyAycPWBe" name="第6章习题3">
        <mxGraphModel dx="459" dy="584" grid="1" gridSize="10" guides="1" tooltips="1" connect="1" arrows="1" fold="1" page="1" pageScale="1" pageWidth="827" pageHeight="1169" math="0" shadow="0">
            <root>
                <mxCell id="0"/>
                <mxCell id="1" parent="0"/>
                <mxCell id="NJ5twjKiTED-kdIGGqin-1" value="&lt;font style=&quot;font-size: 20px;&quot;&gt;1&lt;/font&gt;" style="rounded=0;whiteSpace=wrap;html=1;fontSize=20;" parent="1" vertex="1">
                    <mxGeometry width="40" height="40" as="geometry"/>
                </mxCell>
                <mxCell id="NJ5twjKiTED-kdIGGqin-2" value="1" style="rounded=0;whiteSpace=wrap;html=1;fontSize=20;" parent="1" vertex="1">
                    <mxGeometry x="40" width="40" height="40" as="geometry"/>
                </mxCell>
                <mxCell id="NJ5twjKiTED-kdIGGqin-3" value="&lt;font style=&quot;font-size: 20px; line-height: 1;&quot;&gt;0&lt;/font&gt;" style="rounded=0;whiteSpace=wrap;html=1;fontSize=20;" parent="1" vertex="1">
                    <mxGeometry x="80" width="40" height="40" as="geometry"/>
                </mxCell>
                <mxCell id="NJ5twjKiTED-kdIGGqin-4" value="4" style="rounded=0;whiteSpace=wrap;html=1;fontSize=20;" parent="1" vertex="1">
                    <mxGeometry x="120" width="40" height="40" as="geometry"/>
                </mxCell>
                <mxCell id="NJ5twjKiTED-kdIGGqin-5" value="&lt;font style=&quot;font-size: 20px; line-height: 1;&quot;&gt;5&lt;/font&gt;" style="rounded=0;whiteSpace=wrap;html=1;fontSize=20;" parent="1" vertex="1">
                    <mxGeometry x="160" width="40" height="40" as="geometry"/>
                </mxCell>
                <mxCell id="NJ5twjKiTED-kdIGGqin-6" value="6" style="rounded=0;whiteSpace=wrap;html=1;fontSize=20;" parent="1" vertex="1">
                    <mxGeometry x="200" width="40" height="40" as="geometry"/>
                </mxCell>
                <mxCell id="NJ5twjKiTED-kdIGGqin-7" value="0" style="rounded=0;whiteSpace=wrap;html=1;fontSize=20;" parent="1" vertex="1">
                    <mxGeometry y="40" width="40" height="40" as="geometry"/>
                </mxCell>
                <mxCell id="NJ5twjKiTED-kdIGGqin-8" value="2" style="rounded=0;whiteSpace=wrap;html=1;fontSize=20;" parent="1" vertex="1">
                    <mxGeometry x="40" y="40" width="40" height="40" as="geometry"/>
                </mxCell>
                <mxCell id="NJ5twjKiTED-kdIGGqin-9" value="1" style="rounded=0;whiteSpace=wrap;html=1;fontSize=20;" parent="1" vertex="1">
                    <mxGeometry x="80" y="40" width="40" height="40" as="geometry"/>
                </mxCell>
                <mxCell id="NJ5twjKiTED-kdIGGqin-10" value="5" style="rounded=0;whiteSpace=wrap;html=1;fontSize=20;" parent="1" vertex="1">
                    <mxGeometry x="120" y="40" width="40" height="40" as="geometry"/>
                </mxCell>
                <mxCell id="NJ5twjKiTED-kdIGGqin-11" value="7" style="rounded=0;whiteSpace=wrap;html=1;fontSize=20;" parent="1" vertex="1">
                    <mxGeometry x="160" y="40" width="40" height="40" as="geometry"/>
                </mxCell>
                <mxCell id="NJ5twjKiTED-kdIGGqin-12" value="6" style="rounded=0;whiteSpace=wrap;html=1;fontSize=20;" parent="1" vertex="1">
                    <mxGeometry x="200" y="40" width="40" height="40" as="geometry"/>
                </mxCell>
                <mxCell id="NJ5twjKiTED-kdIGGqin-13" value="1" style="rounded=0;whiteSpace=wrap;html=1;fontSize=20;" parent="1" vertex="1">
                    <mxGeometry y="80" width="40" height="40" as="geometry"/>
                </mxCell>
                <mxCell id="NJ5twjKiTED-kdIGGqin-14" value="1" style="rounded=0;whiteSpace=wrap;html=1;fontSize=20;" parent="1" vertex="1">
                    <mxGeometry x="40" y="80" width="40" height="40" as="geometry"/>
                </mxCell>
                <mxCell id="NJ5twjKiTED-kdIGGqin-15" value="0" style="rounded=0;whiteSpace=wrap;html=1;fontSize=20;" parent="1" vertex="1">
                    <mxGeometry x="80" y="80" width="40" height="40" as="geometry"/>
                </mxCell>
                <mxCell id="NJ5twjKiTED-kdIGGqin-16" value="5" style="rounded=0;whiteSpace=wrap;html=1;fontSize=20;" parent="1" vertex="1">
                    <mxGeometry x="120" y="80" width="40" height="40" as="geometry"/>
                </mxCell>
                <mxCell id="NJ5twjKiTED-kdIGGqin-17" value="6" style="rounded=0;whiteSpace=wrap;html=1;fontSize=20;" parent="1" vertex="1">
                    <mxGeometry x="160" y="80" width="40" height="40" as="geometry"/>
                </mxCell>
                <mxCell id="NJ5twjKiTED-kdIGGqin-18" value="4" style="rounded=0;whiteSpace=wrap;html=1;fontSize=20;" parent="1" vertex="1">
                    <mxGeometry x="200" y="80" width="40" height="40" as="geometry"/>
                </mxCell>
                <mxCell id="NJ5twjKiTED-kdIGGqin-19" value="&lt;font style=&quot;font-size: 20px;&quot;&gt;2&lt;/font&gt;" style="rounded=0;whiteSpace=wrap;html=1;fontSize=20;" parent="1" vertex="1">
                    <mxGeometry y="120" width="40" height="40" as="geometry"/>
                </mxCell>
                <mxCell id="NJ5twjKiTED-kdIGGqin-20" value="1" style="rounded=0;whiteSpace=wrap;html=1;fontSize=20;" parent="1" vertex="1">
                    <mxGeometry x="40" y="120" width="40" height="40" as="geometry"/>
                </mxCell>
                <mxCell id="NJ5twjKiTED-kdIGGqin-21" value="2" style="rounded=0;whiteSpace=wrap;html=1;fontSize=20;" parent="1" vertex="1">
                    <mxGeometry x="80" y="120" width="40" height="40" as="geometry"/>
                </mxCell>
                <mxCell id="NJ5twjKiTED-kdIGGqin-22" value="7" style="rounded=0;whiteSpace=wrap;html=1;fontSize=20;" parent="1" vertex="1">
                    <mxGeometry x="120" y="120" width="40" height="40" as="geometry"/>
                </mxCell>
                <mxCell id="NJ5twjKiTED-kdIGGqin-23" value="6" style="rounded=0;whiteSpace=wrap;html=1;fontSize=20;" parent="1" vertex="1">
                    <mxGeometry x="160" y="120" width="40" height="40" as="geometry"/>
                </mxCell>
                <mxCell id="NJ5twjKiTED-kdIGGqin-24" value="5" style="rounded=0;whiteSpace=wrap;html=1;fontSize=20;" parent="1" vertex="1">
                    <mxGeometry x="200" y="120" width="40" height="40" as="geometry"/>
                </mxCell>
                <mxCell id="NJ5twjKiTED-kdIGGqin-25" value="1" style="rounded=0;whiteSpace=wrap;html=1;fontSize=20;" parent="1" vertex="1">
                    <mxGeometry y="160" width="40" height="40" as="geometry"/>
                </mxCell>
                <mxCell id="NJ5twjKiTED-kdIGGqin-26" value="0" style="rounded=0;whiteSpace=wrap;html=1;fontSize=20;" parent="1" vertex="1">
                    <mxGeometry x="40" y="160" width="40" height="40" as="geometry"/>
                </mxCell>
                <mxCell id="NJ5twjKiTED-kdIGGqin-27" value="1" style="rounded=0;whiteSpace=wrap;html=1;fontSize=20;" parent="1" vertex="1">
                    <mxGeometry x="80" y="160" width="40" height="40" as="geometry"/>
                </mxCell>
                <mxCell id="NJ5twjKiTED-kdIGGqin-28" value="5" style="rounded=0;whiteSpace=wrap;html=1;fontSize=20;" parent="1" vertex="1">
                    <mxGeometry x="120" y="160" width="40" height="40" as="geometry"/>
                </mxCell>
                <mxCell id="NJ5twjKiTED-kdIGGqin-29" value="7" style="rounded=0;whiteSpace=wrap;html=1;fontSize=20;" parent="1" vertex="1">
                    <mxGeometry x="160" y="160" width="40" height="40" as="geometry"/>
                </mxCell>
                <mxCell id="NJ5twjKiTED-kdIGGqin-30" value="6" style="rounded=0;whiteSpace=wrap;html=1;fontSize=20;" parent="1" vertex="1">
                    <mxGeometry x="200" y="160" width="40" height="40" as="geometry"/>
                </mxCell>
                <mxCell id="NJ5twjKiTED-kdIGGqin-31" value="&lt;font style=&quot;font-size: 20px;&quot;&gt;1&lt;/font&gt;" style="rounded=0;whiteSpace=wrap;html=1;fontSize=20;" parent="1" vertex="1">
                    <mxGeometry y="200" width="40" height="40" as="geometry"/>
                </mxCell>
                <mxCell id="NJ5twjKiTED-kdIGGqin-32" value="2" style="rounded=0;whiteSpace=wrap;html=1;fontSize=20;" parent="1" vertex="1">
                    <mxGeometry x="40" y="200" width="40" height="40" as="geometry"/>
                </mxCell>
                <mxCell id="NJ5twjKiTED-kdIGGqin-33" value="2" style="rounded=0;whiteSpace=wrap;html=1;fontSize=20;" parent="1" vertex="1">
                    <mxGeometry x="80" y="200" width="40" height="40" as="geometry"/>
                </mxCell>
                <mxCell id="NJ5twjKiTED-kdIGGqin-34" value="6" style="rounded=0;whiteSpace=wrap;html=1;fontSize=20;" parent="1" vertex="1">
                    <mxGeometry x="120" y="200" width="40" height="40" as="geometry"/>
                </mxCell>
                <mxCell id="NJ5twjKiTED-kdIGGqin-35" value="5" style="rounded=0;whiteSpace=wrap;html=1;fontSize=20;" parent="1" vertex="1">
                    <mxGeometry x="160" y="200" width="40" height="40" as="geometry"/>
                </mxCell>
                <mxCell id="NJ5twjKiTED-kdIGGqin-36" value="7" style="rounded=0;whiteSpace=wrap;html=1;fontSize=20;" parent="1" vertex="1">
                    <mxGeometry x="200" y="200" width="40" height="40" as="geometry"/>
                </mxCell>
                <mxCell id="NJ5twjKiTED-kdIGGqin-37" value="原图" style="text;html=1;align=center;verticalAlign=middle;resizable=0;points=[];autosize=1;strokeColor=none;fillColor=none;fontSize=20;" parent="1" vertex="1">
                    <mxGeometry x="90" y="240" width="60" height="40" as="geometry"/>
                </mxCell>
                <mxCell id="NJ5twjKiTED-kdIGGqin-38" value="&lt;font style=&quot;font-size: 20px;&quot;&gt;1&lt;/font&gt;" style="rounded=0;whiteSpace=wrap;html=1;fontSize=20;" parent="1" vertex="1">
                    <mxGeometry y="320" width="40" height="40" as="geometry"/>
                </mxCell>
                <mxCell id="NJ5twjKiTED-kdIGGqin-39" value="1" style="rounded=0;whiteSpace=wrap;html=1;fontSize=20;" parent="1" vertex="1">
                    <mxGeometry x="40" y="320" width="40" height="40" as="geometry"/>
                </mxCell>
                <mxCell id="NJ5twjKiTED-kdIGGqin-40" value="&lt;font style=&quot;font-size: 20px; line-height: 1;&quot;&gt;0&lt;/font&gt;" style="rounded=0;whiteSpace=wrap;html=1;fontSize=20;" parent="1" vertex="1">
                    <mxGeometry x="80" y="320" width="40" height="40" as="geometry"/>
                </mxCell>
                <mxCell id="NJ5twjKiTED-kdIGGqin-41" value="4" style="rounded=0;whiteSpace=wrap;html=1;fontSize=20;fillColor=#647687;fontColor=#ffffff;strokeColor=#314354;" parent="1" vertex="1">
                    <mxGeometry x="120" y="320" width="40" height="40" as="geometry"/>
                </mxCell>
                <mxCell id="NJ5twjKiTED-kdIGGqin-42" value="&lt;font style=&quot;font-size: 20px; line-height: 1;&quot;&gt;5&lt;/font&gt;" style="rounded=0;whiteSpace=wrap;html=1;fontSize=20;fillColor=#647687;fontColor=#ffffff;strokeColor=#314354;" parent="1" vertex="1">
                    <mxGeometry x="160" y="320" width="40" height="40" as="geometry"/>
                </mxCell>
                <mxCell id="NJ5twjKiTED-kdIGGqin-43" value="6" style="rounded=0;whiteSpace=wrap;html=1;fontSize=20;fillColor=#647687;fontColor=#ffffff;strokeColor=#314354;" parent="1" vertex="1">
                    <mxGeometry x="200" y="320" width="40" height="40" as="geometry"/>
                </mxCell>
                <mxCell id="NJ5twjKiTED-kdIGGqin-44" value="0" style="rounded=0;whiteSpace=wrap;html=1;fontSize=20;" parent="1" vertex="1">
                    <mxGeometry y="360" width="40" height="40" as="geometry"/>
                </mxCell>
                <mxCell id="NJ5twjKiTED-kdIGGqin-45" value="2" style="rounded=0;whiteSpace=wrap;html=1;fontSize=20;" parent="1" vertex="1">
                    <mxGeometry x="40" y="360" width="40" height="40" as="geometry"/>
                </mxCell>
                <mxCell id="NJ5twjKiTED-kdIGGqin-46" value="1" style="rounded=0;whiteSpace=wrap;html=1;fontSize=20;" parent="1" vertex="1">
                    <mxGeometry x="80" y="360" width="40" height="40" as="geometry"/>
                </mxCell>
                <mxCell id="NJ5twjKiTED-kdIGGqin-47" value="5" style="rounded=0;whiteSpace=wrap;html=1;fontSize=20;fillColor=#647687;fontColor=#ffffff;strokeColor=#314354;" parent="1" vertex="1">
                    <mxGeometry x="120" y="360" width="40" height="40" as="geometry"/>
                </mxCell>
                <mxCell id="NJ5twjKiTED-kdIGGqin-48" value="7" style="rounded=0;whiteSpace=wrap;html=1;fontSize=20;fillColor=#647687;fontColor=#ffffff;strokeColor=#314354;" parent="1" vertex="1">
                    <mxGeometry x="160" y="360" width="40" height="40" as="geometry"/>
                </mxCell>
                <mxCell id="NJ5twjKiTED-kdIGGqin-49" value="6" style="rounded=0;whiteSpace=wrap;html=1;fontSize=20;fillColor=#647687;fontColor=#ffffff;strokeColor=#314354;" parent="1" vertex="1">
                    <mxGeometry x="200" y="360" width="40" height="40" as="geometry"/>
                </mxCell>
                <mxCell id="NJ5twjKiTED-kdIGGqin-50" value="1" style="rounded=0;whiteSpace=wrap;html=1;fontSize=20;" parent="1" vertex="1">
                    <mxGeometry y="400" width="40" height="40" as="geometry"/>
                </mxCell>
                <mxCell id="NJ5twjKiTED-kdIGGqin-51" value="1" style="rounded=0;whiteSpace=wrap;html=1;fontSize=20;" parent="1" vertex="1">
                    <mxGeometry x="40" y="400" width="40" height="40" as="geometry"/>
                </mxCell>
                <mxCell id="NJ5twjKiTED-kdIGGqin-52" value="0" style="rounded=0;whiteSpace=wrap;html=1;fontSize=20;" parent="1" vertex="1">
                    <mxGeometry x="80" y="400" width="40" height="40" as="geometry"/>
                </mxCell>
                <mxCell id="NJ5twjKiTED-kdIGGqin-53" value="5" style="rounded=0;whiteSpace=wrap;html=1;fontSize=20;fillColor=#647687;fontColor=#ffffff;strokeColor=#314354;" parent="1" vertex="1">
                    <mxGeometry x="120" y="400" width="40" height="40" as="geometry"/>
                </mxCell>
                <mxCell id="NJ5twjKiTED-kdIGGqin-54" value="6" style="rounded=0;whiteSpace=wrap;html=1;fontSize=20;fillColor=#647687;fontColor=#ffffff;strokeColor=#314354;" parent="1" vertex="1">
                    <mxGeometry x="160" y="400" width="40" height="40" as="geometry"/>
                </mxCell>
                <mxCell id="NJ5twjKiTED-kdIGGqin-55" value="4" style="rounded=0;whiteSpace=wrap;html=1;fontSize=20;fillColor=#647687;fontColor=#ffffff;strokeColor=#314354;" parent="1" vertex="1">
                    <mxGeometry x="200" y="400" width="40" height="40" as="geometry"/>
                </mxCell>
                <mxCell id="NJ5twjKiTED-kdIGGqin-56" value="&lt;font style=&quot;font-size: 20px;&quot;&gt;2&lt;/font&gt;" style="rounded=0;whiteSpace=wrap;html=1;fontSize=20;" parent="1" vertex="1">
                    <mxGeometry y="440" width="40" height="40" as="geometry"/>
                </mxCell>
                <mxCell id="NJ5twjKiTED-kdIGGqin-57" value="1" style="rounded=0;whiteSpace=wrap;html=1;fontSize=20;" parent="1" vertex="1">
                    <mxGeometry x="40" y="440" width="40" height="40" as="geometry"/>
                </mxCell>
                <mxCell id="NJ5twjKiTED-kdIGGqin-58" value="2" style="rounded=0;whiteSpace=wrap;html=1;fontSize=20;" parent="1" vertex="1">
                    <mxGeometry x="80" y="440" width="40" height="40" as="geometry"/>
                </mxCell>
                <mxCell id="NJ5twjKiTED-kdIGGqin-59" value="7" style="rounded=0;whiteSpace=wrap;html=1;fontSize=20;fillColor=#647687;fontColor=#ffffff;strokeColor=#314354;" parent="1" vertex="1">
                    <mxGeometry x="120" y="440" width="40" height="40" as="geometry"/>
                </mxCell>
                <mxCell id="NJ5twjKiTED-kdIGGqin-60" value="6" style="rounded=0;whiteSpace=wrap;html=1;fontSize=20;fillColor=#647687;fontColor=#ffffff;strokeColor=#314354;" parent="1" vertex="1">
                    <mxGeometry x="160" y="440" width="40" height="40" as="geometry"/>
                </mxCell>
                <mxCell id="NJ5twjKiTED-kdIGGqin-61" value="5" style="rounded=0;whiteSpace=wrap;html=1;fontSize=20;fillColor=#647687;fontColor=#ffffff;strokeColor=#314354;" parent="1" vertex="1">
                    <mxGeometry x="200" y="440" width="40" height="40" as="geometry"/>
                </mxCell>
                <mxCell id="NJ5twjKiTED-kdIGGqin-62" value="1" style="rounded=0;whiteSpace=wrap;html=1;fontSize=20;" parent="1" vertex="1">
                    <mxGeometry y="480" width="40" height="40" as="geometry"/>
                </mxCell>
                <mxCell id="NJ5twjKiTED-kdIGGqin-63" value="0" style="rounded=0;whiteSpace=wrap;html=1;fontSize=20;" parent="1" vertex="1">
                    <mxGeometry x="40" y="480" width="40" height="40" as="geometry"/>
                </mxCell>
                <mxCell id="NJ5twjKiTED-kdIGGqin-64" value="1" style="rounded=0;whiteSpace=wrap;html=1;fontSize=20;" parent="1" vertex="1">
                    <mxGeometry x="80" y="480" width="40" height="40" as="geometry"/>
                </mxCell>
                <mxCell id="NJ5twjKiTED-kdIGGqin-65" value="5" style="rounded=0;whiteSpace=wrap;html=1;fontSize=20;fillColor=#647687;fontColor=#ffffff;strokeColor=#314354;" parent="1" vertex="1">
                    <mxGeometry x="120" y="480" width="40" height="40" as="geometry"/>
                </mxCell>
                <mxCell id="NJ5twjKiTED-kdIGGqin-66" value="7" style="rounded=0;whiteSpace=wrap;html=1;fontSize=20;fillColor=#647687;fontColor=#ffffff;strokeColor=#314354;" parent="1" vertex="1">
                    <mxGeometry x="160" y="480" width="40" height="40" as="geometry"/>
                </mxCell>
                <mxCell id="NJ5twjKiTED-kdIGGqin-67" value="6" style="rounded=0;whiteSpace=wrap;html=1;fontSize=20;fillColor=#647687;fontColor=#ffffff;strokeColor=#314354;" parent="1" vertex="1">
                    <mxGeometry x="200" y="480" width="40" height="40" as="geometry"/>
                </mxCell>
                <mxCell id="NJ5twjKiTED-kdIGGqin-68" value="&lt;font style=&quot;font-size: 20px;&quot;&gt;1&lt;/font&gt;" style="rounded=0;whiteSpace=wrap;html=1;fontSize=20;" parent="1" vertex="1">
                    <mxGeometry y="520" width="40" height="40" as="geometry"/>
                </mxCell>
                <mxCell id="NJ5twjKiTED-kdIGGqin-69" value="2" style="rounded=0;whiteSpace=wrap;html=1;fontSize=20;" parent="1" vertex="1">
                    <mxGeometry x="40" y="520" width="40" height="40" as="geometry"/>
                </mxCell>
                <mxCell id="NJ5twjKiTED-kdIGGqin-70" value="2" style="rounded=0;whiteSpace=wrap;html=1;fontSize=20;" parent="1" vertex="1">
                    <mxGeometry x="80" y="520" width="40" height="40" as="geometry"/>
                </mxCell>
                <mxCell id="NJ5twjKiTED-kdIGGqin-71" value="6" style="rounded=0;whiteSpace=wrap;html=1;fontSize=20;fillColor=#647687;fontColor=#ffffff;strokeColor=#314354;" parent="1" vertex="1">
                    <mxGeometry x="120" y="520" width="40" height="40" as="geometry"/>
                </mxCell>
                <mxCell id="NJ5twjKiTED-kdIGGqin-72" value="5" style="rounded=0;whiteSpace=wrap;html=1;fontSize=20;fillColor=#647687;fontColor=#ffffff;strokeColor=#314354;" parent="1" vertex="1">
                    <mxGeometry x="160" y="520" width="40" height="40" as="geometry"/>
                </mxCell>
                <mxCell id="NJ5twjKiTED-kdIGGqin-73" value="7" style="rounded=0;whiteSpace=wrap;html=1;fontSize=20;fillColor=#647687;fontColor=#ffffff;strokeColor=#314354;" parent="1" vertex="1">
                    <mxGeometry x="200" y="520" width="40" height="40" as="geometry"/>
                </mxCell>
                <mxCell id="NJ5twjKiTED-kdIGGqin-74" value="分割结果" style="text;html=1;align=center;verticalAlign=middle;resizable=0;points=[];autosize=1;strokeColor=none;fillColor=none;fontSize=20;" parent="1" vertex="1">
                    <mxGeometry x="70" y="560" width="100" height="40" as="geometry"/>
                </mxCell>
            </root>
        </mxGraphModel>
    </diagram>
</mxfile>